<svg width="1920" height="1005" viewBox="0 0 1920 1005" fill="none" xmlns="http://www.w3.org/2000/svg">
<g clip-path="url(#clip0)">
<rect width="1920" height="1005" fill="white"/>
<path d="M838.164 775.732C721.579 609.953 884.169 549.292 937.841 314.434C991.514 79.5767 1374.04 57.8733 1487.98 253.204C1633.38 502.457 1861.54 478.461 1767.71 701.554C1663.4 949.588 1546.16 726.965 1314.35 840.551C1082.54 954.137 923.214 896.67 838.164 775.732Z" fill="url(#paint0_linear)"/>
<mask id="mask0" mask-type="alpha" maskUnits="userSpaceOnUse" x="797" y="121" width="993" height="781">
<path d="M838.164 775.732C721.579 609.953 884.169 549.292 937.841 314.434C991.514 79.5767 1374.04 57.8733 1487.98 253.204C1633.38 502.457 1861.54 478.461 1767.71 701.554C1663.4 949.588 1546.16 726.965 1314.35 840.551C1082.54 954.137 923.214 896.67 838.164 775.732Z" fill="url(#paint1_linear)"/>
</mask>
<g mask="url(#mask0)">
<g filter="url(#filter0_f)">
<path d="M644.84 1028.47V512.339C680.371 517.949 791.404 632.888 1166.16 632.888C1540.92 632.888 1880.94 413.226 1977.25 355.255V1028.47H644.84Z" fill="url(#paint2_linear)"/>
</g>
</g>
<mask id="mask1" mask-type="alpha" maskUnits="userSpaceOnUse" x="797" y="121" width="993" height="781">
<path d="M838.164 775.732C721.579 609.953 884.169 549.292 937.841 314.434C991.514 79.5767 1374.04 57.8733 1487.98 253.204C1633.38 502.457 1861.54 478.461 1767.71 701.554C1663.4 949.588 1546.16 726.965 1314.35 840.551C1082.54 954.137 923.214 896.67 838.164 775.732Z" fill="url(#paint3_linear)"/>
</mask>
<g mask="url(#mask1)">
<g filter="url(#filter1_f)">
<path d="M1995.62 942.641V426.508C1960.09 432.118 1849.06 547.058 1474.3 547.058C1099.54 547.058 759.519 327.396 663.212 269.424V942.641H1995.62Z" fill="url(#paint4_linear)"/>
</g>
</g>
<rect x="1305.12" y="388.789" width="49.5997" height="437.158" fill="url(#paint5_linear)"/>
<rect x="1293.34" y="749.114" width="73.1605" height="11.9099" rx="5.95497" fill="#E2EAEB"/>
<path fill-rule="evenodd" clip-rule="evenodd" d="M1294.87 751.085C1297.24 755.225 1302.22 755.398 1307.37 755.398L1366.49 755.398C1366.32 758.534 1363.73 761.024 1360.55 761.024H1299.3C1296.01 761.024 1293.34 758.358 1293.34 755.069C1293.34 753.537 1293.92 752.14 1294.87 751.085Z" fill="url(#paint6_linear)"/>
<path fill-rule="evenodd" clip-rule="evenodd" d="M1305.12 770.764V761.024H1354.53C1330.29 761.024 1317.07 764.393 1305.12 770.764Z" fill="#334352" fill-opacity="0.35"/>
<path fill-rule="evenodd" clip-rule="evenodd" d="M1302.3 815.518H1278.64C1274 815.518 1270.03 818.836 1269.2 823.399L1238.47 992.71C1237.4 998.598 1241.92 1004.02 1247.91 1004.02H1302.3H1356.7C1362.68 1004.02 1367.21 998.598 1366.14 992.71L1335.41 823.399C1334.58 818.836 1330.6 815.518 1325.97 815.518H1302.3H1302.3Z" fill="url(#paint7_linear)"/>
<path fill-rule="evenodd" clip-rule="evenodd" d="M1354.07 815.518H1330.41C1325.77 815.518 1321.79 818.836 1320.96 823.399L1290.23 992.71C1289.17 998.598 1293.69 1004.02 1299.68 1004.02H1354.07H1408.46C1414.45 1004.02 1418.97 998.598 1417.9 992.71L1387.17 823.399C1386.34 818.836 1382.37 815.518 1377.73 815.518H1354.07H1354.07Z" fill="#DEE1E2"/>
<rect x="1293.34" y="764.809" width="73.1605" height="11.9099" rx="5.95497" fill="#E2EAEB"/>
<path fill-rule="evenodd" clip-rule="evenodd" d="M1294.87 766.78C1297.24 770.92 1302.22 771.093 1307.37 771.093L1366.49 771.093C1366.32 774.229 1363.73 776.719 1360.55 776.719H1299.3C1296.01 776.719 1293.34 774.053 1293.34 770.764C1293.34 769.232 1293.92 767.835 1294.87 766.78Z" fill="url(#paint8_linear)"/>
<path fill-rule="evenodd" clip-rule="evenodd" d="M1305.12 455.78V430.859H1354.53C1330.29 430.859 1317.07 439.479 1305.12 455.78Z" fill="#405365" fill-opacity="0.37"/>
<path fill-rule="evenodd" clip-rule="evenodd" d="M1305.12 786.459V776.719H1354.53C1330.29 776.719 1317.07 780.088 1305.12 786.459Z" fill="#334352" fill-opacity="0.35"/>
<path d="M1353.19 288.129L1364.98 332.975C1365.22 333.899 1365.28 334.862 1365.15 335.808L1352.65 424.666C1352.15 428.218 1349.11 430.859 1345.52 430.859L1300.25 430.859C1296.66 430.859 1293.62 428.218 1293.12 424.666L1280.62 335.808C1280.49 334.862 1280.55 333.899 1280.79 332.975L1292.58 288.129C1293.41 284.967 1296.27 282.763 1299.54 282.763L1346.23 282.763C1349.5 282.763 1352.36 284.967 1353.19 288.129Z" fill="url(#paint9_linear)"/>
<path d="M1367.26 288.129L1379.05 332.975C1379.3 333.899 1379.35 334.862 1379.22 335.808L1366.72 424.666C1366.22 428.218 1363.18 430.859 1359.6 430.859H1333.25C1329.66 430.859 1326.62 428.218 1326.12 424.666L1313.62 335.808C1313.49 334.862 1313.55 333.899 1313.79 332.975L1325.58 288.129C1326.41 284.967 1329.27 282.763 1332.54 282.763H1360.3C1363.57 282.763 1366.43 284.967 1367.26 288.129Z" fill="#DEE1E2"/>
<path d="M1022.47 342.536L892.959 772.967" stroke="#D6DDDF" stroke-width="4.01858"/>
<path d="M1662.07 342.536L1532.56 772.967" stroke="#D6DDDF" stroke-width="4.01858"/>
<path fill-rule="evenodd" clip-rule="evenodd" d="M1376.21 322.165L1379.06 332.975C1379.3 333.899 1379.35 334.862 1379.22 335.808L1378.53 340.736L1316.62 359.452L1289.01 395.473L1280.62 335.808C1280.49 334.862 1280.55 333.899 1280.79 332.975L1283.63 322.165H1376.21Z" fill="url(#paint10_linear)" fill-opacity="0.34"/>
<path d="M1042.02 340.47C1118.73 340.47 1155.95 290.458 1286.84 290.458V340.47C1175.63 340.47 1142.58 366.511 1042.02 366.511C1009.33 366.511 1009.23 366.511 1005.73 366.511V340.471C1010.37 340.471 1012.07 340.47 1042.02 340.47Z" fill="url(#paint11_linear)"/>
<path d="M1060 340.47C1136.71 340.47 1173.93 290.458 1304.82 290.458V340.47C1193.6 340.47 1160.56 366.511 1060 366.511C1027.3 366.511 1027.2 366.511 1023.7 366.511V340.471C1028.35 340.471 1030.04 340.47 1060 340.47Z" fill="#DEE1E2"/>
<path fill-rule="evenodd" clip-rule="evenodd" d="M1023.17 314.006H1005.73V314.006C1005.73 314.006 1005.73 314.006 1005.73 314.006C994.565 314.006 985.518 325.76 985.518 340.258C985.518 354.757 994.565 366.511 1005.73 366.511C1005.74 366.511 1005.76 366.511 1005.78 366.511H1023.17V353.52C1024.93 349.628 1025.93 345.096 1025.93 340.258C1025.93 335.421 1024.93 330.889 1023.17 326.997V314.006Z" fill="url(#paint12_linear)"/>
<ellipse cx="1023.7" cy="340.258" rx="20.2071" ry="26.2526" fill="#DEE1E2"/>
<rect x="1304.82" y="290.458" width="58.5054" height="49.9694" fill="#DEE1E2"/>
<path fill-rule="evenodd" clip-rule="evenodd" d="M1703.18 314.006H1685.74V314.006C1674.58 314.006 1665.53 325.76 1665.53 340.259C1665.53 354.757 1674.58 366.511 1685.74 366.511C1685.76 366.511 1685.78 366.511 1685.79 366.511H1703.18V353.521C1704.94 349.629 1705.95 345.097 1705.95 340.259C1705.95 335.421 1704.94 330.888 1703.18 326.996V314.006Z" fill="url(#paint13_linear)"/>
<ellipse cx="1703.72" cy="340.259" rx="20.2071" ry="26.2526" fill="#DEE1E2"/>
<path d="M1649.41 340.471C1572.7 340.471 1535.48 290.458 1404.58 290.458V340.47C1515.8 340.47 1548.85 366.511 1649.41 366.511C1682.1 366.511 1682.2 366.511 1685.7 366.511V340.471C1681.06 340.471 1679.36 340.471 1649.41 340.471Z" fill="url(#paint14_linear)"/>
<path d="M1666.65 340.471C1589.95 340.471 1552.73 290.458 1421.83 290.458V340.47C1533.05 340.47 1566.09 366.511 1666.65 366.511C1699.35 366.511 1699.45 366.511 1702.95 366.511V340.471C1698.3 340.471 1696.61 340.471 1666.65 340.471Z" fill="#DEE1E2"/>
<rect width="58.5054" height="49.9694" transform="matrix(-1 0 0 1 1421.83 290.458)" fill="#DEE1E2"/>
<circle cx="1030.43" cy="667.265" r="115.102" fill="url(#paint15_radial)"/>
<path fill-rule="evenodd" clip-rule="evenodd" d="M967.79 570.685C974.89 577.428 992.732 575.268 1011.08 571.599C1025.12 568.791 1023.98 564.952 1023.15 562.122C1022.54 560.047 1022.09 558.515 1027.89 558.327C1035.06 558.096 1039.97 555.457 1042.93 552.834C1038.83 552.39 1034.65 552.163 1030.43 552.163C1007.33 552.163 985.817 558.969 967.79 570.685ZM917.227 688.193C915.98 681.407 915.329 674.412 915.329 667.265C915.329 634.395 929.107 604.744 951.202 583.77C959.186 586.896 960.353 595.907 957.105 601.681C955.115 605.22 952.792 605.994 950.138 606.878C947.484 607.763 944.498 608.759 941.18 612.74C938.583 615.856 936.325 616.669 934.352 617.379C931.285 618.483 928.908 619.338 927.024 628.223C925.818 633.905 924.479 638.381 923.267 642.433C921.364 648.791 919.773 654.106 919.503 661.402C919.321 666.323 918.349 677.01 917.227 688.193ZM1063.19 777.638C1052.81 780.715 1041.81 782.367 1030.43 782.367C1009.77 782.367 990.378 776.923 973.616 767.391C976.3 767.207 979.615 767.13 983.648 767.13H1042.48C1054.78 767.13 1060.68 772.168 1063.19 777.638ZM1136.29 712.534C1127.39 733.326 1112.54 750.966 1093.88 763.315C1094.7 761.779 1095.46 760.411 1096.11 759.303C1099.2 754.051 1098.08 747.746 1097.06 741.966V741.966L1097.06 741.966C1096.57 739.265 1096.11 736.678 1096.11 734.367V734.367C1096.11 730.637 1096.11 728.945 1096.85 727.688C1097.47 726.644 1098.59 725.901 1100.65 724.54L1100.66 724.537L1100.66 724.535C1100.94 724.349 1101.24 724.151 1101.56 723.94C1107 720.313 1101.56 712.605 1096.11 710.792C1095.13 710.465 1094.3 710.256 1093.54 710.064C1090.05 709.19 1087.97 708.667 1079.79 699.004C1073.16 691.17 1075.15 699.154 1077.35 708.053C1078.47 712.545 1079.64 717.271 1079.79 720.313C1080.22 728.849 1071.4 704.839 1067.72 694.809L1067.72 694.805L1067.69 694.733C1067.48 694.138 1067.28 693.594 1067.1 693.11C1064.63 686.408 1058.59 683.273 1053.26 680.504L1053.26 680.504C1051.74 679.714 1050.27 678.953 1048.96 678.148C1043.07 674.521 1042.16 670.441 1039.9 650.945C1031.47 641.681 1020.79 641.108 1011.62 640.616C1005.98 640.314 1000.9 640.042 997.278 637.797C989.75 633.137 995.825 625.361 1002.06 617.379C1003.71 615.265 1005.37 613.136 1006.8 611.048C1011.53 604.106 1019.78 606.607 1027.41 608.923C1030.75 609.934 1033.96 610.91 1036.72 611.048C1042.52 611.338 1045.91 605.501 1048.79 600.547C1050.41 597.76 1051.86 595.252 1053.5 594.273C1054.75 593.518 1057.34 593.566 1060.41 593.623C1068.43 593.77 1079.79 593.979 1079.79 580.218C1079.79 565.744 1097.61 585.062 1108.94 597.353C1112.52 601.232 1115.45 604.411 1116.97 605.607C1123.32 610.594 1123.32 619.209 1116.97 630.997C1112.71 638.916 1114.17 642.333 1115.59 645.648C1116.29 647.267 1116.97 648.862 1116.97 650.945C1116.97 657.293 1113.34 678.148 1105.18 686.762C1099.06 693.225 1101.87 696.881 1103.85 699.453C1104.5 700.309 1105.07 701.045 1105.18 701.724C1105.64 704.444 1121.5 710.792 1127.85 710.792C1130.16 710.792 1133.25 711.544 1136.29 712.534Z" fill="url(#paint16_radial)"/>
<g filter="url(#filter2_f)">
<circle cx="1030.43" cy="667.265" r="119.193" fill="url(#paint17_radial)"/>
</g>
<ellipse cx="1089.82" cy="617.313" rx="27.6174" ry="37.8674" transform="rotate(-32.0273 1089.82 617.313)" fill="url(#paint18_radial)"/>
<circle cx="1089.82" cy="598.196" r="3.53289" fill="url(#paint19_radial)"/>
<rect x="1587.89" y="542.306" width="150.895" height="218.141" fill="#DEE2E4"/>
<path fill-rule="evenodd" clip-rule="evenodd" d="M1751.64 523.353H1601V561.26H1751.62C1751.63 561.26 1751.63 561.26 1751.64 561.26C1758.73 561.26 1764.49 552.774 1764.49 542.306C1764.49 531.838 1758.73 523.353 1751.64 523.353Z" fill="url(#paint20_linear)"/>
<path fill-rule="evenodd" clip-rule="evenodd" d="M1751.64 741.493H1601V779.401H1751.64C1758.73 779.401 1764.49 770.915 1764.49 760.447C1764.49 749.979 1758.73 741.493 1751.64 741.493Z" fill="url(#paint21_linear)"/>
<ellipse cx="1600.74" cy="542.306" rx="12.8502" ry="18.9539" fill="#DCE0E1"/>
<ellipse cx="1600.74" cy="760.447" rx="12.8502" ry="18.9539" fill="#DCE0E1"/>
<rect x="1602" y="580.141" width="83.9971" height="10.6993" rx="5.34967" fill="url(#paint22_linear)"/>
<rect width="102.714" height="10.6993" rx="5.34967" transform="matrix(-1 0 0 1 1704.71 600.87)" fill="url(#paint23_linear)"/>
<rect x="1602" y="621.599" width="117.622" height="10.6993" rx="5.34967" fill="url(#paint24_linear)"/>
<rect width="102.714" height="10.6993" rx="5.34967" transform="matrix(-1 0 0 1 1704.71 642.328)" fill="url(#paint25_linear)"/>
<rect x="1602" y="663.057" width="83.9971" height="10.6993" rx="5.34967" fill="url(#paint26_linear)"/>
<rect width="102.714" height="10.6993" rx="5.34967" transform="matrix(-1 0 0 1 1704.71 683.786)" fill="url(#paint27_linear)"/>
<rect x="1602" y="704.515" width="117.622" height="10.6993" rx="5.34967" fill="url(#paint28_linear)"/>
<rect x="1602" y="725.244" width="74.4805" height="10.6993" rx="5.34967" fill="url(#paint29_linear)"/>
<path fill-rule="evenodd" clip-rule="evenodd" d="M1025.93 797.503C1076.35 797.503 1125.37 791.547 1172.34 780.299C1177.72 779.01 1176.74 771.749 1171.21 771.749H880.658C875.123 771.749 874.146 779.01 879.529 780.299C926.495 791.547 975.519 797.503 1025.93 797.503Z" fill="url(#paint30_linear)"/>
<path fill-rule="evenodd" clip-rule="evenodd" d="M1025.93 797.503C1076.35 797.503 1125.37 791.547 1172.34 780.299C1177.72 779.01 1176.74 771.749 1171.21 771.749H880.658C875.123 771.749 874.146 779.01 879.529 780.299C926.495 791.547 975.519 797.503 1025.93 797.503Z" fill="url(#paint31_linear)"/>
<path fill-rule="evenodd" clip-rule="evenodd" d="M1665.53 797.503C1715.95 797.503 1764.97 791.547 1811.94 780.299C1817.32 779.01 1816.34 771.749 1810.81 771.749H1520.26C1514.72 771.749 1513.75 779.01 1519.13 780.299C1566.1 791.547 1615.12 797.503 1665.53 797.503Z" fill="url(#paint32_linear)"/>
<path fill-rule="evenodd" clip-rule="evenodd" d="M1665.53 797.503C1715.95 797.503 1764.97 791.547 1811.94 780.299C1817.32 779.01 1816.34 771.749 1810.81 771.749H1520.26C1514.72 771.749 1513.75 779.01 1519.13 780.299C1566.1 791.547 1615.12 797.503 1665.53 797.503Z" fill="url(#paint33_linear)"/>
<path d="M1045.93 342.536L1175.44 772.967" stroke="#D6DDDF" stroke-width="4.01858"/>
<path d="M1685.53 342.536L1815.04 772.967" stroke="#D6DDDF" stroke-width="4.01858"/>
<path d="M1497.75 807.37C1340.77 781.892 1215.7 901.329 1091.36 901.33L1096.32 996.194L1530.22 1012.16L1497.75 807.37Z" fill="white"/>
<path d="M157.875 325.125C163.542 325.125 168.792 326.583 173.625 329.5C178.458 332.333 182.292 336.167 185.125 341C188.042 345.833 189.5 351.083 189.5 356.75C189.5 362.083 188.042 367.125 185.125 371.875C182.292 376.542 178.458 380.292 173.625 383.125C168.792 385.958 163.542 387.375 157.875 387.375H156.875H134.875V417H121.5V325.125H154.375H157.875ZM156.875 373C160.042 373 162.917 372.25 165.5 370.75C168.167 369.167 170.25 367.083 171.75 364.5C173.333 361.833 174.125 358.917 174.125 355.75C174.125 352.583 173.333 349.708 171.75 347.125C170.25 344.458 168.167 342.375 165.5 340.875C162.917 339.292 160.042 338.5 156.875 338.5H134.875V373H156.875ZM224.657 354.5C219.074 354.5 213.866 355.958 209.032 358.875C204.199 361.708 200.324 365.583 197.407 370.5C194.491 375.333 193.032 380.542 193.032 386.125C193.032 391.792 194.491 397.083 197.407 402C200.324 406.833 204.199 410.708 209.032 413.625C213.866 416.458 219.074 417.875 224.657 417.875C230.324 417.875 235.491 416.458 240.157 413.625C244.907 410.708 248.657 406.833 251.407 402C254.157 397.083 255.532 391.792 255.532 386.125C255.532 380.458 254.157 375.208 251.407 370.375C248.657 365.542 244.907 361.708 240.157 358.875C235.491 355.958 230.324 354.5 224.657 354.5ZM206.407 386.125C206.407 383.042 207.157 380.208 208.657 377.625C210.241 374.958 212.366 372.875 215.032 371.375C217.699 369.792 220.574 369 223.657 369C227.157 369 230.282 369.792 233.032 371.375C235.782 372.875 237.949 374.917 239.532 377.5C241.116 380.083 241.907 382.958 241.907 386.125C241.907 389.292 241.116 392.208 239.532 394.875C237.949 397.458 235.782 399.542 233.032 401.125C230.282 402.625 227.157 403.375 223.657 403.375C220.574 403.375 217.699 402.625 215.032 401.125C212.366 399.542 210.241 397.458 208.657 394.875C207.157 392.208 206.407 389.292 206.407 386.125ZM277.877 398C277.877 401.583 278.419 403.958 279.502 405.125C280.585 406.292 282.835 406.875 286.252 406.875V416.25C283.335 416.667 280.919 416.875 279.002 416.875C273.919 416.875 270.252 415.417 268.002 412.5C265.835 409.583 264.752 404.75 264.752 398V325.125H277.877V398ZM304.063 327.75C301.729 327.75 299.729 328.583 298.063 330.25C296.396 331.833 295.563 333.792 295.563 336.125C295.563 338.375 296.396 340.333 298.063 342C299.729 343.583 301.729 344.375 304.063 344.375C306.313 344.375 308.271 343.583 309.938 342C311.604 340.333 312.438 338.375 312.438 336.125C312.438 333.792 311.604 331.833 309.938 330.25C308.271 328.583 306.313 327.75 304.063 327.75ZM311.063 354.5H296.938V417H311.063V354.5ZM350.165 417.875C344.415 417.875 339.123 416.458 334.29 413.625C329.457 410.792 325.623 406.958 322.79 402.125C319.957 397.208 318.54 391.875 318.54 386.125C318.54 380.458 319.998 375.208 322.915 370.375C325.832 365.542 329.707 361.708 334.54 358.875C339.373 355.958 344.582 354.5 350.165 354.5C356.332 354.5 361.998 356.167 367.165 359.5C372.332 362.75 376.29 367.125 379.04 372.625L366.79 378.375C365.373 375.125 363.29 372.5 360.54 370.5C357.79 368.417 354.665 367.375 351.165 367.375C347.582 367.375 344.29 368.25 341.29 370C338.373 371.667 336.082 373.958 334.415 376.875C332.748 379.708 331.915 382.875 331.915 386.375C331.915 389.875 332.748 393.083 334.415 396C336.082 398.833 338.373 401.083 341.29 402.75C344.29 404.417 347.582 405.25 351.165 405.25C354.832 405.25 358.04 404.292 360.79 402.375C363.54 400.458 365.582 397.917 366.915 394.75L378.915 400.375C376.248 405.708 372.373 409.958 367.29 413.125C362.29 416.292 356.582 417.875 350.165 417.875ZM434.182 354.5H451.057L421.432 426.25C418.932 432.917 415.182 437.833 410.182 441C405.265 444.167 398.432 445.75 389.682 445.75H387.807V432.875H389.682C394.098 432.875 397.973 432.042 401.307 430.375C404.723 428.708 407.14 426 408.557 422.25L410.307 416.5L380.807 354.5H397.682L418.307 398L434.182 354.5ZM157.875 449.125C163.542 449.125 168.792 450.583 173.625 453.5C178.458 456.333 182.292 460.167 185.125 465C188.042 469.833 189.5 475.083 189.5 480.75C189.5 486.083 188.042 491.125 185.125 495.875C182.292 500.542 178.458 504.292 173.625 507.125C168.792 509.958 163.542 511.375 157.875 511.375H156.875H134.875V541H121.5V449.125H154.375H157.875ZM156.875 497C160.042 497 162.917 496.25 165.5 494.75C168.167 493.167 170.25 491.083 171.75 488.5C173.333 485.833 174.125 482.917 174.125 479.75C174.125 476.583 173.333 473.708 171.75 471.125C170.25 468.458 168.167 466.375 165.5 464.875C162.917 463.292 160.042 462.5 156.875 462.5H134.875V497H156.875ZM211.133 451.75C208.799 451.75 206.799 452.583 205.133 454.25C203.466 455.833 202.633 457.792 202.633 460.125C202.633 462.375 203.466 464.333 205.133 466C206.799 467.583 208.799 468.375 211.133 468.375C213.383 468.375 215.341 467.583 217.008 466C218.674 464.333 219.508 462.375 219.508 460.125C219.508 457.792 218.674 455.833 217.008 454.25C215.341 452.583 213.383 451.75 211.133 451.75ZM218.133 478.5H204.008V541H218.133V478.5ZM267.552 491.125H252.927V522.375C252.927 524.208 253.385 525.667 254.302 526.75C255.302 527.833 257.135 528.375 259.802 528.375H264.552V540.125C261.385 540.708 259.135 541 257.802 541C250.552 541 245.677 539.5 243.177 536.5C240.677 533.417 239.385 529.083 239.302 523.5V491.125H227.677V478.5H239.302V466.875L252.927 461.125V478.5H267.552V491.125ZM307.729 541.875C301.979 541.875 296.687 540.458 291.854 537.625C287.02 534.792 283.187 530.958 280.354 526.125C277.52 521.208 276.104 515.875 276.104 510.125C276.104 504.458 277.562 499.208 280.479 494.375C283.395 489.542 287.27 485.708 292.104 482.875C296.937 479.958 302.145 478.5 307.729 478.5C313.895 478.5 319.562 480.167 324.729 483.5C329.895 486.75 333.854 491.125 336.604 496.625L324.354 502.375C322.937 499.125 320.854 496.5 318.104 494.5C315.354 492.417 312.229 491.375 308.729 491.375C305.145 491.375 301.854 492.25 298.854 494C295.937 495.667 293.645 497.958 291.979 500.875C290.312 503.708 289.479 506.875 289.479 510.375C289.479 513.875 290.312 517.083 291.979 520C293.645 522.833 295.937 525.083 298.854 526.75C301.854 528.417 305.145 529.25 308.729 529.25C312.395 529.25 315.604 528.292 318.354 526.375C321.104 524.458 323.145 521.917 324.479 518.75L336.479 524.375C333.812 529.708 329.937 533.958 324.854 537.125C319.854 540.292 314.145 541.875 307.729 541.875ZM374.745 478.5C380.078 478.5 384.537 479.583 388.12 481.75C391.787 483.833 394.537 486.667 396.37 490.25C398.203 493.75 399.12 497.667 399.12 502V541H385.37V505C385.37 501.75 384.245 498.75 381.995 496C379.828 493.25 376.12 491.875 370.87 491.875C365.87 491.875 362.162 493.417 359.745 496.5C357.328 499.5 356.12 503 356.12 507V541H342.495V449.125H356.12V483.625C360.37 480.208 366.578 478.5 374.745 478.5ZM459.837 479.25H473.712V541H459.837V535.75C454.17 540.25 447.67 542.5 440.337 542.5C434.42 542.5 429.004 541.125 424.087 538.375C419.254 535.542 415.42 531.75 412.587 527C409.837 522.25 408.462 517 408.462 511.25C408.462 505.333 409.837 499.875 412.587 494.875C415.42 489.875 419.254 485.917 424.087 483C429.004 480 434.42 478.5 440.337 478.5C447.504 478.5 454.004 480.875 459.837 485.625V479.25ZM441.087 529.25C444.587 529.25 447.754 528.375 450.587 526.625C453.504 524.875 455.754 522.625 457.337 519.875C459.004 517.042 459.837 514.167 459.837 511.25C459.837 507.833 459.004 504.708 457.337 501.875C455.754 498.958 453.545 496.667 450.712 495C447.879 493.333 444.67 492.5 441.087 492.5C437.754 492.5 434.712 493.333 431.962 495C429.212 496.583 427.045 498.792 425.462 501.625C423.879 504.458 423.087 507.667 423.087 511.25C423.087 514.333 423.879 517.292 425.462 520.125C427.045 522.875 429.212 525.083 431.962 526.75C434.795 528.417 437.837 529.25 441.087 529.25ZM523.602 491.125H508.977V522.375C508.977 524.208 509.435 525.667 510.352 526.75C511.352 527.833 513.185 528.375 515.852 528.375H520.602V540.125C517.435 540.708 515.185 541 513.852 541C506.602 541 501.727 539.5 499.227 536.5C496.727 533.417 495.435 529.083 495.352 523.5V491.125H483.727V478.5H495.352V466.875L508.977 461.125V478.5H523.602V491.125ZM565.653 478.5C570.987 478.5 575.445 479.583 579.028 481.75C582.695 483.833 585.445 486.667 587.278 490.25C589.112 493.75 590.028 497.667 590.028 502V541H576.278V505C576.278 501.75 575.153 498.75 572.903 496C570.737 493.25 567.028 491.875 561.778 491.875C556.778 491.875 553.07 493.417 550.653 496.5C548.237 499.5 547.028 503 547.028 507V541H533.403V449.125H547.028V483.625C551.278 480.208 557.487 478.5 565.653 478.5ZM629.745 478.5C624.162 478.5 618.953 479.958 614.12 482.875C609.287 485.708 605.412 489.583 602.495 494.5C599.578 499.333 598.12 504.542 598.12 510.125C598.12 515.792 599.578 521.083 602.495 526C605.412 530.833 609.287 534.708 614.12 537.625C618.953 540.458 624.162 541.875 629.745 541.875C635.412 541.875 640.578 540.458 645.245 537.625C649.995 534.708 653.745 530.833 656.495 526C659.245 521.083 660.62 515.792 660.62 510.125C660.62 504.458 659.245 499.208 656.495 494.375C653.745 489.542 649.995 485.708 645.245 482.875C640.578 479.958 635.412 478.5 629.745 478.5ZM611.495 510.125C611.495 507.042 612.245 504.208 613.745 501.625C615.328 498.958 617.453 496.875 620.12 495.375C622.787 493.792 625.662 493 628.745 493C632.245 493 635.37 493.792 638.12 495.375C640.87 496.875 643.037 498.917 644.62 501.5C646.203 504.083 646.995 506.958 646.995 510.125C646.995 513.292 646.203 516.208 644.62 518.875C643.037 521.458 640.87 523.542 638.12 525.125C635.37 526.625 632.245 527.375 628.745 527.375C625.662 527.375 622.787 526.625 620.12 525.125C617.453 523.542 615.328 521.458 613.745 518.875C612.245 516.208 611.495 513.292 611.495 510.125ZM723.965 541H710.215V506.875C710.215 503.125 709.09 499.75 706.84 496.75C704.59 493.75 700.84 492.25 695.59 492.25C690.673 492.25 687.007 493.833 684.59 497C682.173 500.167 680.965 503.792 680.965 507.875V541H667.34V480.5H680.965V484.75C685.382 480.583 691.59 478.5 699.59 478.5C704.757 478.5 709.132 479.667 712.715 482C716.382 484.25 719.132 487.25 720.965 491C722.798 494.75 723.798 498.75 723.965 503V541Z" fill="#3F4556"/>
<path d="M128.592 610.72C130.768 610.72 132.656 611.168 134.256 612.064C135.056 612.512 135.792 613.056 136.464 613.696C137.168 614.304 137.872 615.168 138.576 616.288L139.2 617.536L134.592 619.6C133.696 618.16 132.912 617.264 132.24 616.912C131.536 616.464 130.944 616.144 130.464 615.952C129.984 615.76 129.344 615.648 128.544 615.616H128.208C126.64 615.616 125.296 615.968 124.176 616.672C123.632 616.992 123.168 617.456 122.784 618.064C122.432 618.672 122.256 619.36 122.256 620.128C122.256 620.512 122.304 620.896 122.4 621.28C122.624 622.08 123.104 622.736 123.84 623.248C124.608 623.728 125.312 624.096 125.952 624.352C126.624 624.608 127.056 624.784 127.248 624.88L128.544 625.36C130.496 626 131.936 626.544 132.864 626.992C134.784 627.856 136.192 628.72 137.088 629.584C138.016 630.512 138.736 631.456 139.248 632.416C139.792 633.376 140.064 634.576 140.064 636.016C140.064 637.04 139.904 638.032 139.584 638.992C139.296 639.92 138.896 640.72 138.384 641.392C136.944 643.344 135.12 644.64 132.912 645.28C131.312 645.76 129.728 646 128.16 646C127.68 646 127.328 645.984 127.104 645.952C126.272 645.952 125.344 645.856 124.32 645.664C123.296 645.44 122.288 645.088 121.296 644.608C120.272 644.096 119.344 643.424 118.512 642.592C117.712 641.728 116.848 640.592 115.92 639.184L120.48 636.688C120.896 637.328 121.392 637.952 121.968 638.56C122.544 639.168 123.136 639.632 123.744 639.952C124.896 640.592 126.336 640.912 128.064 640.912C128.16 640.912 128.736 640.864 129.792 640.768C130.688 640.64 131.504 640.384 132.24 640C132.976 639.584 133.584 639.056 134.064 638.416C134.576 637.712 134.832 637.008 134.832 636.304C134.832 635.632 134.56 634.896 134.016 634.096C133.12 632.784 131.536 631.728 129.264 630.928C126.576 630.032 124.848 629.44 124.08 629.152C123.088 628.736 122.064 628.176 121.008 627.472C119.952 626.768 119.152 626 118.608 625.168C117.936 624.208 117.488 623.376 117.264 622.672C117.04 621.968 116.928 621.056 116.928 619.936C116.928 618.912 117.168 617.904 117.648 616.912C118.16 615.888 118.768 614.992 119.472 614.224C120.272 613.392 121.328 612.656 122.64 612.016C123.984 611.344 125.488 610.928 127.152 610.768L128.592 610.72ZM163.994 622.288H169.322V646H163.994V643.984C161.818 645.712 159.322 646.576 156.506 646.576C154.234 646.576 152.154 646.048 150.266 644.992C148.41 643.904 146.938 642.448 145.85 640.624C144.794 638.8 144.266 636.784 144.266 634.576C144.266 632.304 144.794 630.208 145.85 628.288C146.938 626.368 148.41 624.848 150.266 623.728C152.154 622.576 154.234 622 156.506 622C159.258 622 161.754 622.912 163.994 624.736V622.288ZM156.794 641.488C158.138 641.488 159.354 641.152 160.442 640.48C161.562 639.808 162.426 638.944 163.034 637.888C163.674 636.8 163.994 635.696 163.994 634.576C163.994 633.264 163.674 632.064 163.034 630.976C162.426 629.856 161.578 628.976 160.49 628.336C159.402 627.696 158.17 627.376 156.794 627.376C155.514 627.376 154.346 627.696 153.29 628.336C152.234 628.944 151.402 629.792 150.794 630.88C150.186 631.968 149.882 633.2 149.882 634.576C149.882 635.76 150.186 636.896 150.794 637.984C151.402 639.04 152.234 639.888 153.29 640.528C154.378 641.168 155.546 641.488 156.794 641.488ZM188.48 626.848H182.864V638.848C182.864 639.552 183.04 640.112 183.392 640.528C183.776 640.944 184.48 641.152 185.504 641.152H187.328V645.664C186.112 645.888 185.248 646 184.736 646C181.952 646 180.08 645.424 179.12 644.272C178.16 643.088 177.664 641.424 177.632 639.28V626.848H173.168V622H177.632V617.536L182.864 615.328V622H188.48V626.848ZM209.811 622H215.235V646H209.811V644.272C208.147 645.712 205.859 646.432 202.947 646.432C200.835 646.432 199.027 645.984 197.523 645.088C196.051 644.192 194.931 643.008 194.163 641.536C193.427 640.064 193.059 638.464 193.059 636.736V622H198.483V635.488C198.483 636.32 198.659 637.168 199.011 638.032C199.395 638.864 200.003 639.568 200.835 640.144C201.699 640.72 202.787 641.008 204.099 641.008C206.083 641.008 207.523 640.4 208.419 639.184C209.347 637.968 209.811 636.56 209.811 634.96V622ZM233.943 622.048V627.136H231.783C229.639 627.136 228.183 627.808 227.415 629.152C226.647 630.496 226.263 632.048 226.263 633.808V646H220.695V622.624H226.263V624.688C227.799 622.864 229.991 621.952 232.839 621.952L233.943 622.048ZM256.309 610.72H261.685V646H256.309V643.696C254.101 645.488 251.557 646.384 248.677 646.384C246.469 646.384 244.421 645.84 242.533 644.752C240.677 643.664 239.205 642.192 238.117 640.336C237.029 638.448 236.485 636.4 236.485 634.192C236.485 631.984 237.029 629.952 238.117 628.096C239.205 626.208 240.677 624.72 242.533 623.632C244.421 622.544 246.469 622 248.677 622C251.557 622 254.101 622.896 256.309 624.688V610.72ZM249.445 641.296C250.757 641.296 251.925 640.96 252.949 640.288C254.005 639.616 254.821 638.736 255.397 637.648C256.005 636.56 256.309 635.408 256.309 634.192C256.309 632.944 256.005 631.776 255.397 630.688C254.821 629.568 254.005 628.672 252.949 628C251.925 627.328 250.757 626.992 249.445 626.992C248.069 626.992 246.805 627.312 245.653 627.952C244.533 628.592 243.637 629.472 242.965 630.592C242.325 631.68 242.005 632.88 242.005 634.192C242.005 635.504 242.325 636.704 242.965 637.792C243.637 638.848 244.533 639.696 245.653 640.336C246.805 640.976 248.069 641.296 249.445 641.296ZM285.55 622.288H290.878V646H285.55V643.984C283.374 645.712 280.878 646.576 278.062 646.576C275.79 646.576 273.71 646.048 271.822 644.992C269.966 643.904 268.494 642.448 267.406 640.624C266.35 638.8 265.822 636.784 265.822 634.576C265.822 632.304 266.35 630.208 267.406 628.288C268.494 626.368 269.966 624.848 271.822 623.728C273.71 622.576 275.79 622 278.062 622C280.814 622 283.31 622.912 285.55 624.736V622.288ZM278.35 641.488C279.694 641.488 280.91 641.152 281.998 640.48C283.118 639.808 283.982 638.944 284.59 637.888C285.23 636.8 285.55 635.696 285.55 634.576C285.55 633.264 285.23 632.064 284.59 630.976C283.982 629.856 283.134 628.976 282.046 628.336C280.958 627.696 279.726 627.376 278.35 627.376C277.07 627.376 275.902 627.696 274.846 628.336C273.79 628.944 272.958 629.792 272.35 630.88C271.742 631.968 271.438 633.2 271.438 634.576C271.438 635.76 271.742 636.896 272.35 637.984C272.958 639.04 273.79 639.888 274.846 640.528C275.934 641.168 277.102 641.488 278.35 641.488ZM314.26 622H320.74L309.364 649.552C308.404 652.112 306.964 654 305.044 655.216C303.156 656.432 300.532 657.04 297.172 657.04H296.452V652.096H297.172C298.868 652.096 300.356 651.776 301.636 651.136C302.948 650.496 303.876 649.456 304.42 648.016L305.092 645.808L293.764 622H300.244L308.164 638.704L314.26 622ZM324.236 642.352H329.756L325.868 651.76H322.796L324.236 642.352ZM385.87 646H379.966L377.902 640.528H361.054L358.99 646H352.798L366.046 610.72H372.622L385.87 646ZM369.55 618.112L363.118 635.056H375.886L369.55 618.112ZM401.159 622C403.335 622 405.351 622.544 407.207 623.632C409.095 624.72 410.583 626.208 411.671 628.096C412.791 629.952 413.351 631.984 413.351 634.192C413.351 636.368 412.791 638.384 411.671 640.24C410.583 642.096 409.095 643.584 407.207 644.704C405.319 645.792 403.287 646.336 401.111 646.336C398.167 646.336 395.607 645.424 393.431 643.6V657.04H388.151V622.336H393.431V624.736C394.487 623.872 395.671 623.2 396.983 622.72C398.295 622.24 399.687 622 401.159 622ZM400.487 641.2C401.831 641.2 403.047 640.896 404.135 640.288C405.223 639.648 406.087 638.8 406.727 637.744C407.367 636.656 407.687 635.472 407.687 634.192C407.687 632.912 407.367 631.728 406.727 630.64C406.087 629.52 405.223 628.64 404.135 628C403.047 627.36 401.831 627.04 400.487 627.04C399.175 627.04 397.975 627.376 396.887 628.048C395.831 628.72 394.983 629.616 394.343 630.736C393.735 631.824 393.431 632.976 393.431 634.192C393.431 635.408 393.735 636.56 394.343 637.648C394.983 638.736 395.831 639.6 396.887 640.24C397.975 640.88 399.175 641.2 400.487 641.2ZM430.074 622.048V627.136H427.914C425.77 627.136 424.314 627.808 423.546 629.152C422.778 630.496 422.394 632.048 422.394 633.808V646H416.826V622.624H422.394V624.688C423.93 622.864 426.122 621.952 428.97 621.952L430.074 622.048ZM437.128 611.728C436.232 611.728 435.464 612.048 434.824 612.688C434.184 613.296 433.864 614.048 433.864 614.944C433.864 615.808 434.184 616.56 434.824 617.2C435.464 617.808 436.232 618.112 437.128 618.112C437.992 618.112 438.744 617.808 439.384 617.2C440.024 616.56 440.344 615.808 440.344 614.944C440.344 614.048 440.024 613.296 439.384 612.688C438.744 612.048 437.992 611.728 437.128 611.728ZM439.816 622H434.392V646H439.816V622ZM449.961 638.704C449.961 640.08 450.169 640.992 450.585 641.44C451.001 641.888 451.865 642.112 453.177 642.112V645.712C452.057 645.872 451.129 645.952 450.393 645.952C448.441 645.952 447.033 645.392 446.169 644.272C445.337 643.152 444.921 641.296 444.921 638.704V610.72H449.961V638.704ZM483.459 610.72V646H478.083V616.096H474.771V610.72H483.459ZM516.197 610.72L515.525 612.064L498.869 646H492.869L507.509 616.096H489.941V610.72H516.197ZM125.088 668.72V704H119.712V674.096H116.4V668.72H125.088ZM153.123 672.416C154.211 673.696 155.011 675.04 155.523 676.448C156.035 677.856 156.339 679.28 156.435 680.72C156.563 682.128 156.627 684 156.627 686.336C156.627 688.704 156.563 690.608 156.435 692.048C156.339 693.456 156.035 694.864 155.523 696.272C155.011 697.648 154.211 698.976 153.123 700.256C150.947 702.752 147.939 704 144.099 704C140.195 704 137.187 702.752 135.075 700.256C133.987 698.976 133.187 697.648 132.675 696.272C132.163 694.864 131.843 693.456 131.715 692.048C131.619 690.608 131.571 688.704 131.571 686.336C131.571 684 131.619 682.128 131.715 680.72C131.843 679.28 132.163 677.856 132.675 676.448C133.187 675.04 133.987 673.696 135.075 672.416C137.219 669.952 140.227 668.72 144.099 668.72C147.939 668.72 150.947 669.952 153.123 672.416ZM151.251 682.784C151.251 679.808 150.675 677.632 149.523 676.256C148.851 675.456 148.083 674.832 147.219 674.384C146.387 673.904 145.347 673.664 144.099 673.664C142.819 673.664 141.747 673.904 140.883 674.384C140.051 674.832 139.299 675.456 138.627 676.256C137.507 677.664 136.947 679.84 136.947 682.784V689.936C136.947 692.88 137.507 695.056 138.627 696.464C139.299 697.264 140.051 697.904 140.883 698.384C141.747 698.832 142.819 699.056 144.099 699.056C145.347 699.056 146.387 698.832 147.219 698.384C148.083 697.904 148.851 697.264 149.523 696.464C150.675 695.088 151.251 692.912 151.251 689.936V682.784ZM193.771 704H187.867L185.803 698.528H168.955L166.891 704H160.699L173.947 668.72H180.523L193.771 704ZM177.451 676.112L171.019 693.056H183.787L177.451 676.112ZM233.877 668.72V704H228.645V677.504L217.365 701.744H214.341L213.621 699.824L212.853 698L203.445 677.648V704H197.829V668.72H205.701L215.877 691.232L226.389 668.72H233.877ZM277.126 689.744V694.256H258.358V689.744H277.126ZM312.726 682.544C315.03 682.544 316.998 683.024 318.63 683.984C320.262 684.944 321.494 686.272 322.326 687.968C323.158 689.632 323.574 691.504 323.574 693.584C323.574 695.44 323.046 697.168 321.99 698.768C320.966 700.368 319.542 701.648 317.718 702.608C315.926 703.536 313.942 704 311.766 704C309.334 704 307.19 703.536 305.334 702.608C303.51 701.648 302.102 700.336 301.11 698.672L305.766 696.176C306.438 697.04 307.27 697.728 308.262 698.24C309.254 698.752 310.358 699.008 311.574 699.008C313.43 699.008 314.998 698.464 316.278 697.376C317.59 696.288 318.246 694.88 318.246 693.152C318.246 691.456 317.654 690.032 316.47 688.88C315.286 687.728 313.59 687.152 311.382 687.152C309.814 687.152 308.342 687.648 306.966 688.64L306.63 688.544L302.454 687.44L302.502 687.104L303.606 668.72H322.278V674H308.166L307.59 683.648C309.286 682.912 310.998 682.544 312.726 682.544ZM342.588 668.72C344.764 668.72 346.78 669.28 348.636 670.4C350.492 671.488 351.964 672.96 353.052 674.816C354.172 676.672 354.732 678.688 354.732 680.864C354.732 682.912 354.172 684.848 353.052 686.672C351.964 688.464 350.492 689.904 348.636 690.992C346.78 692.08 344.764 692.624 342.588 692.624H342.204H333.756V704H328.62V668.72H341.244H342.588ZM342.204 687.104C343.42 687.104 344.524 686.816 345.516 686.24C346.54 685.632 347.34 684.832 347.916 683.84C348.524 682.816 348.828 681.696 348.828 680.48C348.828 679.264 348.524 678.16 347.916 677.168C347.34 676.144 346.54 675.344 345.516 674.768C344.524 674.16 343.42 673.856 342.204 673.856H333.756V687.104H342.204ZM395.823 668.72V704H390.591V677.504L379.311 701.744H376.287L375.567 699.824L374.799 698L365.391 677.648V704H359.775V668.72H367.647L377.823 691.232L388.335 668.72H395.823ZM434.272 668.72C436.448 668.72 438.464 669.28 440.32 670.4C442.176 671.488 443.648 672.96 444.736 674.816C445.856 676.672 446.416 678.688 446.416 680.864C446.416 682.912 445.856 684.848 444.736 686.672C443.648 688.464 442.176 689.904 440.32 690.992C438.464 692.08 436.448 692.624 434.272 692.624H433.888H425.44V704H420.304V668.72H432.928H434.272ZM433.888 687.104C435.104 687.104 436.208 686.816 437.2 686.24C438.224 685.632 439.024 684.832 439.6 683.84C440.208 682.816 440.512 681.696 440.512 680.48C440.512 679.264 440.208 678.16 439.6 677.168C439.024 676.144 438.224 675.344 437.2 674.768C436.208 674.16 435.104 673.856 433.888 673.856H425.44V687.104H433.888ZM463.939 668.72C466.947 668.72 469.715 669.504 472.243 671.072C474.771 672.608 476.771 674.736 478.243 677.456C479.715 680.144 480.451 683.104 480.451 686.336C480.451 689.632 479.731 692.624 478.291 695.312C476.883 698 474.915 700.128 472.387 701.696C469.891 703.232 467.075 704 463.939 704H451.459V668.72H463.939ZM465.091 698.864C467.043 698.736 468.755 698.144 470.227 697.088C471.699 696 472.851 694.512 473.683 692.624C474.515 690.736 474.931 688.528 474.931 686C474.931 682.416 474.019 679.552 472.195 677.408C470.403 675.232 468.035 674.048 465.091 673.856H464.275H456.595V698.864H463.939H465.091ZM509.16 668.72V673.856H498.504V704H493.368V673.856H483.096V668.72H509.16Z" fill="#7C9098"/>
</g>
<defs>
<filter id="filter0_f" x="627.962" y="338.377" width="1366.16" height="706.973" filterUnits="userSpaceOnUse" color-interpolation-filters="sRGB">
<feFlood flood-opacity="0" result="BackgroundImageFix"/>
<feBlend mode="normal" in="SourceGraphic" in2="BackgroundImageFix" result="shape"/>
<feGaussianBlur stdDeviation="8.43901" result="effect1_foregroundBlur"/>
</filter>
<filter id="filter1_f" x="646.334" y="252.546" width="1366.16" height="706.973" filterUnits="userSpaceOnUse" color-interpolation-filters="sRGB">
<feFlood flood-opacity="0" result="BackgroundImageFix"/>
<feBlend mode="normal" in="SourceGraphic" in2="BackgroundImageFix" result="shape"/>
<feGaussianBlur stdDeviation="8.43901" result="effect1_foregroundBlur"/>
</filter>
<filter id="filter2_f" x="901.643" y="538.477" width="257.576" height="257.576" filterUnits="userSpaceOnUse" color-interpolation-filters="sRGB">
<feFlood flood-opacity="0" result="BackgroundImageFix"/>
<feBlend mode="normal" in="SourceGraphic" in2="BackgroundImageFix" result="shape"/>
<feGaussianBlur stdDeviation="4.7974" result="effect1_foregroundBlur"/>
</filter>
<linearGradient id="paint0_linear" x1="1435.76" y1="239.963" x2="1000.46" y2="883.022" gradientUnits="userSpaceOnUse">
<stop stop-color="#2A3237"/>
<stop offset="1" stop-color="#50606C"/>
</linearGradient>
<linearGradient id="paint1_linear" x1="1435.76" y1="239.963" x2="1000.46" y2="883.022" gradientUnits="userSpaceOnUse">
<stop stop-color="#2A3237"/>
<stop offset="1" stop-color="#50606C"/>
</linearGradient>
<linearGradient id="paint2_linear" x1="734.046" y1="657.577" x2="1782.52" y2="982.964" gradientUnits="userSpaceOnUse">
<stop stop-color="#5D7586" stop-opacity="0.44"/>
<stop offset="1" stop-color="#6EAAAE" stop-opacity="0"/>
</linearGradient>
<linearGradient id="paint3_linear" x1="1435.76" y1="239.963" x2="1000.46" y2="883.022" gradientUnits="userSpaceOnUse">
<stop stop-color="#2A3237"/>
<stop offset="1" stop-color="#50606C"/>
</linearGradient>
<linearGradient id="paint4_linear" x1="1906.41" y1="571.746" x2="857.943" y2="897.134" gradientUnits="userSpaceOnUse">
<stop stop-color="#798288" stop-opacity="0.44"/>
<stop offset="1" stop-color="#9FBEC0" stop-opacity="0"/>
</linearGradient>
<linearGradient id="paint5_linear" x1="1305.12" y1="607.368" x2="1354.72" y2="607.368" gradientUnits="userSpaceOnUse">
<stop stop-color="#49596C"/>
<stop offset="0.302083" stop-color="#C1C7CE"/>
<stop offset="1" stop-color="#DEE1E2"/>
</linearGradient>
<linearGradient id="paint6_linear" x1="1302.61" y1="751.085" x2="1366.49" y2="765.645" gradientUnits="userSpaceOnUse">
<stop stop-color="#A1AAB3"/>
<stop offset="1" stop-color="#C4CACF"/>
</linearGradient>
<linearGradient id="paint7_linear" x1="1302.3" y1="815.518" x2="1302.3" y2="1004.02" gradientUnits="userSpaceOnUse">
<stop stop-color="#E6EAEF"/>
<stop offset="0.046978" stop-color="#9CAABB"/>
<stop offset="0.958333" stop-color="#8C949D"/>
<stop offset="1" stop-color="#B4BCC5"/>
</linearGradient>
<linearGradient id="paint8_linear" x1="1302.61" y1="766.78" x2="1366.49" y2="781.34" gradientUnits="userSpaceOnUse">
<stop stop-color="#A1AAB3"/>
<stop offset="1" stop-color="#C4CACF"/>
</linearGradient>
<linearGradient id="paint9_linear" x1="1313.42" y1="282.763" x2="1313.42" y2="430.859" gradientUnits="userSpaceOnUse">
<stop stop-color="#F1F1F1"/>
<stop offset="0.0364583" stop-color="#AAB4BE"/>
<stop offset="0.286458" stop-color="#A2ACB6"/>
<stop offset="0.390625" stop-color="#8797A6"/>
<stop offset="0.953125" stop-color="#72818F"/>
<stop offset="1" stop-color="#6D7C8C"/>
</linearGradient>
<linearGradient id="paint10_linear" x1="1361.75" y1="339.946" x2="1306.26" y2="411.556" gradientUnits="userSpaceOnUse">
<stop stop-color="#636E74" stop-opacity="0.74"/>
<stop offset="1" stop-color="#576B77" stop-opacity="0.79"/>
</linearGradient>
<linearGradient id="paint11_linear" x1="1309.1" y1="366.511" x2="1019.08" y2="366.511" gradientUnits="userSpaceOnUse">
<stop stop-color="#BEC6C9"/>
<stop offset="0.53125" stop-color="#C4CDD0"/>
<stop offset="1" stop-color="#CFD5D7"/>
</linearGradient>
<linearGradient id="paint12_linear" x1="1005.73" y1="314.006" x2="1005.73" y2="366.511" gradientUnits="userSpaceOnUse">
<stop stop-color="#EBEDEE"/>
<stop offset="0.510417" stop-color="#D9DEDF"/>
<stop offset="1" stop-color="#698289"/>
</linearGradient>
<linearGradient id="paint13_linear" x1="1685.74" y1="314.006" x2="1685.74" y2="366.511" gradientUnits="userSpaceOnUse">
<stop stop-color="#EBEDEE"/>
<stop offset="0.510417" stop-color="#ACBFC5"/>
<stop offset="1" stop-color="#BAC5C9"/>
</linearGradient>
<linearGradient id="paint14_linear" x1="1382.32" y1="366.511" x2="1672.34" y2="366.511" gradientUnits="userSpaceOnUse">
<stop stop-color="#BEC6C9"/>
<stop offset="0.53125" stop-color="#C4CDD0"/>
<stop offset="1" stop-color="#CFD5D7"/>
</linearGradient>
<radialGradient id="paint15_radial" cx="0" cy="0" r="1" gradientUnits="userSpaceOnUse" gradientTransform="translate(1078.55 625.786) rotate(107.084) scale(163.809)">
<stop stop-color="#E0E3E7"/>
<stop offset="0.723958" stop-color="white"/>
<stop offset="0.878304" stop-color="#F2F2F2"/>
<stop offset="0.936622" stop-color="#CFD0D9"/>
</radialGradient>
<radialGradient id="paint16_radial" cx="0" cy="0" r="1" gradientUnits="userSpaceOnUse" gradientTransform="translate(1084.18 616.41) rotate(109.378) scale(175.923 168.859)">
<stop stop-color="#4CE98A"/>
<stop offset="0.583333" stop-color="#38FFE7"/>
<stop offset="0.895833" stop-color="#F097FF"/>
<stop offset="1" stop-color="#FF4FB8"/>
</radialGradient>
<radialGradient id="paint17_radial" cx="0" cy="0" r="1" gradientUnits="userSpaceOnUse" gradientTransform="translate(1030.43 667.265) rotate(90) scale(132.601)">
<stop offset="0.786458" stop-color="white" stop-opacity="0"/>
<stop offset="0.901042" stop-color="white" stop-opacity="0.35"/>
<stop offset="1" stop-color="white" stop-opacity="0"/>
</radialGradient>
<radialGradient id="paint18_radial" cx="0" cy="0" r="1" gradientUnits="userSpaceOnUse" gradientTransform="translate(1089.82 617.313) rotate(90) scale(37.8674 27.6174)">
<stop stop-color="white" stop-opacity="0.28"/>
<stop offset="0.489583" stop-color="white" stop-opacity="0.06"/>
<stop offset="1" stop-color="white" stop-opacity="0"/>
</radialGradient>
<radialGradient id="paint19_radial" cx="0" cy="0" r="1" gradientUnits="userSpaceOnUse" gradientTransform="translate(1089.82 598.196) rotate(90) scale(3.53289)">
<stop stop-color="white" stop-opacity="0.57"/>
<stop offset="1" stop-color="white" stop-opacity="0"/>
</radialGradient>
<linearGradient id="paint20_linear" x1="1682.74" y1="523.353" x2="1682.74" y2="561.26" gradientUnits="userSpaceOnUse">
<stop stop-color="#F0F5F5"/>
<stop offset="0.411458" stop-color="#DDE2E3"/>
<stop offset="1" stop-color="#AEB2B7"/>
</linearGradient>
<linearGradient id="paint21_linear" x1="1682.74" y1="741.493" x2="1682.74" y2="779.401" gradientUnits="userSpaceOnUse">
<stop stop-color="#F0F5F5"/>
<stop offset="0.411458" stop-color="#DDE2E3"/>
<stop offset="1" stop-color="#AEB2B7"/>
</linearGradient>
<linearGradient id="paint22_linear" x1="1685.99" y1="590.84" x2="1602" y2="590.84" gradientUnits="userSpaceOnUse">
<stop stop-color="#61FFAA"/>
<stop offset="0.479167" stop-color="#81F0FF"/>
<stop offset="0.802083" stop-color="#FC81FF"/>
<stop offset="1" stop-color="#FF81B6"/>
</linearGradient>
<linearGradient id="paint23_linear" x1="102.714" y1="10.6993" x2="-9.08762e-07" y2="10.6992" gradientUnits="userSpaceOnUse">
<stop stop-color="#61FFAA"/>
<stop offset="0.479167" stop-color="#81F0FF"/>
<stop offset="0.802083" stop-color="#FC81FF"/>
<stop offset="1" stop-color="#FF81B6"/>
</linearGradient>
<linearGradient id="paint24_linear" x1="1719.62" y1="632.298" x2="1602" y2="632.298" gradientUnits="userSpaceOnUse">
<stop stop-color="#61FFAA"/>
<stop offset="0.479167" stop-color="#81F0FF"/>
<stop offset="0.802083" stop-color="#FC81FF"/>
<stop offset="1" stop-color="#FF81B6"/>
</linearGradient>
<linearGradient id="paint25_linear" x1="102.714" y1="10.6993" x2="-9.08762e-07" y2="10.6992" gradientUnits="userSpaceOnUse">
<stop stop-color="#61FFAA"/>
<stop offset="0.479167" stop-color="#81F0FF"/>
<stop offset="0.802083" stop-color="#FC81FF"/>
<stop offset="1" stop-color="#FF81B6"/>
</linearGradient>
<linearGradient id="paint26_linear" x1="1685.99" y1="673.756" x2="1602" y2="673.756" gradientUnits="userSpaceOnUse">
<stop stop-color="#61FFAA"/>
<stop offset="0.479167" stop-color="#81F0FF"/>
<stop offset="0.802083" stop-color="#FC81FF"/>
<stop offset="1" stop-color="#FF81B6"/>
</linearGradient>
<linearGradient id="paint27_linear" x1="102.714" y1="10.6993" x2="-9.08762e-07" y2="10.6992" gradientUnits="userSpaceOnUse">
<stop stop-color="#61FFAA"/>
<stop offset="0.479167" stop-color="#81F0FF"/>
<stop offset="0.802083" stop-color="#FC81FF"/>
<stop offset="1" stop-color="#FF81B6"/>
</linearGradient>
<linearGradient id="paint28_linear" x1="1719.62" y1="715.214" x2="1602" y2="715.214" gradientUnits="userSpaceOnUse">
<stop stop-color="#61FFAA"/>
<stop offset="0.479167" stop-color="#81F0FF"/>
<stop offset="0.802083" stop-color="#FC81FF"/>
<stop offset="1" stop-color="#FF81B6"/>
</linearGradient>
<linearGradient id="paint29_linear" x1="1676.48" y1="735.943" x2="1602" y2="735.943" gradientUnits="userSpaceOnUse">
<stop stop-color="#61FFAA"/>
<stop offset="0.479167" stop-color="#81F0FF"/>
<stop offset="0.802083" stop-color="#FC81FF"/>
<stop offset="1" stop-color="#FF81B6"/>
</linearGradient>
<linearGradient id="paint30_linear" x1="865.622" y1="797.503" x2="1240.35" y2="797.503" gradientUnits="userSpaceOnUse">
<stop stop-color="#89949D"/>
<stop offset="0.432292" stop-color="#E3E8ED"/>
<stop offset="1" stop-color="#F2F3F4"/>
</linearGradient>
<linearGradient id="paint31_linear" x1="1010.06" y1="797.503" x2="1010.06" y2="771.749" gradientUnits="userSpaceOnUse">
<stop stop-color="#727F86"/>
<stop offset="0.6875" stop-color="#95A5AE" stop-opacity="0"/>
</linearGradient>
<linearGradient id="paint32_linear" x1="1505.22" y1="797.503" x2="1879.95" y2="797.503" gradientUnits="userSpaceOnUse">
<stop stop-color="#89949D"/>
<stop offset="0.432292" stop-color="#E3E8ED"/>
<stop offset="1" stop-color="#F2F3F4"/>
</linearGradient>
<linearGradient id="paint33_linear" x1="1649.66" y1="797.503" x2="1649.66" y2="771.749" gradientUnits="userSpaceOnUse">
<stop stop-color="#727F86"/>
<stop offset="0.6875" stop-color="#95A5AE" stop-opacity="0"/>
</linearGradient>
<clipPath id="clip0">
<rect width="1920" height="1005" fill="white"/>
</clipPath>
</defs>
</svg>
