<svg width="1162" height="635" viewBox="0 0 1162 635" fill="none" xmlns="http://www.w3.org/2000/svg">
<g clip-path="url(#clip0)">
<rect width="1161.14" height="635" fill="white"/>
<path d="M493.128 496.59C416.424 387.518 523.396 347.608 558.709 193.088C594.022 38.5686 845.694 24.2894 920.66 152.803C1016.32 316.794 1166.44 301.006 1104.71 447.785C1036.08 610.975 958.94 464.504 806.426 539.236C653.913 613.967 549.085 576.158 493.128 496.59Z" fill="url(#paint0_linear)"/>
<mask id="mask0" mask-type="alpha" maskUnits="userSpaceOnUse" x="466" y="65" width="654" height="515">
<path d="M493.128 496.59C416.424 387.518 523.396 347.608 558.709 193.088C594.022 38.5686 845.694 24.2894 920.66 152.803C1016.32 316.794 1166.44 301.006 1104.71 447.785C1036.08 610.975 958.94 464.504 806.426 539.236C653.913 613.967 549.085 576.158 493.128 496.59Z" fill="url(#paint1_linear)"/>
</mask>
<g mask="url(#mask0)">
<g filter="url(#filter0_f)">
<path d="M365.935 662.874V323.295C389.312 326.986 462.364 402.608 708.927 402.608C955.491 402.608 1179.2 258.086 1242.57 219.945V662.874H365.935Z" fill="url(#paint2_linear)"/>
</g>
</g>
<mask id="mask1" mask-type="alpha" maskUnits="userSpaceOnUse" x="466" y="65" width="654" height="515">
<path d="M493.128 496.59C416.424 387.518 523.396 347.608 558.709 193.088C594.022 38.5686 845.694 24.2894 920.66 152.803C1016.32 316.794 1166.44 301.006 1104.71 447.785C1036.08 610.975 958.94 464.504 806.426 539.236C653.913 613.967 549.085 576.158 493.128 496.59Z" fill="url(#paint3_linear)"/>
</mask>
<g mask="url(#mask1)">
<g filter="url(#filter1_f)">
<path d="M1254.65 606.404V266.825C1231.28 270.516 1158.22 346.138 911.66 346.138C665.097 346.138 441.386 201.616 378.022 163.475V606.404H1254.65Z" fill="url(#paint4_linear)"/>
</g>
</g>
<rect x="800.354" y="242.008" width="32.6331" height="287.619" fill="url(#paint5_linear)"/>
<rect x="792.603" y="479.077" width="48.1344" height="7.8359" rx="3.91795" fill="#E2EAEB"/>
<path fill-rule="evenodd" clip-rule="evenodd" d="M793.609 480.374C795.166 483.097 798.443 483.211 801.833 483.211L840.732 483.211C840.619 485.274 838.911 486.912 836.819 486.912H796.521C794.357 486.912 792.603 485.158 792.603 482.994C792.603 481.987 792.983 481.068 793.609 480.374Z" fill="url(#paint6_linear)"/>
<path fill-rule="evenodd" clip-rule="evenodd" d="M800.354 493.321V486.913H832.863C816.91 486.913 808.216 489.129 800.354 493.321Z" fill="#334352" fill-opacity="0.35"/>
<path fill-rule="evenodd" clip-rule="evenodd" d="M798.499 522.766H782.93C779.878 522.766 777.264 524.948 776.719 527.951L756.5 639.345C755.797 643.22 758.774 646.785 762.712 646.785H798.499H834.286C838.224 646.785 841.2 643.22 840.497 639.345L820.279 527.951C819.734 524.948 817.119 522.766 814.068 522.766H798.499Z" fill="url(#paint7_linear)"/>
<path fill-rule="evenodd" clip-rule="evenodd" d="M832.557 522.766H816.988C813.937 522.766 811.322 524.948 810.777 527.951L790.559 639.345C789.856 643.22 792.832 646.785 796.77 646.785H832.557H832.557H868.344C872.282 646.785 875.259 643.22 874.556 639.345L854.337 527.951C853.792 524.948 851.178 522.766 848.126 522.766H832.557H832.557Z" fill="#DEE1E2"/>
<rect x="792.603" y="489.403" width="48.1344" height="7.8359" rx="3.91795" fill="#E2EAEB"/>
<path fill-rule="evenodd" clip-rule="evenodd" d="M793.609 490.699C795.166 493.423 798.443 493.537 801.833 493.537L840.732 493.537C840.619 495.6 838.911 497.238 836.819 497.238H796.521C794.357 497.238 792.603 495.484 792.603 493.32C792.603 492.313 792.984 491.394 793.609 490.699Z" fill="url(#paint8_linear)"/>
<path fill-rule="evenodd" clip-rule="evenodd" d="M800.354 286.084V269.688H832.863C816.91 269.688 808.216 275.359 800.354 286.084Z" fill="#405365" fill-opacity="0.37"/>
<path fill-rule="evenodd" clip-rule="evenodd" d="M800.354 503.647V497.239H832.863C816.91 497.239 808.216 499.455 800.354 503.647Z" fill="#334352" fill-opacity="0.35"/>
<path d="M831.977 175.781L839.736 205.287C839.896 205.895 839.933 206.528 839.846 207.151L831.622 265.613C831.293 267.95 829.294 269.688 826.934 269.688L797.147 269.688C794.787 269.688 792.787 267.95 792.458 265.613L784.234 207.151C784.147 206.528 784.184 205.895 784.344 205.287L792.103 175.781C792.65 173.701 794.531 172.251 796.682 172.251L827.398 172.251C829.549 172.251 831.43 173.701 831.977 175.781Z" fill="url(#paint9_linear)"/>
<path d="M841.237 175.781L848.996 205.287C849.156 205.895 849.193 206.528 849.106 207.151L840.882 265.613C840.553 267.949 838.553 269.688 836.193 269.688H818.859C816.499 269.688 814.499 267.949 814.171 265.613L805.947 207.151C805.859 206.528 805.896 205.895 806.056 205.287L813.815 175.781C814.362 173.701 816.243 172.251 818.394 172.251H836.658C838.809 172.251 840.69 173.701 841.237 175.781Z" fill="#DEE1E2"/>
<path d="M614.388 211.577L529.18 494.77" stroke="#D6DDDF" stroke-width="2.64394"/>
<path d="M1035.2 211.577L949.992 494.77" stroke="#D6DDDF" stroke-width="2.64394"/>
<path fill-rule="evenodd" clip-rule="evenodd" d="M847.126 198.174L848.996 205.287C849.156 205.895 849.193 206.528 849.106 207.15L848.65 210.393L807.92 222.707L789.756 246.406L784.234 207.151C784.146 206.528 784.184 205.895 784.343 205.287L786.214 198.174H847.126Z" fill="url(#paint10_linear)" fill-opacity="0.34"/>
<path d="M627.252 210.218C677.72 210.218 702.208 177.313 788.328 177.313V210.218C715.154 210.218 693.414 227.351 627.252 227.351C605.741 227.351 605.676 227.351 603.372 227.351V210.218C606.428 210.218 607.545 210.218 627.252 210.218Z" fill="url(#paint11_linear)"/>
<path d="M639.08 210.218C689.547 210.218 714.035 177.313 800.155 177.313V210.218C726.981 210.218 705.241 227.351 639.08 227.351C617.568 227.351 617.503 227.351 615.199 227.351V210.218C618.255 210.218 619.372 210.218 639.08 210.218Z" fill="#DEE1E2"/>
<path fill-rule="evenodd" clip-rule="evenodd" d="M614.848 218.804C616.004 216.243 616.667 213.261 616.667 210.079C616.667 206.896 616.004 203.914 614.848 201.354V192.806H603.381C603.378 192.806 603.375 192.806 603.372 192.806C603.372 192.806 603.372 192.806 603.372 192.806C596.029 192.806 590.077 200.539 590.077 210.079C590.077 219.618 596.029 227.351 603.372 227.351C603.382 227.351 603.393 227.351 603.403 227.351H614.848V218.804Z" fill="url(#paint12_linear)"/>
<ellipse cx="615.199" cy="210.079" rx="13.2948" ry="17.2724" fill="#DEE1E2"/>
<rect x="800.155" y="177.313" width="38.4924" height="32.8763" fill="#DEE1E2"/>
<path fill-rule="evenodd" clip-rule="evenodd" d="M1062.25 218.804C1063.41 216.244 1064.07 213.262 1064.07 210.079C1064.07 206.896 1063.41 203.914 1062.25 201.353V192.806H1050.79C1050.79 192.806 1050.78 192.806 1050.77 192.806C1043.43 192.806 1037.48 200.539 1037.48 210.079C1037.48 219.618 1043.43 227.351 1050.77 227.351C1050.78 227.351 1050.79 227.351 1050.8 227.351H1062.25V218.804Z" fill="url(#paint13_linear)"/>
<ellipse cx="1062.6" cy="210.079" rx="13.2948" ry="17.2724" fill="#DEE1E2"/>
<path d="M1026.87 210.218C976.401 210.218 951.913 177.313 865.793 177.313V210.218C938.967 210.218 960.707 227.351 1026.87 227.351C1048.38 227.351 1048.44 227.351 1050.75 227.351V210.218C1047.69 210.218 1046.58 210.218 1026.87 210.218Z" fill="url(#paint14_linear)"/>
<path d="M1038.21 210.218C987.747 210.218 963.259 177.313 877.14 177.313V210.218C950.313 210.218 972.053 227.351 1038.21 227.351C1059.73 227.351 1059.79 227.351 1062.1 227.351V210.218C1059.04 210.218 1057.92 210.218 1038.21 210.218Z" fill="#DEE1E2"/>
<rect width="38.4924" height="32.8763" transform="matrix(-1 0 0 1 877.139 177.313)" fill="#DEE1E2"/>
<circle cx="619.626" cy="425.226" r="75.7291" fill="url(#paint15_radial)"/>
<path fill-rule="evenodd" clip-rule="evenodd" d="M578.413 361.683C583.085 366.119 594.823 364.698 606.892 362.284C616.129 360.437 615.385 357.911 614.836 356.049C614.433 354.684 614.136 353.676 617.952 353.553C622.671 353.401 625.905 351.664 627.851 349.938C625.149 349.647 622.405 349.497 619.626 349.497C604.427 349.497 590.274 353.975 578.413 361.683ZM545.146 438.995C544.326 434.53 543.897 429.928 543.897 425.226C543.897 403.6 552.962 384.091 567.5 370.292C572.752 372.349 573.52 378.277 571.383 382.076C570.074 384.404 568.546 384.914 566.799 385.496C565.053 386.078 563.088 386.733 560.906 389.352C559.197 391.403 557.711 391.937 556.414 392.404C554.395 393.131 552.832 393.693 551.592 399.539C550.799 403.278 549.918 406.222 549.12 408.888C547.868 413.072 546.822 416.569 546.644 421.368C546.524 424.606 545.884 431.638 545.146 438.995ZM641.18 497.844C634.349 499.868 627.115 500.955 619.626 500.955C606.032 500.955 593.275 497.373 582.246 491.102C584.012 490.98 586.193 490.93 588.847 490.93H627.557C635.644 490.93 639.531 494.244 641.18 497.844ZM689.274 455.01C683.416 468.689 673.646 480.295 661.371 488.42C661.914 487.41 662.413 486.509 662.842 485.781C664.874 482.325 664.137 478.177 663.46 474.374C663.144 472.597 662.842 470.895 662.842 469.374V469.374C662.842 466.92 662.842 465.807 663.328 464.98C663.732 464.293 664.472 463.804 665.826 462.909L665.829 462.907C666.014 462.784 666.212 462.653 666.421 462.514C670.001 460.127 666.421 455.056 662.842 453.863C662.197 453.648 661.648 453.511 661.145 453.384C658.853 452.809 657.483 452.466 652.103 446.108C647.742 440.954 649.045 446.206 650.498 452.061C651.232 455.017 652.003 458.126 652.103 460.127C652.384 465.744 646.585 449.947 644.162 443.348L644.162 443.348L644.156 443.331C644.007 442.927 643.872 442.557 643.751 442.23C642.126 437.82 638.154 435.758 634.645 433.936C633.644 433.416 632.68 432.916 631.819 432.386C627.941 430 627.345 427.315 625.853 414.489C620.312 408.394 613.285 408.017 607.249 407.693C603.536 407.494 600.199 407.315 597.814 405.838C592.862 402.772 596.859 397.656 600.961 392.404C602.047 391.013 603.141 389.613 604.078 388.239C607.192 383.672 612.618 385.317 617.641 386.841C619.835 387.506 621.952 388.148 623.765 388.239C627.583 388.43 629.813 384.59 631.705 381.33C632.77 379.497 633.728 377.847 634.802 377.202C635.629 376.706 637.328 376.737 639.352 376.774C644.625 376.871 652.103 377.009 652.103 367.955C652.103 358.432 663.823 371.142 671.279 379.229L671.279 379.229L671.279 379.229C673.633 381.781 675.561 383.872 676.563 384.659C680.739 387.941 680.739 393.608 676.563 401.364C673.758 406.574 674.722 408.822 675.656 411.003C676.113 412.069 676.563 413.118 676.563 414.489C676.563 418.665 674.177 432.386 668.807 438.054C664.779 442.306 666.628 444.711 667.928 446.403C668.361 446.966 668.733 447.45 668.807 447.897C669.106 449.687 679.546 453.863 683.722 453.863C685.243 453.863 687.276 454.358 689.274 455.01Z" fill="url(#paint16_radial)"/>
<g filter="url(#filter2_f)">
<circle cx="619.626" cy="425.226" r="78.4207" fill="url(#paint17_radial)"/>
</g>
<ellipse cx="658.701" cy="392.361" rx="18.1703" ry="24.914" transform="rotate(-32.0273 658.701 392.361)" fill="url(#paint18_radial)"/>
<circle cx="658.702" cy="379.783" r="2.32439" fill="url(#paint19_radial)"/>
<rect x="986.397" y="343.012" width="99.2779" height="143.521" fill="#DEE2E4"/>
<path fill-rule="evenodd" clip-rule="evenodd" d="M1094.13 330.542H995.019V355.482H1094.12C1094.12 355.482 1094.13 355.482 1094.13 355.482C1098.8 355.482 1102.58 349.899 1102.58 343.012C1102.58 336.125 1098.8 330.542 1094.13 330.542C1094.13 330.542 1094.13 330.542 1094.13 330.542Z" fill="url(#paint20_linear)"/>
<path fill-rule="evenodd" clip-rule="evenodd" d="M1094.13 499.003C1098.8 499.003 1102.58 493.42 1102.58 486.533C1102.58 479.646 1098.8 474.063 1094.13 474.063C1094.12 474.063 1094.12 474.063 1094.11 474.063H995.019V499.003H1094.13C1094.13 499.003 1094.13 499.003 1094.13 499.003Z" fill="url(#paint21_linear)"/>
<ellipse cx="994.851" cy="343.012" rx="8.4545" ry="12.4703" fill="#DCE0E1"/>
<ellipse cx="994.851" cy="486.533" rx="8.4545" ry="12.4703" fill="#DCE0E1"/>
<rect x="995.676" y="367.904" width="55.2641" height="7.03941" rx="3.5197" fill="url(#paint22_linear)"/>
<rect width="67.5786" height="7.03941" rx="3.5197" transform="matrix(-1 0 0 1 1063.25 381.543)" fill="url(#paint23_linear)"/>
<rect x="995.676" y="395.181" width="77.387" height="7.03941" rx="3.5197" fill="url(#paint24_linear)"/>
<rect width="67.5786" height="7.03941" rx="3.5197" transform="matrix(-1 0 0 1 1063.25 408.819)" fill="url(#paint25_linear)"/>
<rect x="995.676" y="422.457" width="55.2641" height="7.03941" rx="3.5197" fill="url(#paint26_linear)"/>
<rect width="67.5786" height="7.03941" rx="3.5197" transform="matrix(-1 0 0 1 1063.25 436.096)" fill="url(#paint27_linear)"/>
<rect x="995.676" y="449.734" width="77.387" height="7.03941" rx="3.5197" fill="url(#paint28_linear)"/>
<rect x="995.676" y="463.372" width="49.0029" height="7.03941" rx="3.5197" fill="url(#paint29_linear)"/>
<path fill-rule="evenodd" clip-rule="evenodd" d="M616.667 510.913C649.836 510.913 682.09 506.994 712.99 499.594C716.532 498.746 715.89 493.969 712.248 493.969H521.086C517.445 493.969 516.802 498.746 520.344 499.594C551.244 506.994 583.498 510.913 616.667 510.913Z" fill="url(#paint30_linear)"/>
<path fill-rule="evenodd" clip-rule="evenodd" d="M616.667 510.913C649.836 510.913 682.09 506.994 712.99 499.594C716.532 498.746 715.89 493.969 712.248 493.969H521.086C517.445 493.969 516.802 498.746 520.344 499.594C551.244 506.994 583.498 510.913 616.667 510.913Z" fill="url(#paint31_linear)"/>
<path fill-rule="evenodd" clip-rule="evenodd" d="M1037.48 510.913C1070.65 510.913 1102.9 506.994 1133.8 499.594C1137.34 498.746 1136.7 493.969 1133.06 493.969H941.898C938.257 493.969 937.614 498.746 941.156 499.594C972.056 506.994 1004.31 510.913 1037.48 510.913Z" fill="url(#paint32_linear)"/>
<path fill-rule="evenodd" clip-rule="evenodd" d="M1037.48 510.913C1070.65 510.913 1102.9 506.994 1133.8 499.594C1137.34 498.746 1136.7 493.969 1133.06 493.969H941.898C938.257 493.969 937.614 498.746 941.156 499.594C972.056 506.994 1004.31 510.913 1037.48 510.913Z" fill="url(#paint33_linear)"/>
<path d="M104.941 116.925C108.34 116.925 111.49 117.8 114.39 119.55C117.289 121.249 119.589 123.549 121.289 126.449C123.038 129.348 123.913 132.498 123.913 135.897C123.913 139.097 123.038 142.122 121.289 144.971C119.589 147.771 117.289 150.021 114.39 151.72C111.49 153.42 108.34 154.27 104.941 154.27H104.341H91.1425V172.043H83.1185V116.925H102.841H104.941ZM104.341 145.646C106.241 145.646 107.965 145.196 109.515 144.296C111.115 143.347 112.365 142.097 113.265 140.547C114.215 138.947 114.69 137.197 114.69 135.298C114.69 133.398 114.215 131.673 113.265 130.123C112.365 128.523 111.115 127.274 109.515 126.374C107.965 125.424 106.241 124.949 104.341 124.949H91.1425V145.646H104.341ZM145.005 134.548C141.655 134.548 138.531 135.423 135.631 137.172C132.732 138.872 130.407 141.197 128.657 144.146C126.907 147.046 126.032 150.171 126.032 153.52C126.032 156.92 126.907 160.094 128.657 163.044C130.407 165.944 132.732 168.268 135.631 170.018C138.531 171.718 141.655 172.568 145.005 172.568C148.405 172.568 151.504 171.718 154.304 170.018C157.153 168.268 159.403 165.944 161.053 163.044C162.703 160.094 163.528 156.92 163.528 153.52C163.528 150.121 162.703 146.971 161.053 144.071C159.403 141.172 157.153 138.872 154.304 137.172C151.504 135.423 148.405 134.548 145.005 134.548ZM134.056 153.52C134.056 151.67 134.506 149.971 135.406 148.421C136.356 146.821 137.631 145.571 139.231 144.671C140.831 143.721 142.555 143.247 144.405 143.247C146.505 143.247 148.38 143.721 150.029 144.671C151.679 145.571 152.979 146.796 153.929 148.346C154.879 149.896 155.354 151.62 155.354 153.52C155.354 155.42 154.879 157.17 153.929 158.77C152.979 160.319 151.679 161.569 150.029 162.519C148.38 163.419 146.505 163.869 144.405 163.869C142.555 163.869 140.831 163.419 139.231 162.519C137.631 161.569 136.356 160.319 135.406 158.77C134.506 157.17 134.056 155.42 134.056 153.52ZM176.933 160.644C176.933 162.794 177.258 164.219 177.908 164.919C178.558 165.619 179.907 165.969 181.957 165.969V171.593C180.207 171.843 178.758 171.968 177.608 171.968C174.558 171.968 172.358 171.093 171.009 169.343C169.709 167.593 169.059 164.694 169.059 160.644V116.925H176.933V160.644ZM192.642 118.5C191.242 118.5 190.042 119 189.043 119.999C188.043 120.949 187.543 122.124 187.543 123.524C187.543 124.874 188.043 126.049 189.043 127.049C190.042 127.998 191.242 128.473 192.642 128.473C193.992 128.473 195.167 127.998 196.167 127.049C197.167 126.049 197.666 124.874 197.666 123.524C197.666 122.124 197.167 120.949 196.167 119.999C195.167 119 193.992 118.5 192.642 118.5ZM196.842 134.548H188.368V172.043H196.842V134.548ZM220.3 172.568C216.851 172.568 213.676 171.718 210.776 170.018C207.877 168.318 205.577 166.019 203.877 163.119C202.177 160.169 201.328 156.97 201.328 153.52C201.328 150.121 202.202 146.971 203.952 144.071C205.702 141.172 208.027 138.872 210.926 137.172C213.826 135.423 216.951 134.548 220.3 134.548C224 134.548 227.399 135.548 230.499 137.547C233.598 139.497 235.973 142.122 237.623 145.421L230.274 148.871C229.424 146.921 228.174 145.346 226.524 144.146C224.875 142.897 223 142.272 220.9 142.272C218.75 142.272 216.776 142.797 214.976 143.846C213.226 144.846 211.851 146.221 210.851 147.971C209.851 149.671 209.352 151.57 209.352 153.67C209.352 155.77 209.851 157.695 210.851 159.444C211.851 161.144 213.226 162.494 214.976 163.494C216.776 164.494 218.75 164.994 220.9 164.994C223.1 164.994 225.025 164.419 226.674 163.269C228.324 162.119 229.549 160.594 230.349 158.695L237.548 162.069C235.948 165.269 233.623 167.818 230.574 169.718C227.574 171.618 224.15 172.568 220.3 172.568ZM270.704 134.548H280.827L263.055 177.592C261.555 181.592 259.305 184.541 256.306 186.441C253.356 188.341 249.256 189.291 244.007 189.291H242.882V181.567H244.007C246.657 181.567 248.981 181.067 250.981 180.067C253.031 179.067 254.481 177.442 255.331 175.192L256.381 171.743L238.683 134.548H248.806L261.18 160.644L270.704 134.548ZM104.941 191.925C108.34 191.925 111.49 192.8 114.39 194.55C117.289 196.249 119.589 198.549 121.289 201.449C123.038 204.348 123.913 207.498 123.913 210.897C123.913 214.097 123.038 217.122 121.289 219.971C119.589 222.771 117.289 225.021 114.39 226.72C111.49 228.42 108.34 229.27 104.941 229.27H104.341H91.1425V247.043H83.1185V191.925H102.841H104.941ZM104.341 220.646C106.241 220.646 107.965 220.196 109.515 219.296C111.115 218.347 112.365 217.097 113.265 215.547C114.215 213.947 114.69 212.197 114.69 210.298C114.69 208.398 114.215 206.673 113.265 205.123C112.365 203.523 111.115 202.274 109.515 201.374C107.965 200.424 106.241 199.949 104.341 199.949H91.1425V220.646H104.341ZM136.891 193.5C135.492 193.5 134.292 194 133.292 194.999C132.292 195.949 131.792 197.124 131.792 198.524C131.792 199.874 132.292 201.049 133.292 202.049C134.292 202.998 135.492 203.473 136.891 203.473C138.241 203.473 139.416 202.998 140.416 202.049C141.416 201.049 141.916 199.874 141.916 198.524C141.916 197.124 141.416 195.949 140.416 194.999C139.416 194 138.241 193.5 136.891 193.5ZM141.091 209.548H132.617V247.043H141.091V209.548ZM170.738 217.122H161.965V235.869C161.965 236.969 162.24 237.844 162.789 238.494C163.389 239.144 164.489 239.469 166.089 239.469H168.939V246.518C167.039 246.868 165.689 247.043 164.889 247.043C160.54 247.043 157.615 246.143 156.115 244.343C154.615 242.493 153.841 239.894 153.791 236.544V217.122H146.816V209.548H153.791V202.574L161.965 199.124V209.548H170.738V217.122ZM194.841 247.568C191.392 247.568 188.217 246.718 185.318 245.018C182.418 243.318 180.118 241.019 178.419 238.119C176.719 235.169 175.869 231.97 175.869 228.52C175.869 225.121 176.744 221.971 178.494 219.071C180.243 216.172 182.568 213.872 185.468 212.172C188.367 210.423 191.492 209.548 194.841 209.548C198.541 209.548 201.941 210.548 205.04 212.547C208.14 214.497 210.514 217.122 212.164 220.421L204.815 223.871C203.965 221.921 202.715 220.346 201.066 219.146C199.416 217.897 197.541 217.272 195.441 217.272C193.292 217.272 191.317 217.797 189.517 218.846C187.767 219.846 186.393 221.221 185.393 222.971C184.393 224.671 183.893 226.57 183.893 228.67C183.893 230.77 184.393 232.695 185.393 234.444C186.393 236.144 187.767 237.494 189.517 238.494C191.317 239.494 193.292 239.994 195.441 239.994C197.641 239.994 199.566 239.419 201.216 238.269C202.865 237.119 204.09 235.594 204.89 233.695L212.089 237.069C210.489 240.269 208.165 242.818 205.115 244.718C202.116 246.618 198.691 247.568 194.841 247.568ZM235.046 209.548C238.246 209.548 240.921 210.198 243.07 211.497C245.27 212.747 246.92 214.447 248.02 216.597C249.119 218.696 249.669 221.046 249.669 223.646V247.043H241.42V225.446C241.42 223.496 240.746 221.696 239.396 220.046C238.096 218.397 235.871 217.572 232.722 217.572C229.722 217.572 227.497 218.497 226.047 220.346C224.598 222.146 223.873 224.246 223.873 226.645V247.043H215.699V191.925H223.873V212.622C226.422 210.573 230.147 209.548 235.046 209.548ZM286.095 209.998H294.419V247.043H286.095V243.893C282.695 246.593 278.796 247.943 274.396 247.943C270.847 247.943 267.597 247.118 264.648 245.468C261.748 243.768 259.448 241.494 257.748 238.644C256.099 235.794 255.274 232.645 255.274 229.195C255.274 225.646 256.099 222.371 257.748 219.371C259.448 216.372 261.748 213.997 264.648 212.247C267.597 210.448 270.847 209.548 274.396 209.548C278.696 209.548 282.595 210.972 286.095 213.822V209.998ZM274.846 239.994C276.946 239.994 278.846 239.469 280.546 238.419C282.295 237.369 283.645 236.019 284.595 234.369C285.595 232.67 286.095 230.945 286.095 229.195C286.095 227.145 285.595 225.271 284.595 223.571C283.645 221.821 282.32 220.446 280.621 219.446C278.921 218.447 276.996 217.947 274.846 217.947C272.847 217.947 271.022 218.447 269.372 219.446C267.722 220.396 266.422 221.721 265.473 223.421C264.523 225.121 264.048 227.045 264.048 229.195C264.048 231.045 264.523 232.82 265.473 234.519C266.422 236.169 267.722 237.494 269.372 238.494C271.072 239.494 272.897 239.994 274.846 239.994ZM324.349 217.122H315.575V235.869C315.575 236.969 315.85 237.844 316.4 238.494C317 239.144 318.1 239.469 319.699 239.469H322.549V246.518C320.649 246.868 319.299 247.043 318.5 247.043C314.15 247.043 311.225 246.143 309.726 244.343C308.226 242.493 307.451 239.894 307.401 236.544V217.122H300.427V209.548H307.401V202.574L315.575 199.124V209.548H324.349V217.122ZM349.577 209.548C352.776 209.548 355.451 210.198 357.601 211.497C359.8 212.747 361.45 214.447 362.55 216.597C363.65 218.696 364.2 221.046 364.2 223.646V247.043H355.951V225.446C355.951 223.496 355.276 221.696 353.926 220.046C352.626 218.397 350.402 217.572 347.252 217.572C344.252 217.572 342.028 218.497 340.578 220.346C339.128 222.146 338.403 224.246 338.403 226.645V247.043H330.229V191.925H338.403V212.622C340.953 210.573 344.677 209.548 349.577 209.548ZM388.027 209.548C384.677 209.548 381.553 210.423 378.653 212.172C375.753 213.872 373.429 216.197 371.679 219.146C369.929 222.046 369.054 225.171 369.054 228.52C369.054 231.92 369.929 235.094 371.679 238.044C373.429 240.944 375.753 243.268 378.653 245.018C381.553 246.718 384.677 247.568 388.027 247.568C391.426 247.568 394.526 246.718 397.326 245.018C400.175 243.268 402.425 240.944 404.075 238.044C405.725 235.094 406.55 231.92 406.55 228.52C406.55 225.121 405.725 221.971 404.075 219.071C402.425 216.172 400.175 213.872 397.326 212.172C394.526 210.423 391.426 209.548 388.027 209.548ZM377.078 228.52C377.078 226.67 377.528 224.971 378.428 223.421C379.378 221.821 380.653 220.571 382.253 219.671C383.852 218.721 385.577 218.247 387.427 218.247C389.527 218.247 391.401 218.721 393.051 219.671C394.701 220.571 396.001 221.796 396.951 223.346C397.901 224.896 398.376 226.62 398.376 228.52C398.376 230.42 397.901 232.17 396.951 233.77C396.001 235.319 394.701 236.569 393.051 237.519C391.401 238.419 389.527 238.869 387.427 238.869C385.577 238.869 383.852 238.419 382.253 237.519C380.653 236.569 379.378 235.319 378.428 233.77C377.528 232.17 377.078 230.42 377.078 228.52ZM444.552 247.043H436.303V226.57C436.303 224.321 435.628 222.296 434.278 220.496C432.928 218.696 430.678 217.797 427.529 217.797C424.579 217.797 422.379 218.746 420.93 220.646C419.48 222.546 418.755 224.721 418.755 227.17V247.043H410.581V210.747H418.755V213.297C421.404 210.797 425.129 209.548 429.928 209.548C433.028 209.548 435.653 210.248 437.802 211.647C440.002 212.997 441.652 214.797 442.752 217.047C443.852 219.296 444.452 221.696 444.552 224.246V247.043Z" fill="#3F4556"/>
<path d="M629.821 211.577L715.029 494.77" stroke="#D6DDDF" stroke-width="2.64394"/>
<path d="M1050.63 211.577L1135.84 494.77" stroke="#D6DDDF" stroke-width="2.64394"/>
<path d="M927.089 517.405C823.81 500.642 741.523 579.223 659.715 579.224L662.98 641.638L948.452 652.142L927.089 517.405Z" fill="white"/>
<path d="M87.4438 284.25C88.7597 284.25 89.9015 284.521 90.8691 285.062C91.3529 285.333 91.7981 285.662 92.2045 286.049C92.6302 286.417 93.056 286.94 93.4817 287.617L93.8591 288.372L91.0723 289.62C90.5305 288.749 90.0563 288.207 89.6499 287.994C89.2242 287.723 88.8662 287.53 88.5759 287.414C88.2856 287.298 87.8985 287.23 87.4147 287.211H87.2115C86.2633 287.211 85.4505 287.423 84.7731 287.849C84.4441 288.043 84.1635 288.323 83.9313 288.691C83.7184 289.059 83.612 289.475 83.612 289.939C83.612 290.171 83.641 290.404 83.6991 290.636C83.8345 291.12 84.1248 291.516 84.5699 291.826C85.0344 292.116 85.4601 292.339 85.8472 292.494C86.2536 292.649 86.5149 292.755 86.631 292.813L87.4147 293.103C88.5952 293.49 89.4661 293.819 90.0273 294.09C91.1885 294.613 92.04 295.135 92.5818 295.658C93.143 296.219 93.5785 296.79 93.8881 297.371C94.2171 297.951 94.3816 298.677 94.3816 299.548C94.3816 300.167 94.2848 300.767 94.0913 301.347C93.9171 301.909 93.6752 302.393 93.3656 302.799C92.4947 303.979 91.3917 304.763 90.0563 305.15C89.0887 305.441 88.1308 305.586 87.1825 305.586C86.8922 305.586 86.6793 305.576 86.5439 305.557C86.0407 305.557 85.4795 305.499 84.8602 305.382C84.2409 305.247 83.6313 305.034 83.0314 304.744C82.4121 304.434 81.8509 304.028 81.3478 303.525C80.864 303.002 80.3414 302.315 79.7802 301.464L82.5379 299.954C82.7895 300.341 83.0895 300.719 83.4378 301.086C83.7862 301.454 84.1442 301.735 84.5119 301.928C85.2086 302.315 86.0794 302.509 87.1245 302.509C87.1825 302.509 87.5309 302.48 88.1695 302.422C88.7113 302.344 89.2048 302.189 89.6499 301.957C90.095 301.706 90.4627 301.386 90.753 300.999C91.0627 300.573 91.2175 300.148 91.2175 299.722C91.2175 299.315 91.053 298.87 90.724 298.387C90.1821 297.593 89.2242 296.954 87.8502 296.471C86.2246 295.929 85.1795 295.571 84.7151 295.397C84.1152 295.145 83.4959 294.806 82.8573 294.381C82.2186 293.955 81.7348 293.49 81.4058 292.987C80.9994 292.407 80.7285 291.904 80.593 291.478C80.4576 291.052 80.3898 290.5 80.3898 289.823C80.3898 289.204 80.535 288.594 80.8253 287.994C81.1349 287.375 81.5026 286.833 81.9283 286.369C82.4121 285.866 83.0508 285.42 83.8442 285.033C84.657 284.627 85.5666 284.375 86.5729 284.279L87.4438 284.25ZM108.853 291.246H112.076V305.586H108.853V304.366C107.538 305.411 106.028 305.934 104.325 305.934C102.951 305.934 101.693 305.615 100.551 304.976C99.4289 304.318 98.5387 303.438 97.8807 302.334C97.242 301.231 96.9227 300.012 96.9227 298.677C96.9227 297.303 97.242 296.035 97.8807 294.874C98.5387 293.713 99.4289 292.794 100.551 292.116C101.693 291.42 102.951 291.071 104.325 291.071C105.989 291.071 107.499 291.623 108.853 292.726V291.246ZM104.499 302.857C105.312 302.857 106.047 302.654 106.705 302.247C107.383 301.841 107.905 301.318 108.273 300.68C108.66 300.022 108.853 299.354 108.853 298.677C108.853 297.883 108.66 297.158 108.273 296.5C107.905 295.822 107.392 295.29 106.734 294.903C106.076 294.516 105.331 294.323 104.499 294.323C103.725 294.323 103.019 294.516 102.38 294.903C101.741 295.271 101.238 295.784 100.871 296.442C100.503 297.1 100.319 297.845 100.319 298.677C100.319 299.393 100.503 300.08 100.871 300.738C101.238 301.377 101.741 301.889 102.38 302.276C103.038 302.663 103.744 302.857 104.499 302.857ZM123.661 294.003H120.265V301.26C120.265 301.686 120.372 302.025 120.584 302.276C120.817 302.528 121.242 302.654 121.862 302.654H122.965V305.382C122.229 305.518 121.707 305.586 121.397 305.586C119.714 305.586 118.581 305.237 118.001 304.541C117.42 303.825 117.12 302.818 117.101 301.522V294.003H114.401V291.071H117.101V288.372L120.265 287.036V291.071H123.661V294.003ZM136.562 291.071H139.842V305.586H136.562V304.541C135.556 305.411 134.172 305.847 132.411 305.847C131.134 305.847 130.04 305.576 129.131 305.034C128.241 304.492 127.563 303.776 127.099 302.886C126.654 301.996 126.431 301.028 126.431 299.983V291.071H129.711V299.228C129.711 299.732 129.818 300.244 130.031 300.767C130.263 301.27 130.631 301.696 131.134 302.044C131.656 302.393 132.314 302.567 133.108 302.567C134.308 302.567 135.178 302.199 135.72 301.464C136.282 300.728 136.562 299.877 136.562 298.909V291.071ZM151.156 291.1V294.177H149.85C148.553 294.177 147.673 294.584 147.208 295.397C146.744 296.209 146.512 297.148 146.512 298.212V305.586H143.144V291.449H146.512V292.697C147.441 291.594 148.766 291.042 150.489 291.042L151.156 291.1ZM164.682 284.25H167.933V305.586H164.682V304.192C163.347 305.276 161.808 305.818 160.067 305.818C158.731 305.818 157.493 305.489 156.351 304.831C155.229 304.173 154.338 303.283 153.68 302.16C153.022 301.019 152.693 299.78 152.693 298.445C152.693 297.109 153.022 295.88 153.68 294.758C154.338 293.616 155.229 292.716 156.351 292.058C157.493 291.4 158.731 291.071 160.067 291.071C161.808 291.071 163.347 291.613 164.682 292.697V284.25ZM160.531 302.741C161.325 302.741 162.031 302.538 162.65 302.131C163.289 301.725 163.782 301.193 164.131 300.535C164.498 299.877 164.682 299.18 164.682 298.445C164.682 297.69 164.498 296.984 164.131 296.326C163.782 295.648 163.289 295.106 162.65 294.7C162.031 294.294 161.325 294.09 160.531 294.09C159.699 294.09 158.935 294.284 158.238 294.671C157.561 295.058 157.019 295.59 156.612 296.267C156.225 296.925 156.032 297.651 156.032 298.445C156.032 299.238 156.225 299.964 156.612 300.622C157.019 301.26 157.561 301.773 158.238 302.16C158.935 302.547 159.699 302.741 160.531 302.741ZM182.366 291.246H185.588V305.586H182.366V304.366C181.05 305.411 179.541 305.934 177.838 305.934C176.464 305.934 175.206 305.615 174.064 304.976C172.941 304.318 172.051 303.438 171.393 302.334C170.755 301.231 170.435 300.012 170.435 298.677C170.435 297.303 170.755 296.035 171.393 294.874C172.051 293.713 172.941 292.794 174.064 292.116C175.206 291.42 176.464 291.071 177.838 291.071C179.502 291.071 181.011 291.623 182.366 292.726V291.246ZM178.012 302.857C178.825 302.857 179.56 302.654 180.218 302.247C180.895 301.841 181.418 301.318 181.786 300.68C182.173 300.022 182.366 299.354 182.366 298.677C182.366 297.883 182.173 297.158 181.786 296.5C181.418 295.822 180.905 295.29 180.247 294.903C179.589 294.516 178.844 294.323 178.012 294.323C177.238 294.323 176.531 294.516 175.893 294.903C175.254 295.271 174.751 295.784 174.383 296.442C174.016 297.1 173.832 297.845 173.832 298.677C173.832 299.393 174.016 300.08 174.383 300.738C174.751 301.377 175.254 301.889 175.893 302.276C176.551 302.663 177.257 302.857 178.012 302.857ZM199.729 291.071H203.647L196.768 307.734C196.187 309.282 195.316 310.424 194.155 311.159C193.013 311.895 191.426 312.262 189.394 312.262H188.959V309.272H189.394C190.42 309.272 191.32 309.079 192.094 308.692C192.887 308.305 193.449 307.676 193.778 306.805L194.184 305.47L187.333 291.071H191.252L196.042 301.173L199.729 291.071ZM205.762 303.379H209.1L206.749 309.069H204.891L205.762 303.379ZM243.036 305.586H239.465L238.217 302.276H228.028L226.78 305.586H223.035L231.047 284.25H235.024L243.036 305.586ZM233.166 288.72L229.276 298.967H236.998L233.166 288.72ZM252.282 291.071C253.598 291.071 254.817 291.4 255.939 292.058C257.081 292.716 257.981 293.616 258.639 294.758C259.316 295.88 259.655 297.109 259.655 298.445C259.655 299.761 259.316 300.98 258.639 302.102C257.981 303.225 257.081 304.125 255.939 304.802C254.798 305.46 253.569 305.789 252.253 305.789C250.472 305.789 248.924 305.237 247.608 304.134V312.262H244.415V291.275H247.608V292.726C248.247 292.203 248.963 291.797 249.756 291.507C250.55 291.217 251.392 291.071 252.282 291.071ZM251.875 302.683C252.688 302.683 253.424 302.499 254.082 302.131C254.74 301.744 255.262 301.231 255.649 300.593C256.036 299.935 256.23 299.219 256.23 298.445C256.23 297.671 256.036 296.954 255.649 296.297C255.262 295.619 254.74 295.087 254.082 294.7C253.424 294.313 252.688 294.119 251.875 294.119C251.082 294.119 250.356 294.323 249.698 294.729C249.06 295.135 248.547 295.677 248.16 296.355C247.792 297.013 247.608 297.709 247.608 298.445C247.608 299.18 247.792 299.877 248.16 300.535C248.547 301.193 249.06 301.715 249.698 302.102C250.356 302.489 251.082 302.683 251.875 302.683ZM269.769 291.1V294.177H268.462C267.166 294.177 266.285 294.584 265.821 295.397C265.356 296.209 265.124 297.148 265.124 298.212V305.586H261.757V291.449H265.124V292.697C266.053 291.594 267.379 291.042 269.101 291.042L269.769 291.1ZM274.034 284.859C273.493 284.859 273.028 285.053 272.641 285.44C272.254 285.808 272.061 286.262 272.061 286.804C272.061 287.327 272.254 287.781 272.641 288.169C273.028 288.536 273.493 288.72 274.034 288.72C274.557 288.72 275.012 288.536 275.399 288.169C275.786 287.781 275.979 287.327 275.979 286.804C275.979 286.262 275.786 285.808 275.399 285.44C275.012 285.053 274.557 284.859 274.034 284.859ZM275.66 291.071H272.38V305.586H275.66V291.071ZM281.795 301.173C281.795 302.005 281.921 302.557 282.173 302.828C282.424 303.099 282.947 303.234 283.74 303.234V305.411C283.063 305.508 282.502 305.557 282.057 305.557C280.876 305.557 280.025 305.218 279.502 304.541C278.999 303.863 278.747 302.741 278.747 301.173V284.25H281.795V301.173ZM302.054 284.25V305.586H298.802V287.501H296.799V284.25H302.054ZM321.853 284.25L321.446 285.062L311.373 305.586H307.745L316.599 287.501H305.974V284.25H321.853ZM85.3247 319.25V340.586H82.0735V322.501H80.0705V319.25H85.3247ZM102.279 321.485C102.937 322.259 103.421 323.072 103.73 323.923C104.04 324.775 104.224 325.636 104.282 326.507C104.359 327.358 104.398 328.49 104.398 329.903C104.398 331.335 104.359 332.487 104.282 333.358C104.224 334.209 104.04 335.061 103.73 335.912C103.421 336.744 102.937 337.547 102.279 338.321C100.963 339.831 99.1439 340.586 96.8216 340.586C94.4606 340.586 92.6415 339.831 91.3642 338.321C90.7062 337.547 90.2224 336.744 89.9128 335.912C89.6031 335.061 89.4096 334.209 89.3322 333.358C89.2742 332.487 89.2451 331.335 89.2451 329.903C89.2451 328.49 89.2742 327.358 89.3322 326.507C89.4096 325.636 89.6031 324.775 89.9128 323.923C90.2224 323.072 90.7062 322.259 91.3642 321.485C92.6608 319.995 94.4799 319.25 96.8216 319.25C99.1439 319.25 100.963 319.995 102.279 321.485ZM101.147 327.755C101.147 325.955 100.798 324.639 100.102 323.807C99.6954 323.323 99.231 322.946 98.7084 322.675C98.2053 322.385 97.5763 322.24 96.8216 322.24C96.0475 322.24 95.3992 322.385 94.8767 322.675C94.3735 322.946 93.9187 323.323 93.5123 323.807C92.835 324.659 92.4963 325.975 92.4963 327.755V332.08C92.4963 333.861 92.835 335.177 93.5123 336.028C93.9187 336.512 94.3735 336.899 94.8767 337.189C95.3992 337.46 96.0475 337.596 96.8216 337.596C97.5763 337.596 98.2053 337.46 98.7084 337.189C99.231 336.899 99.6954 336.512 100.102 336.028C100.798 335.196 101.147 333.88 101.147 332.08V327.755ZM126.861 340.586H123.291L122.043 337.276H111.854L110.605 340.586H106.861L114.873 319.25H118.85L126.861 340.586ZM116.992 323.72L113.102 333.967H120.823L116.992 323.72ZM151.116 319.25V340.586H147.952V324.562L141.131 339.221H139.302L138.866 338.06L138.402 336.957L132.712 324.649V340.586H129.316V319.25H134.077L140.231 332.864L146.588 319.25H151.116ZM177.272 331.964V334.693H165.921V331.964H177.272ZM204.026 332.864H207.016V336.144H204.026V340.586H200.775V336.144H190.905V333.387L190.934 333.358L200.398 319.25H204.026V332.864ZM200.775 324.097L194.882 332.864H200.775V324.097ZM218.505 319.25C219.821 319.25 221.04 319.588 222.162 320.266C223.285 320.924 224.175 321.814 224.833 322.936C225.51 324.059 225.849 325.278 225.849 326.594C225.849 327.832 225.51 329.003 224.833 330.106C224.175 331.19 223.285 332.061 222.162 332.719C221.04 333.377 219.821 333.706 218.505 333.706H218.272H213.163V340.586H210.057V319.25H217.692H218.505ZM218.272 330.368C219.008 330.368 219.675 330.193 220.275 329.845C220.895 329.477 221.378 328.994 221.727 328.394C222.094 327.774 222.278 327.097 222.278 326.362C222.278 325.626 222.094 324.959 221.727 324.359C221.378 323.739 220.895 323.256 220.275 322.907C219.675 322.54 219.008 322.356 218.272 322.356H213.163V330.368H218.272ZM250.699 319.25V340.586H247.535V324.562L240.713 339.221H238.884L238.449 338.06L237.985 336.957L232.295 324.649V340.586H228.899V319.25H233.659L239.813 332.864L246.171 319.25H250.699ZM273.951 319.25C275.267 319.25 276.487 319.588 277.609 320.266C278.732 320.924 279.622 321.814 280.28 322.936C280.957 324.059 281.296 325.278 281.296 326.594C281.296 327.832 280.957 329.003 280.28 330.106C279.622 331.19 278.732 332.061 277.609 332.719C276.487 333.377 275.267 333.706 273.951 333.706H273.719H268.61V340.586H265.504V319.25H273.139H273.951ZM273.719 330.368C274.455 330.368 275.122 330.193 275.722 329.845C276.341 329.477 276.825 328.994 277.174 328.394C277.541 327.774 277.725 327.097 277.725 326.362C277.725 325.626 277.541 324.959 277.174 324.359C276.825 323.739 276.341 323.256 275.722 322.907C275.122 322.54 274.455 322.356 273.719 322.356H268.61V330.368H273.719ZM291.893 319.25C293.712 319.25 295.386 319.724 296.915 320.672C298.444 321.601 299.653 322.888 300.543 324.533C301.434 326.158 301.879 327.949 301.879 329.903C301.879 331.896 301.443 333.706 300.572 335.331C299.721 336.957 298.531 338.244 297.002 339.192C295.492 340.121 293.789 340.586 291.893 340.586H284.346V319.25H291.893ZM292.59 337.48C293.77 337.402 294.805 337.044 295.696 336.406C296.586 335.748 297.283 334.848 297.786 333.706C298.289 332.564 298.54 331.229 298.54 329.7C298.54 327.532 297.989 325.8 296.886 324.504C295.802 323.188 294.37 322.472 292.59 322.356H292.096H287.452V337.48H291.893H292.59ZM319.241 319.25V322.356H312.796V340.586H309.69V322.356H303.478V319.25H319.241Z" fill="#97A1AB"/>
</g>
<defs>
<filter id="filter0_f" x="354.831" y="208.841" width="898.839" height="465.138" filterUnits="userSpaceOnUse" color-interpolation-filters="sRGB">
<feFlood flood-opacity="0" result="BackgroundImageFix"/>
<feBlend mode="normal" in="SourceGraphic" in2="BackgroundImageFix" result="shape"/>
<feGaussianBlur stdDeviation="5.55227" result="effect1_foregroundBlur"/>
</filter>
<filter id="filter1_f" x="366.918" y="152.37" width="898.839" height="465.138" filterUnits="userSpaceOnUse" color-interpolation-filters="sRGB">
<feFlood flood-opacity="0" result="BackgroundImageFix"/>
<feBlend mode="normal" in="SourceGraphic" in2="BackgroundImageFix" result="shape"/>
<feGaussianBlur stdDeviation="5.55227" result="effect1_foregroundBlur"/>
</filter>
<filter id="filter2_f" x="534.893" y="340.493" width="169.467" height="169.467" filterUnits="userSpaceOnUse" color-interpolation-filters="sRGB">
<feFlood flood-opacity="0" result="BackgroundImageFix"/>
<feBlend mode="normal" in="SourceGraphic" in2="BackgroundImageFix" result="shape"/>
<feGaussianBlur stdDeviation="3.15635" result="effect1_foregroundBlur"/>
</filter>
<linearGradient id="paint0_linear" x1="886.302" y1="144.092" x2="599.911" y2="567.179" gradientUnits="userSpaceOnUse">
<stop stop-color="#2A3237"/>
<stop offset="1" stop-color="#50606C"/>
</linearGradient>
<linearGradient id="paint1_linear" x1="886.302" y1="144.092" x2="599.911" y2="567.179" gradientUnits="userSpaceOnUse">
<stop stop-color="#2A3237"/>
<stop offset="1" stop-color="#50606C"/>
</linearGradient>
<linearGradient id="paint2_linear" x1="424.627" y1="418.852" x2="1114.45" y2="632.934" gradientUnits="userSpaceOnUse">
<stop stop-color="#5D7586" stop-opacity="0.44"/>
<stop offset="1" stop-color="#6EAAAE" stop-opacity="0"/>
</linearGradient>
<linearGradient id="paint3_linear" x1="886.302" y1="144.092" x2="599.911" y2="567.179" gradientUnits="userSpaceOnUse">
<stop stop-color="#2A3237"/>
<stop offset="1" stop-color="#50606C"/>
</linearGradient>
<linearGradient id="paint4_linear" x1="1195.96" y1="362.381" x2="506.142" y2="576.463" gradientUnits="userSpaceOnUse">
<stop stop-color="#798288" stop-opacity="0.44"/>
<stop offset="1" stop-color="#9FBEC0" stop-opacity="0"/>
</linearGradient>
<linearGradient id="paint5_linear" x1="800.354" y1="385.818" x2="832.987" y2="385.818" gradientUnits="userSpaceOnUse">
<stop stop-color="#49596C"/>
<stop offset="0.302083" stop-color="#C1C7CE"/>
<stop offset="1" stop-color="#DEE1E2"/>
</linearGradient>
<linearGradient id="paint6_linear" x1="798.702" y1="480.373" x2="840.731" y2="489.953" gradientUnits="userSpaceOnUse">
<stop stop-color="#A1AAB3"/>
<stop offset="1" stop-color="#C4CACF"/>
</linearGradient>
<linearGradient id="paint7_linear" x1="798.499" y1="522.766" x2="798.499" y2="646.785" gradientUnits="userSpaceOnUse">
<stop stop-color="#E6EAEF"/>
<stop offset="0.046978" stop-color="#9CAABB"/>
<stop offset="0.958333" stop-color="#8C949D"/>
<stop offset="1" stop-color="#B4BCC5"/>
</linearGradient>
<linearGradient id="paint8_linear" x1="798.702" y1="490.699" x2="840.732" y2="500.279" gradientUnits="userSpaceOnUse">
<stop stop-color="#A1AAB3"/>
<stop offset="1" stop-color="#C4CACF"/>
</linearGradient>
<linearGradient id="paint9_linear" x1="805.814" y1="172.251" x2="805.814" y2="269.688" gradientUnits="userSpaceOnUse">
<stop stop-color="#F1F1F1"/>
<stop offset="0.0364583" stop-color="#AAB4BE"/>
<stop offset="0.286458" stop-color="#A2ACB6"/>
<stop offset="0.390625" stop-color="#8797A6"/>
<stop offset="0.953125" stop-color="#72818F"/>
<stop offset="1" stop-color="#6D7C8C"/>
</linearGradient>
<linearGradient id="paint10_linear" x1="837.613" y1="209.873" x2="801.099" y2="256.988" gradientUnits="userSpaceOnUse">
<stop stop-color="#636E74" stop-opacity="0.74"/>
<stop offset="1" stop-color="#576B77" stop-opacity="0.79"/>
</linearGradient>
<linearGradient id="paint11_linear" x1="802.973" y1="227.351" x2="612.161" y2="227.351" gradientUnits="userSpaceOnUse">
<stop stop-color="#BEC6C9"/>
<stop offset="0.53125" stop-color="#C4CDD0"/>
<stop offset="1" stop-color="#CFD5D7"/>
</linearGradient>
<linearGradient id="paint12_linear" x1="603.372" y1="192.806" x2="603.372" y2="227.351" gradientUnits="userSpaceOnUse">
<stop stop-color="#EBEDEE"/>
<stop offset="0.510417" stop-color="#D9DEDF"/>
<stop offset="1" stop-color="#698289"/>
</linearGradient>
<linearGradient id="paint13_linear" x1="1050.77" y1="192.806" x2="1050.77" y2="227.351" gradientUnits="userSpaceOnUse">
<stop stop-color="#EBEDEE"/>
<stop offset="0.510417" stop-color="#ACBFC5"/>
<stop offset="1" stop-color="#BAC5C9"/>
</linearGradient>
<linearGradient id="paint14_linear" x1="851.148" y1="227.351" x2="1041.96" y2="227.351" gradientUnits="userSpaceOnUse">
<stop stop-color="#BEC6C9"/>
<stop offset="0.53125" stop-color="#C4CDD0"/>
<stop offset="1" stop-color="#CFD5D7"/>
</linearGradient>
<radialGradient id="paint15_radial" cx="0" cy="0" r="1" gradientUnits="userSpaceOnUse" gradientTransform="translate(651.288 397.936) rotate(107.084) scale(107.775)">
<stop stop-color="#E0E3E7"/>
<stop offset="0.723958" stop-color="white"/>
<stop offset="0.878304" stop-color="#F2F2F2"/>
<stop offset="0.936622" stop-color="#CFD0D9"/>
</radialGradient>
<radialGradient id="paint16_radial" cx="0" cy="0" r="1" gradientUnits="userSpaceOnUse" gradientTransform="translate(654.99 391.767) rotate(109.378) scale(115.745 111.097)">
<stop stop-color="#4CE98A"/>
<stop offset="0.583333" stop-color="#38FFE7"/>
<stop offset="0.895833" stop-color="#F097FF"/>
<stop offset="1" stop-color="#FF4FB8"/>
</radialGradient>
<radialGradient id="paint17_radial" cx="0" cy="0" r="1" gradientUnits="userSpaceOnUse" gradientTransform="translate(619.626 425.226) rotate(90) scale(87.2423)">
<stop offset="0.786458" stop-color="white" stop-opacity="0"/>
<stop offset="0.901042" stop-color="white" stop-opacity="0.35"/>
<stop offset="1" stop-color="white" stop-opacity="0"/>
</radialGradient>
<radialGradient id="paint18_radial" cx="0" cy="0" r="1" gradientUnits="userSpaceOnUse" gradientTransform="translate(658.701 392.361) rotate(90) scale(24.914 18.1703)">
<stop stop-color="white" stop-opacity="0.28"/>
<stop offset="0.489583" stop-color="white" stop-opacity="0.06"/>
<stop offset="1" stop-color="white" stop-opacity="0"/>
</radialGradient>
<radialGradient id="paint19_radial" cx="0" cy="0" r="1" gradientUnits="userSpaceOnUse" gradientTransform="translate(658.702 379.783) rotate(90) scale(2.32439)">
<stop stop-color="white" stop-opacity="0.57"/>
<stop offset="1" stop-color="white" stop-opacity="0"/>
</radialGradient>
<linearGradient id="paint20_linear" x1="1048.8" y1="330.542" x2="1048.8" y2="355.482" gradientUnits="userSpaceOnUse">
<stop stop-color="#F0F5F5"/>
<stop offset="0.411458" stop-color="#DDE2E3"/>
<stop offset="1" stop-color="#AEB2B7"/>
</linearGradient>
<linearGradient id="paint21_linear" x1="1048.8" y1="474.063" x2="1048.8" y2="499.003" gradientUnits="userSpaceOnUse">
<stop stop-color="#F0F5F5"/>
<stop offset="0.411458" stop-color="#DDE2E3"/>
<stop offset="1" stop-color="#AEB2B7"/>
</linearGradient>
<linearGradient id="paint22_linear" x1="1050.94" y1="374.944" x2="995.676" y2="374.944" gradientUnits="userSpaceOnUse">
<stop stop-color="#61FFAA"/>
<stop offset="0.479167" stop-color="#81F0FF"/>
<stop offset="0.802083" stop-color="#FC81FF"/>
<stop offset="1" stop-color="#FF81B6"/>
</linearGradient>
<linearGradient id="paint23_linear" x1="67.5786" y1="7.03935" x2="-5.97901e-07" y2="7.03934" gradientUnits="userSpaceOnUse">
<stop stop-color="#61FFAA"/>
<stop offset="0.479167" stop-color="#81F0FF"/>
<stop offset="0.802083" stop-color="#FC81FF"/>
<stop offset="1" stop-color="#FF81B6"/>
</linearGradient>
<linearGradient id="paint24_linear" x1="1073.06" y1="402.22" x2="995.676" y2="402.22" gradientUnits="userSpaceOnUse">
<stop stop-color="#61FFAA"/>
<stop offset="0.479167" stop-color="#81F0FF"/>
<stop offset="0.802083" stop-color="#FC81FF"/>
<stop offset="1" stop-color="#FF81B6"/>
</linearGradient>
<linearGradient id="paint25_linear" x1="67.5786" y1="7.03935" x2="-5.97901e-07" y2="7.03934" gradientUnits="userSpaceOnUse">
<stop stop-color="#61FFAA"/>
<stop offset="0.479167" stop-color="#81F0FF"/>
<stop offset="0.802083" stop-color="#FC81FF"/>
<stop offset="1" stop-color="#FF81B6"/>
</linearGradient>
<linearGradient id="paint26_linear" x1="1050.94" y1="429.497" x2="995.676" y2="429.497" gradientUnits="userSpaceOnUse">
<stop stop-color="#61FFAA"/>
<stop offset="0.479167" stop-color="#81F0FF"/>
<stop offset="0.802083" stop-color="#FC81FF"/>
<stop offset="1" stop-color="#FF81B6"/>
</linearGradient>
<linearGradient id="paint27_linear" x1="67.5786" y1="7.03935" x2="-5.97901e-07" y2="7.03934" gradientUnits="userSpaceOnUse">
<stop stop-color="#61FFAA"/>
<stop offset="0.479167" stop-color="#81F0FF"/>
<stop offset="0.802083" stop-color="#FC81FF"/>
<stop offset="1" stop-color="#FF81B6"/>
</linearGradient>
<linearGradient id="paint28_linear" x1="1073.06" y1="456.773" x2="995.676" y2="456.773" gradientUnits="userSpaceOnUse">
<stop stop-color="#61FFAA"/>
<stop offset="0.479167" stop-color="#81F0FF"/>
<stop offset="0.802083" stop-color="#FC81FF"/>
<stop offset="1" stop-color="#FF81B6"/>
</linearGradient>
<linearGradient id="paint29_linear" x1="1044.68" y1="470.411" x2="995.676" y2="470.411" gradientUnits="userSpaceOnUse">
<stop stop-color="#61FFAA"/>
<stop offset="0.479167" stop-color="#81F0FF"/>
<stop offset="0.802083" stop-color="#FC81FF"/>
<stop offset="1" stop-color="#FF81B6"/>
</linearGradient>
<linearGradient id="paint30_linear" x1="511.194" y1="510.913" x2="757.74" y2="510.913" gradientUnits="userSpaceOnUse">
<stop stop-color="#89949D"/>
<stop offset="0.432292" stop-color="#E3E8ED"/>
<stop offset="1" stop-color="#F2F3F4"/>
</linearGradient>
<linearGradient id="paint31_linear" x1="606.225" y1="510.913" x2="606.225" y2="493.969" gradientUnits="userSpaceOnUse">
<stop stop-color="#727F86"/>
<stop offset="0.6875" stop-color="#95A5AE" stop-opacity="0"/>
</linearGradient>
<linearGradient id="paint32_linear" x1="932.006" y1="510.913" x2="1178.55" y2="510.913" gradientUnits="userSpaceOnUse">
<stop stop-color="#89949D"/>
<stop offset="0.432292" stop-color="#E3E8ED"/>
<stop offset="1" stop-color="#F2F3F4"/>
</linearGradient>
<linearGradient id="paint33_linear" x1="1027.04" y1="510.913" x2="1027.04" y2="493.969" gradientUnits="userSpaceOnUse">
<stop stop-color="#727F86"/>
<stop offset="0.6875" stop-color="#95A5AE" stop-opacity="0"/>
</linearGradient>
<clipPath id="clip0">
<rect width="1161.14" height="635" fill="white"/>
</clipPath>
</defs>
</svg>
