<svg width="1838" height="1005" viewBox="0 0 1838 1005" fill="none" xmlns="http://www.w3.org/2000/svg">
<g clip-path="url(#clip0)">
<rect width="1837.71" height="1005" fill="white"/>
<path d="M780.463 785.941C659.064 613.316 828.367 550.151 884.256 305.596C940.145 61.0418 1338.46 38.4423 1457.11 241.838C1608.51 501.383 1846.09 476.395 1748.39 708.7C1639.77 966.976 1517.69 735.16 1276.31 853.436C1034.93 971.712 869.024 911.872 780.463 785.941Z" fill="url(#paint0_linear)"/>
<mask id="mask0" mask-type="alpha" maskUnits="userSpaceOnUse" x="737" y="104" width="1035" height="814">
<path d="M780.463 785.941C659.064 613.316 828.367 550.151 884.256 305.596C940.145 61.0418 1338.46 38.4423 1457.11 241.838C1608.51 501.383 1846.09 476.395 1748.39 708.7C1639.77 966.976 1517.69 735.16 1276.31 853.436C1034.93 971.712 869.024 911.872 780.463 785.941Z" fill="url(#paint1_linear)"/>
</mask>
<g mask="url(#mask0)">
<g filter="url(#filter0_f)">
<path d="M579.157 1049.12V511.672C616.155 517.514 731.772 637.199 1122 637.199C1512.23 637.199 1866.3 408.467 1966.58 348.102V1049.12H579.157Z" fill="url(#paint2_linear)"/>
</g>
</g>
<mask id="mask1" mask-type="alpha" maskUnits="userSpaceOnUse" x="737" y="104" width="1035" height="814">
<path d="M780.463 785.941C659.064 613.316 828.367 550.151 884.256 305.596C940.145 61.0418 1338.46 38.4423 1457.11 241.838C1608.51 501.383 1846.09 476.395 1748.39 708.7C1639.77 966.976 1517.69 735.16 1276.31 853.436C1034.93 971.712 869.024 911.872 780.463 785.941Z" fill="url(#paint3_linear)"/>
</mask>
<g mask="url(#mask1)">
<g filter="url(#filter1_f)">
<path d="M1985.71 959.741V422.298C1948.71 428.139 1833.09 547.824 1442.86 547.824C1052.63 547.824 698.571 319.093 598.287 258.728V959.741H1985.71Z" fill="url(#paint4_linear)"/>
</g>
</g>
<rect x="1266.7" y="383.021" width="51.6476" height="455.208" fill="url(#paint5_linear)"/>
<rect x="1254.43" y="758.224" width="76.1813" height="12.4017" rx="6.20085" fill="#E2EAEB"/>
<path fill-rule="evenodd" clip-rule="evenodd" d="M1256.03 760.276C1258.49 764.587 1263.68 764.767 1269.04 764.767L1330.61 764.767C1330.43 768.032 1327.72 770.625 1324.41 770.625H1260.64C1257.21 770.625 1254.43 767.849 1254.43 764.424C1254.43 762.829 1255.04 761.375 1256.03 760.276Z" fill="url(#paint6_linear)"/>
<path fill-rule="evenodd" clip-rule="evenodd" d="M1266.7 780.767V770.625H1318.15C1292.9 770.625 1279.15 774.133 1266.7 780.767Z" fill="#334352" fill-opacity="0.35"/>
<path fill-rule="evenodd" clip-rule="evenodd" d="M1263.77 827.369H1239.13C1234.3 827.369 1230.16 830.824 1229.29 835.576L1197.3 1011.88C1196.18 1018.01 1200.89 1023.65 1207.13 1023.65H1263.77H1320.4C1326.64 1023.65 1331.35 1018.01 1330.24 1011.88L1298.24 835.576C1297.37 830.824 1293.24 827.369 1288.41 827.369H1263.77H1263.77Z" fill="url(#paint7_linear)"/>
<path fill-rule="evenodd" clip-rule="evenodd" d="M1317.67 827.369H1293.03C1288.2 827.369 1284.06 830.824 1283.2 835.576L1251.2 1011.88C1250.09 1018.01 1254.8 1023.65 1261.03 1023.65H1317.67H1374.31C1380.54 1023.65 1385.25 1018.01 1384.14 1011.88L1352.14 835.576C1351.28 830.824 1347.14 827.369 1342.31 827.369H1317.67H1317.67Z" fill="#DEE1E2"/>
<rect x="1254.43" y="774.566" width="76.1813" height="12.4017" rx="6.20085" fill="#E2EAEB"/>
<path fill-rule="evenodd" clip-rule="evenodd" d="M1256.03 776.619C1258.49 780.93 1263.68 781.11 1269.04 781.11L1330.61 781.11C1330.43 784.375 1327.72 786.968 1324.41 786.968H1260.64C1257.21 786.968 1254.43 784.192 1254.43 780.767C1254.43 779.172 1255.04 777.718 1256.03 776.619Z" fill="url(#paint8_linear)"/>
<path fill-rule="evenodd" clip-rule="evenodd" d="M1266.7 452.778V426.828H1318.15C1292.9 426.828 1279.15 435.804 1266.7 452.778Z" fill="#405365" fill-opacity="0.37"/>
<path fill-rule="evenodd" clip-rule="evenodd" d="M1266.7 797.11V786.968H1318.15C1292.9 786.968 1279.15 790.476 1266.7 797.11Z" fill="#334352" fill-opacity="0.35"/>
<path d="M1316.75 278.204L1329.03 324.903C1329.28 325.865 1329.34 326.868 1329.2 327.853L1316.19 420.379C1315.67 424.078 1312.5 426.828 1308.77 426.828L1261.63 426.828C1257.89 426.828 1254.73 424.078 1254.21 420.379L1241.19 327.853C1241.05 326.868 1241.11 325.865 1241.36 324.903L1253.64 278.204C1254.51 274.912 1257.49 272.617 1260.89 272.617L1309.5 272.617C1312.91 272.617 1315.89 274.912 1316.75 278.204Z" fill="url(#paint9_linear)"/>
<path d="M1331.41 278.204L1343.69 324.903C1343.94 325.865 1344 326.868 1343.86 327.853L1330.84 420.379C1330.32 424.078 1327.16 426.828 1323.42 426.828H1295.99C1292.25 426.828 1289.09 424.078 1288.57 420.379L1275.55 327.853C1275.41 326.868 1275.47 325.865 1275.73 324.903L1288.01 278.204C1288.87 274.912 1291.85 272.617 1295.25 272.617H1324.16C1327.56 272.617 1330.54 274.912 1331.41 278.204Z" fill="#DEE1E2"/>
<path d="M972.379 334.858L837.521 783.061" stroke="#D6DDDF" stroke-width="4.1845"/>
<path d="M1638.39 334.858L1503.53 783.061" stroke="#D6DDDF" stroke-width="4.1845"/>
<path fill-rule="evenodd" clip-rule="evenodd" d="M1340.73 313.646L1343.69 324.903C1343.94 325.865 1344 326.867 1343.86 327.852L1343.14 332.984L1278.68 352.473L1249.93 389.981L1241.19 327.852C1241.05 326.868 1241.11 325.865 1241.36 324.903L1244.32 313.646H1340.73Z" fill="url(#paint10_linear)" fill-opacity="0.34"/>
<path d="M992.738 332.707C1072.61 332.707 1111.37 280.63 1247.67 280.63V332.707C1131.86 332.707 1097.45 359.823 992.738 359.823C958.692 359.823 958.589 359.823 954.943 359.823V332.708C959.779 332.708 961.548 332.707 992.738 332.707Z" fill="url(#paint11_linear)"/>
<path d="M1011.46 332.707C1091.33 332.707 1130.09 280.63 1266.39 280.63V332.707C1150.58 332.707 1116.17 359.823 1011.46 359.823C977.411 359.823 977.308 359.823 973.662 359.823V332.708C978.498 332.708 980.266 332.707 1011.46 332.707Z" fill="#DEE1E2"/>
<path fill-rule="evenodd" clip-rule="evenodd" d="M973.106 346.296C974.936 342.243 975.984 337.524 975.984 332.487C975.984 327.449 974.936 322.73 973.106 318.678V305.15H954.952C954.949 305.15 954.946 305.15 954.943 305.15C954.943 305.15 954.943 305.15 954.943 305.15C943.322 305.15 933.902 317.389 933.902 332.487C933.902 347.584 943.322 359.823 954.943 359.823C954.96 359.823 954.977 359.823 954.993 359.823H973.106V346.296Z" fill="url(#paint12_linear)"/>
<ellipse cx="973.661" cy="332.487" rx="21.0414" ry="27.3366" fill="#DEE1E2"/>
<rect x="1266.39" y="280.63" width="60.921" height="52.0325" fill="#DEE1E2"/>
<path fill-rule="evenodd" clip-rule="evenodd" d="M1681.2 346.297C1683.03 342.244 1684.08 337.525 1684.08 332.487C1684.08 327.449 1683.03 322.729 1681.2 318.677V305.15H1663.07C1663.06 305.15 1663.05 305.15 1663.04 305.15C1651.41 305.15 1641.99 317.389 1641.99 332.487C1641.99 347.584 1651.41 359.823 1663.04 359.823C1663.05 359.823 1663.06 359.823 1663.08 359.823H1681.2V346.297Z" fill="url(#paint13_linear)"/>
<ellipse cx="1681.75" cy="332.487" rx="21.0414" ry="27.3366" fill="#DEE1E2"/>
<path d="M1625.2 332.708C1545.33 332.708 1506.57 280.63 1370.27 280.63V332.707C1486.08 332.707 1520.49 359.823 1625.2 359.823C1659.25 359.823 1659.35 359.823 1663 359.823V332.708C1658.16 332.708 1656.39 332.708 1625.2 332.708Z" fill="url(#paint14_linear)"/>
<path d="M1643.16 332.708C1563.28 332.708 1524.53 280.63 1388.23 280.63V332.707C1504.04 332.707 1538.45 359.823 1643.16 359.823C1677.21 359.823 1677.31 359.823 1680.95 359.823V332.708C1676.12 332.708 1674.35 332.708 1643.16 332.708Z" fill="#DEE1E2"/>
<rect width="60.921" height="52.0325" transform="matrix(-1 0 0 1 1388.23 280.63)" fill="#DEE1E2"/>
<circle cx="980.669" cy="672.995" r="119.855" fill="url(#paint15_radial)"/>
<path fill-rule="evenodd" clip-rule="evenodd" d="M915.441 572.427C922.835 579.449 941.413 577.199 960.514 573.379C975.134 570.455 973.955 566.458 973.086 563.511C972.449 561.35 971.979 559.755 978.019 559.56C985.487 559.319 990.606 556.571 993.685 553.839C989.409 553.378 985.067 553.141 980.669 553.141C956.613 553.141 934.212 560.228 915.441 572.427ZM862.79 694.787C861.492 687.721 860.814 680.437 860.814 672.995C860.814 638.769 875.161 607.893 898.168 586.053C906.482 589.308 907.697 598.691 904.315 604.703C902.243 608.388 899.824 609.194 897.06 610.116C894.296 611.037 891.187 612.073 887.732 616.219C885.028 619.464 882.677 620.31 880.623 621.049C877.429 622.199 874.954 623.089 872.992 632.342C871.737 638.258 870.342 642.919 869.079 647.138C867.098 653.759 865.442 659.293 865.161 666.89C864.971 672.015 863.958 683.143 862.79 694.787ZM1014.78 787.926C1003.97 791.13 992.52 792.85 980.669 792.85C959.153 792.85 938.962 787.181 921.507 777.255C924.302 777.064 927.755 776.984 931.954 776.984H993.219C1006.02 776.984 1012.17 782.229 1014.78 787.926ZM1090.9 720.134C1081.63 741.784 1066.16 760.152 1046.74 773.011C1047.6 771.412 1048.39 769.987 1049.06 768.834C1052.28 763.364 1051.11 756.799 1050.04 750.781L1050.04 750.781C1049.54 747.968 1049.06 745.274 1049.06 742.868V742.868C1049.06 738.984 1049.06 737.222 1049.83 735.913C1050.47 734.826 1051.64 734.052 1053.79 732.635C1054.08 732.44 1054.4 732.232 1054.73 732.01C1060.39 728.233 1054.73 720.207 1049.06 718.319C1048.04 717.979 1047.18 717.761 1046.38 717.561C1042.75 716.651 1040.58 716.107 1032.07 706.044C1025.17 697.888 1027.23 706.201 1029.53 715.467C1030.69 720.145 1031.91 725.066 1032.07 728.233C1032.51 737.122 1023.33 712.121 1019.5 701.677L1019.5 701.676L1019.5 701.671C1019.26 701.023 1019.04 700.431 1018.85 699.907C1016.28 692.928 1009.99 689.664 1004.44 686.781L1004.44 686.78C1002.85 685.958 1001.33 685.166 999.966 684.328C993.829 680.551 992.884 676.302 990.524 656.002C981.754 646.355 970.632 645.759 961.079 645.246C955.203 644.931 949.922 644.648 946.146 642.311C938.308 637.459 944.634 629.361 951.127 621.049C952.846 618.848 954.578 616.632 956.06 614.457C960.989 607.228 969.577 609.833 977.526 612.244C980.998 613.297 984.349 614.313 987.219 614.457C993.261 614.759 996.79 608.681 999.785 603.523C1001.47 600.621 1002.99 598.009 1004.69 596.989C1006 596.204 1008.68 596.253 1011.89 596.312C1020.23 596.466 1032.07 596.684 1032.07 582.354C1032.07 567.282 1050.62 587.398 1062.42 600.197C1066.14 604.236 1069.2 607.546 1070.78 608.792C1077.39 613.985 1077.39 622.955 1070.78 635.229C1066.34 643.475 1067.87 647.034 1069.35 650.486C1070.07 652.172 1070.78 653.832 1070.78 656.002C1070.78 662.611 1067 684.328 1058.51 693.298C1052.13 700.028 1055.06 703.834 1057.11 706.512C1057.8 707.403 1058.39 708.17 1058.51 708.877C1058.98 711.71 1075.5 718.319 1082.11 718.319C1084.52 718.319 1087.74 719.102 1090.9 720.134Z" fill="url(#paint16_radial)"/>
<g filter="url(#filter2_f)">
<circle cx="980.669" cy="672.995" r="124.115" fill="url(#paint17_radial)"/>
</g>
<ellipse cx="1042.51" cy="620.98" rx="28.7577" ry="39.4309" transform="rotate(-32.0273 1042.51 620.98)" fill="url(#paint18_radial)"/>
<circle cx="1042.51" cy="601.074" r="3.67876" fill="url(#paint19_radial)"/>
<rect x="1561.15" y="542.877" width="157.125" height="227.148" fill="#DEE2E4"/>
<path fill-rule="evenodd" clip-rule="evenodd" d="M1731.65 523.141H1574.79V562.614H1731.63C1731.64 562.614 1731.65 562.614 1731.65 562.614C1739.04 562.614 1745.03 553.777 1745.03 542.877C1745.03 531.977 1739.04 523.141 1731.65 523.141Z" fill="url(#paint20_linear)"/>
<path fill-rule="evenodd" clip-rule="evenodd" d="M1731.65 789.761C1739.04 789.761 1745.03 780.925 1745.03 770.025C1745.03 759.124 1739.04 750.288 1731.65 750.288C1731.64 750.288 1731.64 750.288 1731.63 750.288H1574.79V789.761L1731.65 789.761Z" fill="url(#paint21_linear)"/>
<ellipse cx="1574.53" cy="542.877" rx="13.3807" ry="19.7364" fill="#DCE0E1"/>
<ellipse cx="1574.53" cy="770.025" rx="13.3807" ry="19.7364" fill="#DCE0E1"/>
<rect x="1575.83" y="582.274" width="87.4652" height="11.1411" rx="5.57056" fill="url(#paint22_linear)"/>
<rect width="106.955" height="11.1411" rx="5.57056" transform="matrix(-1 0 0 1 1682.79 603.859)" fill="url(#paint23_linear)"/>
<rect x="1575.83" y="625.444" width="122.479" height="11.1411" rx="5.57056" fill="url(#paint24_linear)"/>
<rect width="106.955" height="11.1411" rx="5.57056" transform="matrix(-1 0 0 1 1682.79 647.029)" fill="url(#paint25_linear)"/>
<rect x="1575.83" y="668.613" width="87.4652" height="11.1411" rx="5.57056" fill="url(#paint26_linear)"/>
<rect width="106.955" height="11.1411" rx="5.57056" transform="matrix(-1 0 0 1 1682.79 690.198)" fill="url(#paint27_linear)"/>
<rect x="1575.83" y="711.783" width="122.479" height="11.1411" rx="5.57056" fill="url(#paint28_linear)"/>
<rect x="1575.83" y="733.368" width="77.5558" height="11.1411" rx="5.57056" fill="url(#paint29_linear)"/>
<path fill-rule="evenodd" clip-rule="evenodd" d="M975.985 808.611C1028.48 808.611 1079.53 802.408 1128.43 790.696C1134.04 789.353 1133.02 781.793 1127.26 781.793H824.712C818.948 781.793 817.931 789.353 823.536 790.696C872.442 802.408 923.489 808.611 975.985 808.611Z" fill="url(#paint30_linear)"/>
<path fill-rule="evenodd" clip-rule="evenodd" d="M975.985 808.611C1028.48 808.611 1079.53 802.408 1128.43 790.696C1134.04 789.353 1133.02 781.793 1127.26 781.793H824.712C818.948 781.793 817.931 789.353 823.536 790.696C872.442 802.408 923.489 808.611 975.985 808.611Z" fill="url(#paint31_linear)"/>
<path fill-rule="evenodd" clip-rule="evenodd" d="M1641.99 808.611C1694.49 808.611 1745.54 802.408 1794.44 790.696C1800.05 789.353 1799.03 781.793 1793.27 781.793H1490.72C1484.96 781.793 1483.94 789.353 1489.55 790.696C1538.45 802.408 1589.5 808.611 1641.99 808.611Z" fill="url(#paint32_linear)"/>
<path fill-rule="evenodd" clip-rule="evenodd" d="M1641.99 808.611C1694.49 808.611 1745.54 802.408 1794.44 790.696C1800.05 789.353 1799.03 781.793 1793.27 781.793H1490.72C1484.96 781.793 1483.94 789.353 1489.55 790.696C1538.45 802.408 1589.5 808.611 1641.99 808.611Z" fill="url(#paint33_linear)"/>
<path d="M166.087 185.18C171.468 185.18 176.453 186.565 181.042 189.334C185.631 192.025 189.271 195.664 191.961 200.253C194.73 204.843 196.115 209.827 196.115 215.208C196.115 220.272 194.73 225.059 191.961 229.569C189.271 234 185.631 237.56 181.042 240.25C176.453 242.941 171.468 244.286 166.087 244.286H165.138H144.249V272.414H131.55V185.18H162.764H166.087ZM165.138 230.637C168.145 230.637 170.874 229.925 173.327 228.501C175.859 226.997 177.837 225.019 179.262 222.566C180.765 220.034 181.517 217.265 181.517 214.258C181.517 211.252 180.765 208.522 179.262 206.069C177.837 203.537 175.859 201.559 173.327 200.135C170.874 198.631 168.145 197.88 165.138 197.88H144.249V230.637H165.138ZM229.496 213.071C224.195 213.071 219.25 214.456 214.66 217.225C210.071 219.916 206.392 223.595 203.623 228.263C200.853 232.852 199.469 237.798 199.469 243.099C199.469 248.479 200.853 253.504 203.623 258.172C206.392 262.761 210.071 266.44 214.66 269.21C219.25 271.9 224.195 273.245 229.496 273.245C234.877 273.245 239.782 271.9 244.213 269.21C248.723 266.44 252.284 262.761 254.895 258.172C257.506 253.504 258.812 248.479 258.812 243.099C258.812 237.719 257.506 232.734 254.895 228.145C252.284 223.555 248.723 219.916 244.213 217.225C239.782 214.456 234.877 213.071 229.496 213.071ZM212.168 243.099C212.168 240.171 212.88 237.481 214.304 235.028C215.808 232.496 217.825 230.518 220.357 229.094C222.889 227.591 225.619 226.839 228.547 226.839C231.87 226.839 234.837 227.591 237.448 229.094C240.059 230.518 242.116 232.457 243.62 234.91C245.123 237.362 245.875 240.092 245.875 243.099C245.875 246.106 245.123 248.875 243.62 251.407C242.116 253.86 240.059 255.838 237.448 257.341C234.837 258.765 231.87 259.478 228.547 259.478C225.619 259.478 222.889 258.765 220.357 257.341C217.825 255.838 215.808 253.86 214.304 251.407C212.88 248.875 212.168 246.106 212.168 243.099ZM280.028 254.374C280.028 257.776 280.542 260.031 281.57 261.139C282.599 262.247 284.735 262.801 287.979 262.801V271.702C285.21 272.098 282.916 272.296 281.096 272.296C276.269 272.296 272.788 270.911 270.651 268.142C268.594 265.372 267.566 260.783 267.566 254.374V185.18H280.028V254.374ZM304.89 187.673C302.675 187.673 300.776 188.464 299.193 190.046C297.611 191.55 296.82 193.409 296.82 195.625C296.82 197.761 297.611 199.62 299.193 201.203C300.776 202.706 302.675 203.458 304.89 203.458C307.027 203.458 308.886 202.706 310.469 201.203C312.051 199.62 312.842 197.761 312.842 195.625C312.842 193.409 312.051 191.55 310.469 190.046C308.886 188.464 307.027 187.673 304.89 187.673ZM311.537 213.071H298.125V272.414H311.537V213.071ZM348.664 273.245C343.205 273.245 338.18 271.9 333.591 269.21C329.002 266.52 325.362 262.88 322.672 258.291C319.982 253.622 318.637 248.558 318.637 243.099C318.637 237.719 320.021 232.734 322.791 228.145C325.56 223.555 329.239 219.916 333.828 217.225C338.418 214.456 343.363 213.071 348.664 213.071C354.519 213.071 359.9 214.654 364.805 217.819C369.711 220.905 373.469 225.059 376.08 230.281L364.449 235.74C363.104 232.655 361.126 230.162 358.515 228.263C355.904 226.285 352.937 225.296 349.614 225.296C346.211 225.296 343.086 226.127 340.237 227.788C337.468 229.371 335.292 231.547 333.71 234.316C332.127 237.006 331.336 240.013 331.336 243.336C331.336 246.66 332.127 249.706 333.71 252.475C335.292 255.165 337.468 257.302 340.237 258.884C343.086 260.467 346.211 261.258 349.614 261.258C353.095 261.258 356.141 260.348 358.752 258.528C361.363 256.708 363.302 254.295 364.568 251.288L375.962 256.629C373.43 261.693 369.751 265.728 364.924 268.735C360.177 271.742 354.757 273.245 348.664 273.245ZM428.437 213.071H444.459L416.331 281.197C413.957 287.527 410.396 292.195 405.649 295.202C400.981 298.209 394.493 299.712 386.185 299.712H384.404V287.487H386.185C390.378 287.487 394.057 286.696 397.222 285.114C400.466 283.531 402.761 280.96 404.106 277.399L405.768 271.94L377.758 213.071H393.78L413.364 254.374L428.437 213.071ZM166.087 303.18C171.468 303.18 176.453 304.565 181.042 307.334C185.631 310.025 189.271 313.664 191.961 318.253C194.73 322.843 196.115 327.827 196.115 333.208C196.115 338.272 194.73 343.059 191.961 347.569C189.271 352 185.631 355.56 181.042 358.25C176.453 360.941 171.468 362.286 166.087 362.286H165.138H144.249V390.414H131.55V303.18H162.764H166.087ZM165.138 348.637C168.145 348.637 170.874 347.925 173.327 346.501C175.859 344.997 177.837 343.019 179.262 340.566C180.765 338.034 181.517 335.265 181.517 332.258C181.517 329.252 180.765 326.522 179.262 324.069C177.837 321.537 175.859 319.559 173.327 318.135C170.874 316.631 168.145 315.88 165.138 315.88H144.249V348.637H165.138ZM216.655 305.673C214.439 305.673 212.54 306.464 210.958 308.046C209.376 309.55 208.584 311.409 208.584 313.625C208.584 315.761 209.376 317.62 210.958 319.203C212.54 320.706 214.439 321.458 216.655 321.458C218.791 321.458 220.651 320.706 222.233 319.203C223.816 317.62 224.607 315.761 224.607 313.625C224.607 311.409 223.816 309.55 222.233 308.046C220.651 306.464 218.791 305.673 216.655 305.673ZM223.301 331.071H209.89V390.414H223.301V331.071ZM270.224 343.059H256.338V372.73C256.338 374.471 256.773 375.856 257.643 376.884C258.593 377.913 260.333 378.427 262.865 378.427H267.375V389.584C264.369 390.137 262.232 390.414 260.966 390.414C254.083 390.414 249.454 388.99 247.08 386.142C244.706 383.214 243.48 379.1 243.401 373.798V343.059H232.363V331.071H243.401V320.034L256.338 314.574V331.071H270.224V343.059ZM308.371 391.245C302.912 391.245 297.887 389.9 293.298 387.21C288.709 384.52 285.069 380.88 282.379 376.291C279.689 371.622 278.344 366.558 278.344 361.099C278.344 355.719 279.728 350.734 282.498 346.145C285.267 341.555 288.946 337.916 293.535 335.225C298.125 332.456 303.07 331.071 308.371 331.071C314.226 331.071 319.607 332.654 324.512 335.819C329.418 338.905 333.176 343.059 335.788 348.281L324.156 353.74C322.811 350.655 320.833 348.162 318.222 346.263C315.611 344.285 312.644 343.296 309.321 343.296C305.918 343.296 302.793 344.127 299.944 345.788C297.175 347.371 294.999 349.547 293.417 352.316C291.834 355.006 291.043 358.013 291.043 361.336C291.043 364.66 291.834 367.706 293.417 370.475C294.999 373.165 297.175 375.302 299.944 376.884C302.793 378.467 305.918 379.258 309.321 379.258C312.802 379.258 315.848 378.348 318.459 376.528C321.071 374.708 323.009 372.295 324.275 369.288L335.669 374.629C333.137 379.693 329.458 383.728 324.631 386.735C319.884 389.742 314.464 391.245 308.371 391.245ZM372.002 331.071C377.066 331.071 381.3 332.1 384.702 334.157C388.183 336.135 390.794 338.826 392.535 342.228C394.276 345.551 395.146 349.27 395.146 353.384V390.414H382.091V356.233C382.091 353.147 381.023 350.299 378.886 347.687C376.829 345.076 373.308 343.771 368.323 343.771C363.576 343.771 360.055 345.235 357.76 348.162C355.466 351.011 354.318 354.334 354.318 358.132V390.414H341.382V303.18H354.318V335.938C358.354 332.693 364.248 331.071 372.002 331.071ZM452.796 331.784H465.97V390.414H452.796V385.43C447.416 389.702 441.244 391.839 434.281 391.839C428.663 391.839 423.52 390.533 418.852 387.922C414.263 385.232 410.623 381.632 407.933 377.122C405.322 372.611 404.016 367.627 404.016 362.167C404.016 356.549 405.322 351.367 407.933 346.619C410.623 341.872 414.263 338.113 418.852 335.344C423.52 332.496 428.663 331.071 434.281 331.071C441.086 331.071 447.257 333.326 452.796 337.837V331.784ZM434.993 379.258C438.316 379.258 441.323 378.427 444.013 376.765C446.783 375.104 448.919 372.968 450.422 370.356C452.005 367.666 452.796 364.936 452.796 362.167C452.796 358.923 452.005 355.956 450.422 353.266C448.919 350.496 446.822 348.32 444.132 346.738C441.442 345.155 438.395 344.364 434.993 344.364C431.828 344.364 428.94 345.155 426.329 346.738C423.718 348.241 421.661 350.338 420.157 353.028C418.654 355.719 417.902 358.765 417.902 362.167C417.902 365.095 418.654 367.904 420.157 370.594C421.661 373.205 423.718 375.302 426.329 376.884C429.019 378.467 431.907 379.258 434.993 379.258ZM513.34 343.059H499.453V372.73C499.453 374.471 499.889 375.856 500.759 376.884C501.708 377.913 503.449 378.427 505.981 378.427H510.491V389.584C507.484 390.137 505.348 390.414 504.082 390.414C497.198 390.414 492.57 388.99 490.196 386.142C487.822 383.214 486.596 379.1 486.517 373.798V343.059H475.479V331.071H486.517V320.034L499.453 314.574V331.071H513.34V343.059ZM553.267 331.071C558.331 331.071 562.564 332.1 565.966 334.157C569.448 336.135 572.059 338.826 573.8 342.228C575.54 345.551 576.411 349.27 576.411 353.384V390.414H563.355V356.233C563.355 353.147 562.287 350.299 560.151 347.687C558.094 345.076 554.573 343.771 549.588 343.771C544.84 343.771 541.319 345.235 539.025 348.162C536.73 351.011 535.583 354.334 535.583 358.132V390.414H522.646V303.18H535.583V335.938C539.618 332.693 545.513 331.071 553.267 331.071ZM614.121 331.071C608.82 331.071 603.875 332.456 599.286 335.225C594.696 337.916 591.017 341.595 588.248 346.263C585.479 350.852 584.094 355.798 584.094 361.099C584.094 366.479 585.479 371.504 588.248 376.172C591.017 380.761 594.696 384.44 599.286 387.21C603.875 389.9 608.82 391.245 614.121 391.245C619.502 391.245 624.407 389.9 628.838 387.21C633.348 384.44 636.909 380.761 639.52 376.172C642.131 371.504 643.437 366.479 643.437 361.099C643.437 355.719 642.131 350.734 639.52 346.145C636.909 341.555 633.348 337.916 628.838 335.225C624.407 332.456 619.502 331.071 614.121 331.071ZM596.793 361.099C596.793 358.171 597.505 355.481 598.93 353.028C600.433 350.496 602.451 348.518 604.983 347.094C607.515 345.591 610.244 344.839 613.172 344.839C616.495 344.839 619.462 345.591 622.073 347.094C624.684 348.518 626.742 350.457 628.245 352.91C629.748 355.362 630.5 358.092 630.5 361.099C630.5 364.106 629.748 366.875 628.245 369.407C626.742 371.86 624.684 373.838 622.073 375.341C619.462 376.765 616.495 377.478 613.172 377.478C610.244 377.478 607.515 376.765 604.983 375.341C602.451 373.838 600.433 371.86 598.93 369.407C597.505 366.875 596.793 364.106 596.793 361.099ZM703.582 390.414H690.526V358.013C690.526 354.453 689.458 351.248 687.322 348.4C685.185 345.551 681.625 344.127 676.64 344.127C671.972 344.127 668.49 345.63 666.196 348.637C663.901 351.644 662.754 355.086 662.754 358.963V390.414H649.817V332.97H662.754V337.006C666.947 333.05 672.842 331.071 680.438 331.071C685.344 331.071 689.498 332.179 692.9 334.395C696.381 336.531 698.992 339.379 700.733 342.94C702.474 346.501 703.423 350.299 703.582 354.334V390.414Z" fill="#3F4556"/>
<path d="M996.803 334.858L1131.66 783.061" stroke="#D6DDDF" stroke-width="4.1845"/>
<path d="M1662.81 334.858L1797.67 783.061" stroke="#D6DDDF" stroke-width="4.1845"/>
<path d="M1467.28 818.885C1303.83 792.354 1173.59 916.724 1044.12 916.724L1049.28 1015.51L1501.09 1032.13L1467.28 818.885Z" fill="white"/>
<path d="M138.395 449.56C140.478 449.56 142.285 449.989 143.817 450.847C144.582 451.276 145.287 451.796 145.93 452.409C146.604 452.991 147.278 453.818 147.951 454.89L148.549 456.084L144.138 458.06C143.281 456.682 142.53 455.824 141.887 455.487C141.213 455.058 140.647 454.752 140.187 454.568C139.728 454.384 139.115 454.277 138.349 454.247H138.028C136.527 454.247 135.241 454.584 134.169 455.257C133.648 455.564 133.204 456.008 132.836 456.59C132.499 457.172 132.331 457.83 132.331 458.565C132.331 458.933 132.377 459.3 132.469 459.668C132.683 460.434 133.143 461.062 133.847 461.552C134.582 462.011 135.256 462.363 135.868 462.608C136.512 462.853 136.925 463.022 137.109 463.114L138.349 463.573C140.218 464.186 141.596 464.706 142.484 465.135C144.322 465.962 145.67 466.789 146.527 467.616C147.415 468.504 148.105 469.408 148.595 470.327C149.115 471.246 149.376 472.394 149.376 473.772C149.376 474.752 149.223 475.702 148.916 476.621C148.641 477.509 148.258 478.275 147.768 478.918C146.389 480.786 144.644 482.027 142.53 482.639C140.999 483.099 139.483 483.328 137.982 483.328C137.522 483.328 137.186 483.313 136.971 483.283C136.175 483.283 135.287 483.191 134.306 483.007C133.326 482.792 132.362 482.456 131.412 481.996C130.432 481.506 129.544 480.863 128.747 480.067C127.982 479.24 127.155 478.152 126.266 476.805L130.631 474.416C131.029 475.028 131.504 475.625 132.055 476.207C132.607 476.789 133.173 477.233 133.755 477.54C134.858 478.152 136.236 478.459 137.89 478.459C137.982 478.459 138.533 478.413 139.544 478.321C140.402 478.198 141.183 477.953 141.887 477.586C142.591 477.187 143.173 476.682 143.633 476.07C144.123 475.396 144.368 474.722 144.368 474.048C144.368 473.405 144.108 472.7 143.587 471.935C142.729 470.679 141.213 469.668 139.039 468.902C136.466 468.045 134.812 467.478 134.077 467.203C133.127 466.804 132.147 466.268 131.136 465.595C130.126 464.921 129.36 464.186 128.839 463.389C128.196 462.47 127.767 461.674 127.553 461C127.338 460.326 127.231 459.454 127.231 458.382C127.231 457.401 127.461 456.437 127.92 455.487C128.41 454.507 128.992 453.649 129.666 452.914C130.432 452.118 131.443 451.414 132.698 450.801C133.985 450.158 135.424 449.76 137.017 449.606L138.395 449.56ZM172.28 460.633H177.38V483.328H172.28V481.399C170.197 483.053 167.808 483.88 165.113 483.88C162.938 483.88 160.947 483.374 159.14 482.364C157.364 481.322 155.955 479.929 154.914 478.183C153.903 476.437 153.397 474.507 153.397 472.394C153.397 470.219 153.903 468.213 154.914 466.376C155.955 464.538 157.364 463.083 159.14 462.011C160.947 460.908 162.938 460.357 165.113 460.357C167.747 460.357 170.136 461.23 172.28 462.976V460.633ZM165.389 479.01C166.675 479.01 167.839 478.688 168.88 478.045C169.952 477.402 170.779 476.575 171.361 475.564C171.974 474.523 172.28 473.466 172.28 472.394C172.28 471.138 171.974 469.99 171.361 468.948C170.779 467.876 169.968 467.034 168.926 466.422C167.885 465.809 166.706 465.503 165.389 465.503C164.163 465.503 163.045 465.809 162.035 466.422C161.024 467.003 160.228 467.815 159.646 468.856C159.064 469.898 158.773 471.077 158.773 472.394C158.773 473.527 159.064 474.615 159.646 475.656C160.228 476.667 161.024 477.478 162.035 478.091C163.076 478.704 164.194 479.01 165.389 479.01ZM195.716 464.997H190.341V476.483C190.341 477.157 190.509 477.693 190.846 478.091C191.214 478.489 191.888 478.688 192.868 478.688H194.614V483.007C193.45 483.221 192.623 483.328 192.133 483.328C189.468 483.328 187.676 482.777 186.757 481.675C185.839 480.541 185.364 478.949 185.333 476.896V464.997H181.06V460.357H185.333V456.084L190.341 453.971V460.357H195.716V464.997ZM216.134 460.357H221.325V483.328H216.134V481.675C214.541 483.053 212.351 483.742 209.564 483.742C207.543 483.742 205.812 483.313 204.373 482.456C202.964 481.598 201.892 480.465 201.157 479.056C200.452 477.647 200.1 476.115 200.1 474.462V460.357H205.291V473.267C205.291 474.063 205.46 474.875 205.797 475.702C206.164 476.498 206.746 477.172 207.543 477.723C208.37 478.275 209.411 478.55 210.667 478.55C212.566 478.55 213.944 477.968 214.802 476.805C215.69 475.641 216.134 474.293 216.134 472.762V460.357ZM239.232 460.403V465.273H237.164C235.112 465.273 233.719 465.916 232.983 467.203C232.248 468.489 231.881 469.974 231.881 471.659V483.328H226.551V460.954H231.881V462.93C233.351 461.184 235.449 460.311 238.175 460.311L239.232 460.403ZM260.639 449.56H265.785V483.328H260.639V481.123C258.526 482.838 256.091 483.696 253.334 483.696C251.221 483.696 249.26 483.175 247.453 482.134C245.677 481.093 244.268 479.684 243.227 477.907C242.185 476.1 241.664 474.14 241.664 472.027C241.664 469.913 242.185 467.968 243.227 466.192C244.268 464.385 245.677 462.96 247.453 461.919C249.26 460.878 251.221 460.357 253.334 460.357C256.091 460.357 258.526 461.215 260.639 462.93V449.56ZM254.069 478.826C255.325 478.826 256.443 478.504 257.423 477.861C258.434 477.218 259.215 476.376 259.766 475.334C260.348 474.293 260.639 473.19 260.639 472.027C260.639 470.832 260.348 469.714 259.766 468.673C259.215 467.601 258.434 466.743 257.423 466.1C256.443 465.457 255.325 465.135 254.069 465.135C252.752 465.135 251.542 465.441 250.44 466.054C249.368 466.667 248.51 467.509 247.867 468.581C247.254 469.622 246.948 470.771 246.948 472.027C246.948 473.282 247.254 474.431 247.867 475.472C248.51 476.483 249.368 477.295 250.44 477.907C251.542 478.52 252.752 478.826 254.069 478.826ZM288.627 460.633H293.726V483.328H288.627V481.399C286.544 483.053 284.155 483.88 281.46 483.88C279.285 483.88 277.294 483.374 275.487 482.364C273.711 481.322 272.302 479.929 271.26 478.183C270.25 476.437 269.744 474.507 269.744 472.394C269.744 470.219 270.25 468.213 271.26 466.376C272.302 464.538 273.711 463.083 275.487 462.011C277.294 460.908 279.285 460.357 281.46 460.357C284.094 460.357 286.483 461.23 288.627 462.976V460.633ZM281.735 479.01C283.022 479.01 284.186 478.688 285.227 478.045C286.299 477.402 287.126 476.575 287.708 475.564C288.32 474.523 288.627 473.466 288.627 472.394C288.627 471.138 288.32 469.99 287.708 468.948C287.126 467.876 286.314 467.034 285.273 466.422C284.232 465.809 283.052 465.503 281.735 465.503C280.51 465.503 279.392 465.809 278.381 466.422C277.371 467.003 276.574 467.815 275.992 468.856C275.41 469.898 275.12 471.077 275.12 472.394C275.12 473.527 275.41 474.615 275.992 475.656C276.574 476.667 277.371 477.478 278.381 478.091C279.423 478.704 280.541 479.01 281.735 479.01ZM316.106 460.357H322.308L311.42 486.728C310.501 489.179 309.123 490.986 307.285 492.15C305.478 493.313 302.966 493.895 299.75 493.895H299.061V489.163H299.75C301.374 489.163 302.798 488.857 304.023 488.244C305.279 487.632 306.167 486.636 306.688 485.258L307.331 483.145L296.488 460.357H302.691L310.271 476.345L316.106 460.357ZM325.655 479.837H330.938L327.217 488.842H324.277L325.655 479.837ZM384.647 483.328H378.996L377.021 478.091H360.895L358.919 483.328H352.993L365.673 449.56H371.967L384.647 483.328ZM369.027 456.636L362.87 472.854H375.091L369.027 456.636ZM399.281 460.357C401.364 460.357 403.293 460.878 405.07 461.919C406.877 462.96 408.301 464.385 409.342 466.192C410.414 467.968 410.95 469.913 410.95 472.027C410.95 474.109 410.414 476.039 409.342 477.815C408.301 479.592 406.877 481.016 405.07 482.088C403.263 483.129 401.318 483.65 399.235 483.65C396.417 483.65 393.967 482.777 391.884 481.031V493.895H386.83V460.679H391.884V462.976C392.895 462.149 394.028 461.506 395.284 461.046C396.54 460.587 397.872 460.357 399.281 460.357ZM398.638 478.734C399.924 478.734 401.088 478.443 402.129 477.861C403.171 477.249 403.998 476.437 404.61 475.426C405.223 474.385 405.529 473.252 405.529 472.027C405.529 470.801 405.223 469.668 404.61 468.627C403.998 467.555 403.171 466.712 402.129 466.1C401.088 465.487 399.924 465.181 398.638 465.181C397.382 465.181 396.233 465.503 395.192 466.146C394.181 466.789 393.37 467.647 392.757 468.719C392.175 469.76 391.884 470.863 391.884 472.027C391.884 473.19 392.175 474.293 392.757 475.334C393.37 476.376 394.181 477.203 395.192 477.815C396.233 478.428 397.382 478.734 398.638 478.734ZM426.957 460.403V465.273H424.889C422.837 465.273 421.444 465.916 420.709 467.203C419.973 468.489 419.606 469.974 419.606 471.659V483.328H414.277V460.954H419.606V462.93C421.076 461.184 423.174 460.311 425.9 460.311L426.957 460.403ZM433.708 450.525C432.851 450.525 432.116 450.832 431.503 451.444C430.89 452.026 430.584 452.746 430.584 453.603C430.584 454.43 430.89 455.15 431.503 455.763C432.116 456.345 432.851 456.636 433.708 456.636C434.535 456.636 435.255 456.345 435.868 455.763C436.48 455.15 436.786 454.43 436.786 453.603C436.786 452.746 436.48 452.026 435.868 451.444C435.255 450.832 434.535 450.525 433.708 450.525ZM436.281 460.357H431.089V483.328H436.281V460.357ZM445.991 476.345C445.991 477.662 446.19 478.535 446.588 478.964C446.987 479.393 447.814 479.607 449.069 479.607V483.053C447.997 483.206 447.109 483.283 446.405 483.283C444.536 483.283 443.189 482.747 442.362 481.675C441.565 480.603 441.167 478.826 441.167 476.345V449.56H445.991V476.345ZM478.053 449.56V483.328H472.908V454.706H469.738V449.56H478.053ZM509.389 449.56L508.746 450.847L492.804 483.328H487.061L501.073 454.706H484.258V449.56H509.389ZM135.042 504.56V538.328H129.896V509.706H126.726V504.56H135.042ZM161.875 508.098C162.916 509.323 163.682 510.61 164.172 511.957C164.662 513.305 164.953 514.668 165.045 516.046C165.167 517.394 165.228 519.186 165.228 521.422C165.228 523.688 165.167 525.51 165.045 526.889C164.953 528.236 164.662 529.584 164.172 530.932C163.682 532.249 162.916 533.52 161.875 534.745C159.792 537.134 156.913 538.328 153.237 538.328C149.501 538.328 146.622 537.134 144.6 534.745C143.559 533.52 142.793 532.249 142.303 530.932C141.813 529.584 141.507 528.236 141.384 526.889C141.292 525.51 141.246 523.688 141.246 521.422C141.246 519.186 141.292 517.394 141.384 516.046C141.507 514.668 141.813 513.305 142.303 511.957C142.793 510.61 143.559 509.323 144.6 508.098C146.652 505.74 149.531 504.56 153.237 504.56C156.913 504.56 159.792 505.74 161.875 508.098ZM160.083 518.022C160.083 515.173 159.532 513.091 158.429 511.774C157.786 511.008 157.051 510.411 156.224 509.982C155.427 509.522 154.432 509.293 153.237 509.293C152.012 509.293 150.986 509.522 150.159 509.982C149.363 510.411 148.643 511.008 148 511.774C146.928 513.121 146.392 515.204 146.392 518.022V524.867C146.392 527.685 146.928 529.768 148 531.115C148.643 531.881 149.363 532.494 150.159 532.953C150.986 533.382 152.012 533.596 153.237 533.596C154.432 533.596 155.427 533.382 156.224 532.953C157.051 532.494 157.786 531.881 158.429 531.115C159.532 529.798 160.083 527.716 160.083 524.867V518.022ZM200.781 538.328H195.13L193.154 533.091H177.028L175.053 538.328H169.126L181.806 504.56H188.1L200.781 538.328ZM185.16 511.636L179.004 527.854H191.225L185.16 511.636ZM239.169 504.56V538.328H234.161V512.968L223.364 536.169H220.47L219.781 534.331L219.046 532.586L210.041 513.106V538.328H204.665V504.56H212.2L221.94 526.108L232.001 504.56H239.169ZM280.564 524.683V529.002H262.6V524.683H280.564ZM322.908 526.108H327.64V531.299H322.908V538.328H317.762V531.299H302.141V526.935L302.187 526.889L317.165 504.56H322.908V526.108ZM317.762 512.233L308.436 526.108H317.762V512.233ZM345.822 504.56C347.905 504.56 349.835 505.096 351.611 506.168C353.388 507.21 354.797 508.619 355.838 510.395C356.91 512.172 357.446 514.101 357.446 516.184C357.446 518.144 356.91 519.997 355.838 521.743C354.797 523.458 353.388 524.837 351.611 525.878C349.835 526.919 347.905 527.44 345.822 527.44H345.455H337.369V538.328H332.453V504.56H344.536H345.822ZM345.455 522.157C346.619 522.157 347.675 521.881 348.625 521.33C349.605 520.748 350.371 519.982 350.922 519.032C351.504 518.052 351.795 516.98 351.795 515.816C351.795 514.653 351.504 513.596 350.922 512.646C350.371 511.666 349.605 510.901 348.625 510.349C347.675 509.767 346.619 509.476 345.455 509.476H337.369V522.157H345.455ZM396.776 504.56V538.328H391.768V512.968L380.972 536.169H378.077L377.388 534.331L376.653 532.586L367.648 513.106V538.328H362.273V504.56H369.807L379.547 526.108L389.609 504.56H396.776ZM433.577 504.56C435.66 504.56 437.589 505.096 439.366 506.168C441.142 507.21 442.551 508.619 443.592 510.395C444.664 512.172 445.2 514.101 445.2 516.184C445.2 518.144 444.664 519.997 443.592 521.743C442.551 523.458 441.142 524.837 439.366 525.878C437.589 526.919 435.66 527.44 433.577 527.44H433.209H425.123V538.328H420.207V504.56H432.29H433.577ZM433.209 522.157C434.373 522.157 435.43 521.881 436.379 521.33C437.359 520.748 438.125 519.982 438.677 519.032C439.258 518.052 439.549 516.98 439.549 515.816C439.549 514.653 439.258 513.596 438.677 512.646C438.125 511.666 437.359 510.901 436.379 510.349C435.43 509.767 434.373 509.476 433.209 509.476H425.123V522.157H433.209ZM461.972 504.56C464.851 504.56 467.501 505.311 469.921 506.812C472.34 508.282 474.254 510.319 475.663 512.922C477.072 515.495 477.777 518.328 477.777 521.422C477.777 524.576 477.088 527.44 475.709 530.013C474.362 532.586 472.478 534.622 470.058 536.123C467.669 537.593 464.974 538.328 461.972 538.328H450.027V504.56H461.972ZM463.075 533.413C464.943 533.29 466.582 532.723 467.991 531.713C469.4 530.671 470.502 529.247 471.299 527.44C472.095 525.633 472.493 523.52 472.493 521.1C472.493 517.67 471.62 514.928 469.875 512.876C468.159 510.793 465.893 509.66 463.075 509.476H462.294H454.943V533.413H461.972H463.075ZM505.255 504.56V509.476H495.056V538.328H490.14V509.476H480.308V504.56H505.255Z" fill="#97A1AB"/>
</g>
<defs>
<filter id="filter0_f" x="561.582" y="330.528" width="1422.57" height="736.163" filterUnits="userSpaceOnUse" color-interpolation-filters="sRGB">
<feFlood flood-opacity="0" result="BackgroundImageFix"/>
<feBlend mode="normal" in="SourceGraphic" in2="BackgroundImageFix" result="shape"/>
<feGaussianBlur stdDeviation="8.78745" result="effect1_foregroundBlur"/>
</filter>
<filter id="filter1_f" x="580.712" y="241.153" width="1422.57" height="736.163" filterUnits="userSpaceOnUse" color-interpolation-filters="sRGB">
<feFlood flood-opacity="0" result="BackgroundImageFix"/>
<feBlend mode="normal" in="SourceGraphic" in2="BackgroundImageFix" result="shape"/>
<feGaussianBlur stdDeviation="8.78745" result="effect1_foregroundBlur"/>
</filter>
<filter id="filter2_f" x="846.563" y="538.89" width="268.211" height="268.211" filterUnits="userSpaceOnUse" color-interpolation-filters="sRGB">
<feFlood flood-opacity="0" result="BackgroundImageFix"/>
<feBlend mode="normal" in="SourceGraphic" in2="BackgroundImageFix" result="shape"/>
<feGaussianBlur stdDeviation="4.99548" result="effect1_foregroundBlur"/>
</filter>
<linearGradient id="paint0_linear" x1="1402.73" y1="228.051" x2="949.465" y2="897.661" gradientUnits="userSpaceOnUse">
<stop stop-color="#2A3237"/>
<stop offset="1" stop-color="#50606C"/>
</linearGradient>
<linearGradient id="paint1_linear" x1="1402.73" y1="228.051" x2="949.465" y2="897.661" gradientUnits="userSpaceOnUse">
<stop stop-color="#2A3237"/>
<stop offset="1" stop-color="#50606C"/>
</linearGradient>
<linearGradient id="paint2_linear" x1="672.047" y1="662.907" x2="1763.81" y2="1001.73" gradientUnits="userSpaceOnUse">
<stop stop-color="#5D7586" stop-opacity="0.44"/>
<stop offset="1" stop-color="#6EAAAE" stop-opacity="0"/>
</linearGradient>
<linearGradient id="paint3_linear" x1="1402.73" y1="228.051" x2="949.465" y2="897.661" gradientUnits="userSpaceOnUse">
<stop stop-color="#2A3237"/>
<stop offset="1" stop-color="#50606C"/>
</linearGradient>
<linearGradient id="paint4_linear" x1="1892.82" y1="573.532" x2="801.059" y2="912.355" gradientUnits="userSpaceOnUse">
<stop stop-color="#798288" stop-opacity="0.44"/>
<stop offset="1" stop-color="#9FBEC0" stop-opacity="0"/>
</linearGradient>
<linearGradient id="paint5_linear" x1="1266.7" y1="610.625" x2="1318.35" y2="610.625" gradientUnits="userSpaceOnUse">
<stop stop-color="#49596C"/>
<stop offset="0.302083" stop-color="#C1C7CE"/>
<stop offset="1" stop-color="#DEE1E2"/>
</linearGradient>
<linearGradient id="paint6_linear" x1="1264.09" y1="760.276" x2="1330.61" y2="775.437" gradientUnits="userSpaceOnUse">
<stop stop-color="#A1AAB3"/>
<stop offset="1" stop-color="#C4CACF"/>
</linearGradient>
<linearGradient id="paint7_linear" x1="1263.77" y1="827.369" x2="1263.77" y2="1023.65" gradientUnits="userSpaceOnUse">
<stop stop-color="#E6EAEF"/>
<stop offset="0.046978" stop-color="#9CAABB"/>
<stop offset="0.958333" stop-color="#8C949D"/>
<stop offset="1" stop-color="#B4BCC5"/>
</linearGradient>
<linearGradient id="paint8_linear" x1="1264.09" y1="776.619" x2="1330.61" y2="791.78" gradientUnits="userSpaceOnUse">
<stop stop-color="#A1AAB3"/>
<stop offset="1" stop-color="#C4CACF"/>
</linearGradient>
<linearGradient id="paint9_linear" x1="1275.34" y1="272.617" x2="1275.34" y2="426.828" gradientUnits="userSpaceOnUse">
<stop stop-color="#F1F1F1"/>
<stop offset="0.0364583" stop-color="#AAB4BE"/>
<stop offset="0.286458" stop-color="#A2ACB6"/>
<stop offset="0.390625" stop-color="#8797A6"/>
<stop offset="0.953125" stop-color="#72818F"/>
<stop offset="1" stop-color="#6D7C8C"/>
</linearGradient>
<linearGradient id="paint10_linear" x1="1325.67" y1="332.162" x2="1267.88" y2="406.728" gradientUnits="userSpaceOnUse">
<stop stop-color="#636E74" stop-opacity="0.74"/>
<stop offset="1" stop-color="#576B77" stop-opacity="0.79"/>
</linearGradient>
<linearGradient id="paint11_linear" x1="1270.85" y1="359.823" x2="968.853" y2="359.823" gradientUnits="userSpaceOnUse">
<stop stop-color="#BEC6C9"/>
<stop offset="0.53125" stop-color="#C4CDD0"/>
<stop offset="1" stop-color="#CFD5D7"/>
</linearGradient>
<linearGradient id="paint12_linear" x1="954.943" y1="305.15" x2="954.943" y2="359.823" gradientUnits="userSpaceOnUse">
<stop stop-color="#EBEDEE"/>
<stop offset="0.510417" stop-color="#D9DEDF"/>
<stop offset="1" stop-color="#698289"/>
</linearGradient>
<linearGradient id="paint13_linear" x1="1663.04" y1="305.15" x2="1663.04" y2="359.823" gradientUnits="userSpaceOnUse">
<stop stop-color="#EBEDEE"/>
<stop offset="0.510417" stop-color="#ACBFC5"/>
<stop offset="1" stop-color="#BAC5C9"/>
</linearGradient>
<linearGradient id="paint14_linear" x1="1347.09" y1="359.823" x2="1649.09" y2="359.823" gradientUnits="userSpaceOnUse">
<stop stop-color="#BEC6C9"/>
<stop offset="0.53125" stop-color="#C4CDD0"/>
<stop offset="1" stop-color="#CFD5D7"/>
</linearGradient>
<radialGradient id="paint15_radial" cx="0" cy="0" r="1" gradientUnits="userSpaceOnUse" gradientTransform="translate(1030.78 629.804) rotate(107.084) scale(170.573)">
<stop stop-color="#E0E3E7"/>
<stop offset="0.723958" stop-color="white"/>
<stop offset="0.878304" stop-color="#F2F2F2"/>
<stop offset="0.936622" stop-color="#CFD0D9"/>
</radialGradient>
<radialGradient id="paint16_radial" cx="0" cy="0" r="1" gradientUnits="userSpaceOnUse" gradientTransform="translate(1036.64 620.041) rotate(109.378) scale(183.187 175.831)">
<stop stop-color="#4CE98A"/>
<stop offset="0.583333" stop-color="#38FFE7"/>
<stop offset="0.895833" stop-color="#F097FF"/>
<stop offset="1" stop-color="#FF4FB8"/>
</radialGradient>
<radialGradient id="paint17_radial" cx="0" cy="0" r="1" gradientUnits="userSpaceOnUse" gradientTransform="translate(980.669 672.995) rotate(90) scale(138.076)">
<stop offset="0.786458" stop-color="white" stop-opacity="0"/>
<stop offset="0.901042" stop-color="white" stop-opacity="0.35"/>
<stop offset="1" stop-color="white" stop-opacity="0"/>
</radialGradient>
<radialGradient id="paint18_radial" cx="0" cy="0" r="1" gradientUnits="userSpaceOnUse" gradientTransform="translate(1042.51 620.98) rotate(90) scale(39.4309 28.7577)">
<stop stop-color="white" stop-opacity="0.28"/>
<stop offset="0.489583" stop-color="white" stop-opacity="0.06"/>
<stop offset="1" stop-color="white" stop-opacity="0"/>
</radialGradient>
<radialGradient id="paint19_radial" cx="0" cy="0" r="1" gradientUnits="userSpaceOnUse" gradientTransform="translate(1042.51 601.074) rotate(90) scale(3.67876)">
<stop stop-color="white" stop-opacity="0.57"/>
<stop offset="1" stop-color="white" stop-opacity="0"/>
</radialGradient>
<linearGradient id="paint20_linear" x1="1659.91" y1="523.141" x2="1659.91" y2="562.614" gradientUnits="userSpaceOnUse">
<stop stop-color="#F0F5F5"/>
<stop offset="0.411458" stop-color="#DDE2E3"/>
<stop offset="1" stop-color="#AEB2B7"/>
</linearGradient>
<linearGradient id="paint21_linear" x1="1659.91" y1="750.288" x2="1659.91" y2="789.761" gradientUnits="userSpaceOnUse">
<stop stop-color="#F0F5F5"/>
<stop offset="0.411458" stop-color="#DDE2E3"/>
<stop offset="1" stop-color="#AEB2B7"/>
</linearGradient>
<linearGradient id="paint22_linear" x1="1663.3" y1="593.415" x2="1575.83" y2="593.415" gradientUnits="userSpaceOnUse">
<stop stop-color="#61FFAA"/>
<stop offset="0.479167" stop-color="#81F0FF"/>
<stop offset="0.802083" stop-color="#FC81FF"/>
<stop offset="1" stop-color="#FF81B6"/>
</linearGradient>
<linearGradient id="paint23_linear" x1="106.955" y1="11.141" x2="-9.46284e-07" y2="11.141" gradientUnits="userSpaceOnUse">
<stop stop-color="#61FFAA"/>
<stop offset="0.479167" stop-color="#81F0FF"/>
<stop offset="0.802083" stop-color="#FC81FF"/>
<stop offset="1" stop-color="#FF81B6"/>
</linearGradient>
<linearGradient id="paint24_linear" x1="1698.31" y1="636.585" x2="1575.83" y2="636.585" gradientUnits="userSpaceOnUse">
<stop stop-color="#61FFAA"/>
<stop offset="0.479167" stop-color="#81F0FF"/>
<stop offset="0.802083" stop-color="#FC81FF"/>
<stop offset="1" stop-color="#FF81B6"/>
</linearGradient>
<linearGradient id="paint25_linear" x1="106.955" y1="11.141" x2="-9.46284e-07" y2="11.141" gradientUnits="userSpaceOnUse">
<stop stop-color="#61FFAA"/>
<stop offset="0.479167" stop-color="#81F0FF"/>
<stop offset="0.802083" stop-color="#FC81FF"/>
<stop offset="1" stop-color="#FF81B6"/>
</linearGradient>
<linearGradient id="paint26_linear" x1="1663.3" y1="679.754" x2="1575.83" y2="679.754" gradientUnits="userSpaceOnUse">
<stop stop-color="#61FFAA"/>
<stop offset="0.479167" stop-color="#81F0FF"/>
<stop offset="0.802083" stop-color="#FC81FF"/>
<stop offset="1" stop-color="#FF81B6"/>
</linearGradient>
<linearGradient id="paint27_linear" x1="106.955" y1="11.141" x2="-9.46284e-07" y2="11.141" gradientUnits="userSpaceOnUse">
<stop stop-color="#61FFAA"/>
<stop offset="0.479167" stop-color="#81F0FF"/>
<stop offset="0.802083" stop-color="#FC81FF"/>
<stop offset="1" stop-color="#FF81B6"/>
</linearGradient>
<linearGradient id="paint28_linear" x1="1698.31" y1="722.924" x2="1575.83" y2="722.924" gradientUnits="userSpaceOnUse">
<stop stop-color="#61FFAA"/>
<stop offset="0.479167" stop-color="#81F0FF"/>
<stop offset="0.802083" stop-color="#FC81FF"/>
<stop offset="1" stop-color="#FF81B6"/>
</linearGradient>
<linearGradient id="paint29_linear" x1="1653.39" y1="744.509" x2="1575.83" y2="744.509" gradientUnits="userSpaceOnUse">
<stop stop-color="#61FFAA"/>
<stop offset="0.479167" stop-color="#81F0FF"/>
<stop offset="0.802083" stop-color="#FC81FF"/>
<stop offset="1" stop-color="#FF81B6"/>
</linearGradient>
<linearGradient id="paint30_linear" x1="809.055" y1="808.611" x2="1199.26" y2="808.611" gradientUnits="userSpaceOnUse">
<stop stop-color="#89949D"/>
<stop offset="0.432292" stop-color="#E3E8ED"/>
<stop offset="1" stop-color="#F2F3F4"/>
</linearGradient>
<linearGradient id="paint31_linear" x1="959.458" y1="808.611" x2="959.458" y2="781.793" gradientUnits="userSpaceOnUse">
<stop stop-color="#727F86"/>
<stop offset="0.6875" stop-color="#95A5AE" stop-opacity="0"/>
</linearGradient>
<linearGradient id="paint32_linear" x1="1475.06" y1="808.611" x2="1865.27" y2="808.611" gradientUnits="userSpaceOnUse">
<stop stop-color="#89949D"/>
<stop offset="0.432292" stop-color="#E3E8ED"/>
<stop offset="1" stop-color="#F2F3F4"/>
</linearGradient>
<linearGradient id="paint33_linear" x1="1625.47" y1="808.611" x2="1625.47" y2="781.793" gradientUnits="userSpaceOnUse">
<stop stop-color="#727F86"/>
<stop offset="0.6875" stop-color="#95A5AE" stop-opacity="0"/>
</linearGradient>
<clipPath id="clip0">
<rect width="1837.71" height="1005" fill="white"/>
</clipPath>
</defs>
</svg>
