<svg width="163" height="85" viewBox="0 0 163 85" fill="none" xmlns="http://www.w3.org/2000/svg">
<rect x="81.5001" width="59.8196" height="59.8196" rx="17.1941" transform="rotate(45 81.5001 0)" fill="url(#paint0_linear)"/>
<mask id="mask0" mask-type="alpha" maskUnits="userSpaceOnUse" x="39" y="0" width="85" height="85">
<rect x="81.5" y="3.05176e-05" width="59.8196" height="59.8196" rx="17.1941" transform="rotate(45 81.5 3.05176e-05)" fill="url(#paint1_linear)"/>
</mask>
<g mask="url(#mask0)">
<g filter="url(#filter0_f)">
<rect x="81.5" y="0.668121" width="58.8749" height="58.8749" rx="13.7553" transform="rotate(45 81.5 0.668121)" fill="white"/>
</g>
</g>
<path d="M31.7415 24.9609C31.1253 24.9609 30.5971 25.181 30.1569 25.6211C29.7168 26.0393 29.4967 26.5565 29.4967 27.1727C29.4967 27.767 29.7168 28.2842 30.1569 28.7243C30.5971 29.1425 31.1253 29.3516 31.7415 29.3516C32.3358 29.3516 32.853 29.1425 33.2931 28.7243C33.7333 28.2842 33.9534 27.767 33.9534 27.1727C33.9534 26.5565 33.7333 26.0393 33.2931 25.6211C32.853 25.181 32.3358 24.9609 31.7415 24.9609ZM33.5903 32.0256H29.8598V48.5319H33.5903V32.0256ZM61.994 48.5319H58.1976V39.1563C58.1976 38.276 57.9445 37.4617 57.4383 36.7134C56.9541 35.9651 56.0958 35.591 54.8633 35.591C53.7409 35.591 52.9156 35.9761 52.3874 36.7464C51.8591 37.4947 51.595 38.375 51.595 39.3874V48.5319H48.0297V39.1563C48.0297 38.276 47.7876 37.4617 47.3034 36.7134C46.8192 35.9651 45.9719 35.591 44.7614 35.591C42.5606 35.591 41.4602 36.8564 41.4602 39.3874V48.5319H37.8948V32.5538H41.4602V33.4121C42.4505 32.4878 43.7931 32.0256 45.4877 32.0256C46.6321 32.0256 47.6335 32.2787 48.4919 32.7849C49.3722 33.2911 50.0765 33.9843 50.6047 34.8647C51.6391 32.972 53.3997 32.0256 55.8867 32.0256C57.1632 32.0256 58.2526 32.3227 59.1549 32.9169C60.0573 33.5112 60.7396 34.2925 61.2017 35.2608C61.6859 36.2292 61.95 37.2746 61.994 38.397V48.5319ZM75.0688 32.0256C76.5654 32.0256 77.952 32.3997 79.2284 33.148C80.5269 33.8963 81.5503 34.9197 82.2986 36.2182C83.0689 37.4947 83.4541 38.8922 83.4541 40.4108C83.4541 41.9074 83.0689 43.2939 82.2986 44.5704C81.5503 45.8469 80.5269 46.8703 79.2284 47.6406C77.9299 48.3889 76.5324 48.763 75.0358 48.763C73.0111 48.763 71.2504 48.1358 69.7538 46.8813V56.1248H66.1224V32.2567H69.7538V33.9073C70.4801 33.3131 71.2944 32.8509 72.1967 32.5208C73.0991 32.1907 74.0565 32.0256 75.0688 32.0256ZM74.6067 45.2307C75.531 45.2307 76.3673 45.0216 77.1156 44.6034C77.8639 44.1632 78.4581 43.58 78.8983 42.8537C79.3385 42.1055 79.5586 41.2911 79.5586 40.4108C79.5586 39.5305 79.3385 38.7162 78.8983 37.9679C78.4581 37.1976 77.8639 36.5923 77.1156 36.1522C76.3673 35.712 75.531 35.4919 74.6067 35.4919C73.7043 35.4919 72.879 35.723 72.1307 36.1852C71.4044 36.6474 70.8212 37.2636 70.381 38.0339C69.9629 38.7822 69.7538 39.5745 69.7538 40.4108C69.7538 41.2471 69.9629 42.0394 70.381 42.7877C70.8212 43.536 71.4044 44.1302 72.1307 44.5704C72.879 45.0106 73.7043 45.2307 74.6067 45.2307ZM99.1152 32.2237H102.78V48.5319H99.1152V47.1454C97.6186 48.3338 95.902 48.9281 93.9652 48.9281C92.4026 48.9281 90.9721 48.5649 89.6736 47.8387C88.3971 47.0904 87.3847 46.089 86.6364 44.8345C85.9102 43.58 85.547 42.1935 85.547 40.6749C85.547 39.1123 85.9102 37.6708 86.6364 36.3503C87.3847 35.0297 88.3971 33.9843 89.6736 33.214C90.9721 32.4217 92.4026 32.0256 93.9652 32.0256C95.858 32.0256 97.5746 32.6528 99.1152 33.9073V32.2237ZM94.1633 45.4287C95.0877 45.4287 95.924 45.1976 96.6723 44.7355C97.4426 44.2733 98.0368 43.6791 98.455 42.9528C98.8951 42.2045 99.1152 41.4452 99.1152 40.6749C99.1152 39.7726 98.8951 38.9472 98.455 38.199C98.0368 37.4287 97.4536 36.8234 96.7053 36.3833C95.957 35.9431 95.1097 35.723 94.1633 35.723C93.283 35.723 92.4797 35.9431 91.7534 36.3833C91.0271 36.8014 90.4549 37.3846 90.0367 38.1329C89.6186 38.8812 89.4095 39.7285 89.4095 40.6749C89.4095 41.4892 89.6186 42.2705 90.0367 43.0188C90.4549 43.7451 91.0271 44.3283 91.7534 44.7685C92.5017 45.2086 93.305 45.4287 94.1633 45.4287ZM114.371 48.763C112.852 48.763 111.455 48.3889 110.178 47.6406C108.902 46.8923 107.889 45.8799 107.141 44.6034C106.393 43.3049 106.019 41.8964 106.019 40.3778C106.019 38.8812 106.404 37.4947 107.174 36.2182C107.944 34.9417 108.968 33.9293 110.244 33.181C111.521 32.4107 112.896 32.0256 114.371 32.0256C116 32.0256 117.496 32.4658 118.861 33.3461C120.225 34.2044 121.271 35.3599 121.997 36.8124L118.762 38.331C118.387 37.4727 117.837 36.7794 117.111 36.2512C116.385 35.701 115.559 35.4259 114.635 35.4259C113.689 35.4259 112.819 35.657 112.027 36.1192C111.257 36.5593 110.652 37.1646 110.211 37.9349C109.771 38.6831 109.551 39.5195 109.551 40.4438C109.551 41.3682 109.771 42.2155 110.211 42.9858C110.652 43.7341 111.257 44.3283 112.027 44.7685C112.819 45.2086 113.689 45.4287 114.635 45.4287C115.603 45.4287 116.451 45.1756 117.177 44.6694C117.903 44.1632 118.442 43.492 118.795 42.6557L121.964 44.1412C121.26 45.5498 120.236 46.6722 118.894 47.5085C117.573 48.3448 116.066 48.763 114.371 48.763ZM134.15 35.3599H130.287V43.613C130.287 44.0972 130.408 44.4824 130.651 44.7685C130.915 45.0546 131.399 45.1976 132.103 45.1976H133.358V48.3008C132.521 48.4549 131.927 48.5319 131.575 48.5319C129.66 48.5319 128.373 48.1358 127.712 47.3435C127.052 46.5292 126.711 45.3847 126.689 43.9101V35.3599H123.619V32.0256H126.689V28.9554L130.287 27.4368V32.0256H134.15V35.3599Z" fill="#2D3D48"/>
<path d="M49.1696 63.0371C49.5493 63.0371 49.8986 63.1333 50.2178 63.3259C50.5369 63.513 50.79 63.7688 50.977 64.0935C51.1696 64.4126 51.2659 64.7592 51.2659 65.1334C51.2659 65.5075 51.1696 65.8569 50.977 66.1815C50.79 66.5006 50.5369 66.7565 50.2178 66.9491C49.8986 67.1361 49.5493 67.2297 49.1696 67.2297C48.7019 67.2297 48.281 67.0784 47.9069 66.7757V67.1636H47.0155V61.0976H47.9069V63.491C48.281 63.1884 48.7019 63.0371 49.1696 63.0371ZM49.0376 66.3466C49.2686 66.3466 49.4832 66.2916 49.6813 66.1815C49.8794 66.066 50.0362 65.9174 50.1517 65.7358C50.2673 65.5488 50.325 65.3507 50.325 65.1416C50.325 64.927 50.2673 64.729 50.1517 64.5474C50.0362 64.3603 49.8794 64.2118 49.6813 64.1017C49.4832 63.9862 49.2686 63.9284 49.0376 63.9284C48.812 63.9284 48.6139 63.9834 48.4433 64.0935C48.2728 64.2035 48.1407 64.3521 48.0472 64.5391C47.9536 64.7207 47.9069 64.9188 47.9069 65.1334C47.9069 65.3479 47.9536 65.5488 48.0472 65.7358C48.1407 65.9229 48.2728 66.0715 48.4433 66.1815C48.6139 66.2916 48.812 66.3466 49.0376 66.3466ZM54.8201 63.0371H55.9342L53.9782 67.7744C53.8132 68.2145 53.5656 68.5392 53.2354 68.7482C52.9108 68.9573 52.4597 69.0619 51.8819 69.0619H51.7581V68.2118H51.8819C52.1735 68.2118 52.4294 68.1568 52.6495 68.0467C52.8751 67.9367 53.0346 67.7579 53.1282 67.5103L53.2437 67.1306L51.296 63.0371H52.4101L53.7719 65.9092L54.8201 63.0371ZM65.4812 67.1636H64.4661L64.1112 66.2228H61.2143L60.8594 67.1636H59.7948L62.0727 61.0976H63.2033L65.4812 67.1636ZM62.6751 62.3685L61.5692 65.2819H63.7646L62.6751 62.3685ZM71.1389 65.8349C70.8913 66.275 70.5502 66.6079 70.1155 66.8335C69.6863 67.0536 69.1856 67.1636 68.6134 67.1636C68.0742 67.1636 67.5763 67.0288 67.1196 66.7592C66.6684 66.4896 66.308 66.1237 66.0384 65.6616C65.7743 65.1994 65.6423 64.6877 65.6423 64.1265C65.6423 63.5708 65.7771 63.0618 66.0467 62.5996C66.3218 62.1375 66.6877 61.7716 67.1444 61.502C67.601 61.2324 68.0907 61.0976 68.6134 61.0976C69.1526 61.0976 69.6341 61.2076 70.0577 61.4277C70.4814 61.6423 70.8198 61.9531 71.0729 62.3603L70.2558 62.7399C70.0302 62.5144 69.7771 62.3438 69.4965 62.2282C69.2214 62.1072 68.927 62.0467 68.6134 62.0467C68.2393 62.0467 67.8899 62.1375 67.5653 62.319C67.2461 62.5006 66.993 62.7509 66.806 63.0701C66.6189 63.3837 66.5254 63.7358 66.5254 64.1265C66.5254 64.5171 66.6189 64.872 66.806 65.1911C66.993 65.5103 67.2461 65.7606 67.5653 65.9422C67.8899 66.1237 68.2393 66.2145 68.6134 66.2145C68.96 66.2145 69.2709 66.1567 69.546 66.0412C69.8266 65.9202 70.0632 65.7468 70.2558 65.5213L71.1389 65.8349ZM78.0783 61.0976V67.1636H77.1787V62.6079L75.2392 66.7757H74.7193L74.5955 66.4456L74.4634 66.132L72.8458 62.6326V67.1636H71.8802V61.0976H73.2337L74.9834 64.9683L76.7908 61.0976H78.0783ZM85.7869 63.0866H86.703V67.1636H85.7869V66.817C85.4128 67.1141 84.9836 67.2627 84.4994 67.2627C84.1088 67.2627 83.7511 67.1719 83.4265 66.9903C83.1074 66.8032 82.8543 66.5529 82.6672 66.2393C82.4856 65.9257 82.3948 65.579 82.3948 65.1994C82.3948 64.8087 82.4856 64.4483 82.6672 64.1182C82.8543 63.7881 83.1074 63.5267 83.4265 63.3342C83.7511 63.1361 84.1088 63.0371 84.4994 63.0371C84.9726 63.0371 85.4017 63.1939 85.7869 63.5075V63.0866ZM84.5489 66.3878C84.78 66.3878 84.9891 66.3301 85.1762 66.2145C85.3687 66.099 85.5173 65.9504 85.6218 65.7689C85.7319 65.5818 85.7869 65.392 85.7869 65.1994C85.7869 64.9738 85.7319 64.7675 85.6218 64.5804C85.5173 64.3878 85.3715 64.2365 85.1844 64.1265C84.9973 64.0164 84.7855 63.9614 84.5489 63.9614C84.3288 63.9614 84.128 64.0164 83.9464 64.1265C83.7649 64.231 83.6218 64.3768 83.5173 64.5639C83.4127 64.751 83.3605 64.9628 83.3605 65.1994C83.3605 65.403 83.4127 65.5983 83.5173 65.7854C83.6218 65.9669 83.7649 66.1127 83.9464 66.2228C84.1335 66.3328 84.3343 66.3878 84.5489 66.3878ZM90.1208 63.8706H89.1552V65.9339C89.1552 66.055 89.1854 66.1512 89.2459 66.2228C89.312 66.2943 89.433 66.3301 89.6091 66.3301H89.9227V67.1059C89.7136 67.1444 89.5651 67.1636 89.477 67.1636C88.9983 67.1636 88.6765 67.0646 88.5114 66.8665C88.3463 66.6629 88.2611 66.3768 88.2556 66.0082V63.8706H87.488V63.0371H88.2556V62.2695L89.1552 61.8899V63.0371H90.1208V63.8706ZM99.2846 61.0976V65.2076C99.2626 65.5763 99.1388 65.9119 98.9132 66.2145C98.6931 66.5116 98.3987 66.7455 98.0301 66.916C97.6614 67.0811 97.257 67.1636 96.8169 67.1636C96.3987 67.1636 96.0136 67.0811 95.6614 66.916C95.3093 66.751 95.0232 66.5199 94.8031 66.2228C94.583 65.9257 94.4565 65.5873 94.4234 65.2076H94.4152V61.0976H95.2983V64.828C95.2983 65.3287 95.4386 65.6973 95.7192 65.9339C95.9998 66.165 96.3657 66.2805 96.8169 66.2805C97.8127 66.2805 98.3409 65.7964 98.4015 64.828V61.0976H99.2846ZM105.522 65.8349C105.274 66.275 104.933 66.6079 104.498 66.8335C104.069 67.0536 103.568 67.1636 102.996 67.1636C102.457 67.1636 101.959 67.0288 101.502 66.7592C101.051 66.4896 100.691 66.1237 100.421 65.6616C100.157 65.1994 100.025 64.6877 100.025 64.1265C100.025 63.5708 100.16 63.0618 100.429 62.5996C100.705 62.1375 101.07 61.7716 101.527 61.502C101.984 61.2324 102.474 61.0976 102.996 61.0976C103.535 61.0976 104.017 61.2076 104.441 61.4277C104.864 61.6423 105.203 61.9531 105.456 62.3603L104.639 62.7399C104.413 62.5144 104.16 62.3438 103.879 62.2282C103.604 62.1072 103.31 62.0467 102.996 62.0467C102.622 62.0467 102.273 62.1375 101.948 62.319C101.629 62.5006 101.376 62.7509 101.189 63.0701C101.002 63.3837 100.908 63.7358 100.908 64.1265C100.908 64.5171 101.002 64.872 101.189 65.1911C101.376 65.5103 101.629 65.7606 101.948 65.9422C102.273 66.1237 102.622 66.2145 102.996 66.2145C103.343 66.2145 103.654 66.1567 103.929 66.0412C104.209 65.9202 104.446 65.7468 104.639 65.5213L105.522 65.8349ZM106.981 61.0976V66.2805H109.952V67.1636H106.098V61.0976H106.981ZM116.137 67.1636H115.121L114.767 66.2228H111.87L111.515 67.1636H110.45L112.728 61.0976H113.859L116.137 67.1636ZM113.331 62.3685L112.225 65.2819H114.42L113.331 62.3685Z" fill="#2D3D48"/>
<defs>
<filter id="filter0_f" x="32.6477" y="-6.5534" width="97.7047" height="97.7047" filterUnits="userSpaceOnUse" color-interpolation-filters="sRGB">
<feFlood flood-opacity="0" result="BackgroundImageFix"/>
<feBlend mode="normal" in="SourceGraphic" in2="BackgroundImageFix" result="shape"/>
<feGaussianBlur stdDeviation="3.61076" result="effect1_foregroundBlur"/>
</filter>
<linearGradient id="paint0_linear" x1="111.41" y1="0" x2="111.41" y2="59.8196" gradientUnits="userSpaceOnUse">
<stop stop-color="#8CFE66"/>
<stop offset="0.309998" stop-color="#63F9DB"/>
<stop offset="0.566234" stop-color="#74E5E1"/>
<stop offset="0.786458" stop-color="#A4A3FF"/>
<stop offset="1" stop-color="#FD92FF"/>
</linearGradient>
<linearGradient id="paint1_linear" x1="111.41" y1="3.05176e-05" x2="111.41" y2="59.8197" gradientUnits="userSpaceOnUse">
<stop stop-color="#8CFE66"/>
<stop offset="0.309998" stop-color="#63F9DB"/>
<stop offset="0.566234" stop-color="#74E5E1"/>
<stop offset="0.786458" stop-color="#A4A3FF"/>
<stop offset="1" stop-color="#FD92FF"/>
</linearGradient>
</defs>
</svg>
