<svg width="619" height="321" viewBox="0 0 619 321" fill="none" xmlns="http://www.w3.org/2000/svg">
<rect x="309.246" width="226.981" height="226.981" rx="65.2417" transform="rotate(45 309.246 0)" fill="url(#paint0_linear)"/>
<mask id="mask0" mask-type="alpha" maskUnits="userSpaceOnUse" x="175" y="27" width="268" height="267">
<rect x="309.246" y="0.000183105" width="226.981" height="226.981" rx="65.2417" transform="rotate(45 309.246 0.000183105)" fill="url(#paint1_linear)"/>
</mask>
<g mask="url(#mask0)">
<g filter="url(#filter0_f)">
<rect x="309.246" y="2.5351" width="223.396" height="223.396" rx="52.1934" transform="rotate(45 309.246 2.5351)" fill="white"/>
</g>
</g>
<path d="M96.5727 183.729H82.1674V148.154C82.1674 144.814 81.207 141.724 79.2863 138.885C77.4491 136.045 74.1922 134.626 69.5157 134.626C65.2567 134.626 62.1251 136.087 60.1209 139.01C58.1167 141.849 57.1145 145.19 57.1145 149.031V183.729H43.586V148.154C43.586 144.814 42.6674 141.724 40.8302 138.885C38.993 136.045 35.7779 134.626 31.1849 134.626C22.8339 134.626 18.6585 139.428 18.6585 149.031V183.729H5.12993V123.101H18.6585V126.358C22.4164 122.851 27.5105 121.097 33.9407 121.097C38.2832 121.097 42.0828 122.058 45.3397 123.978C48.6801 125.899 51.3524 128.53 53.3566 131.87C57.2816 124.688 63.9623 121.097 73.3989 121.097C78.2424 121.097 82.3761 122.225 85.8 124.479C89.2239 126.734 91.8127 129.699 93.5664 133.373C95.4036 137.047 96.4057 141.014 96.5727 145.273V183.729ZM140.171 121.097C134.576 121.097 129.357 122.559 124.513 125.481C119.67 128.321 115.787 132.204 112.864 137.131C109.941 141.975 108.48 147.194 108.48 152.789C108.48 158.468 109.941 163.77 112.864 168.698C115.787 173.541 119.67 177.424 124.513 180.347C129.357 183.186 134.576 184.606 140.171 184.606C145.85 184.606 151.028 183.186 155.704 180.347C160.464 177.424 164.222 173.541 166.978 168.698C169.734 163.77 171.112 158.468 171.112 152.789C171.112 147.11 169.734 141.849 166.978 137.006C164.222 132.162 160.464 128.321 155.704 125.481C151.028 122.559 145.85 121.097 140.171 121.097ZM121.883 152.789C121.883 149.699 122.635 146.86 124.138 144.271C125.724 141.599 127.854 139.511 130.526 138.008C133.198 136.421 136.08 135.628 139.169 135.628C142.677 135.628 145.808 136.421 148.564 138.008C151.32 139.511 153.491 141.557 155.078 144.146C156.665 146.735 157.458 149.616 157.458 152.789C157.458 155.962 156.665 158.885 155.078 161.557C153.491 164.146 151.32 166.234 148.564 167.821C145.808 169.324 142.677 170.075 139.169 170.075C136.08 170.075 133.198 169.324 130.526 167.821C127.854 166.234 125.724 164.146 124.138 161.557C122.635 158.885 121.883 155.962 121.883 152.789ZM209.287 121.097C203.692 121.097 198.472 122.559 193.629 125.481C188.785 128.321 184.902 132.204 181.979 137.131C179.057 141.975 177.595 147.194 177.595 152.789C177.595 158.468 179.057 163.77 181.979 168.698C184.902 173.541 188.785 177.424 193.629 180.347C198.472 183.186 203.692 184.606 209.287 184.606C214.966 184.606 220.143 183.186 224.82 180.347C229.58 177.424 233.338 173.541 236.093 168.698C238.849 163.77 240.227 158.468 240.227 152.789C240.227 147.11 238.849 141.849 236.093 137.006C233.338 132.162 229.58 128.321 224.82 125.481C220.143 122.559 214.966 121.097 209.287 121.097ZM190.998 152.789C190.998 149.699 191.75 146.86 193.253 144.271C194.84 141.599 196.969 139.511 199.642 138.008C202.314 136.421 205.195 135.628 208.285 135.628C211.792 135.628 214.924 136.421 217.68 138.008C220.435 139.511 222.607 141.557 224.193 144.146C225.78 146.735 226.573 149.616 226.573 152.789C226.573 155.962 225.78 158.885 224.193 161.557C222.607 164.146 220.435 166.234 217.68 167.821C214.924 169.324 211.792 170.075 208.285 170.075C205.195 170.075 202.314 169.324 199.642 167.821C196.969 166.234 194.84 164.146 193.253 161.557C191.75 158.885 190.998 155.962 190.998 152.789ZM305.585 183.729H291.806V149.532C291.806 145.774 290.678 142.392 288.424 139.386C286.169 136.379 282.411 134.876 277.15 134.876C272.223 134.876 268.548 136.463 266.127 139.636C263.705 142.81 262.494 146.442 262.494 150.534V183.729H248.84V123.101H262.494V127.36C266.92 123.185 273.141 121.097 281.158 121.097C286.336 121.097 290.72 122.266 294.311 124.605C297.985 126.859 300.741 129.866 302.578 133.624C304.416 137.382 305.418 141.39 305.585 145.649V183.729ZM344.977 121.097C346.898 121.097 348.694 121.264 350.364 121.598C352.618 122.183 354.539 122.809 356.126 123.477C357.796 124.145 359.675 125.398 361.763 127.235C363.934 129.239 365.479 131.285 366.397 133.373L366.899 134.375L356.126 138.885C354.372 136.63 352.326 135.043 349.988 134.125C347.733 133.206 345.729 132.747 343.975 132.747L342.597 132.872C340.343 133.039 338.338 133.582 336.585 134.5C334.747 135.753 333.829 137.34 333.829 139.26C333.912 140.179 334.163 141.014 334.58 141.766C335.081 142.434 335.875 143.018 336.96 143.519C338.38 144.104 340.092 144.689 342.096 145.273L345.854 146.651C347.274 146.985 349.069 147.528 351.241 148.28C353.412 149.031 354.957 149.616 355.875 150.033C358.381 151.119 360.719 152.706 362.89 154.793C364.226 156.046 365.27 157.507 366.022 159.177C366.773 160.848 367.233 162.351 367.4 163.687C367.483 164.105 367.525 164.814 367.525 165.816C367.525 168.238 366.857 170.618 365.521 172.957C363.85 176.297 361.637 178.76 358.882 180.347C357.796 181.182 356.293 182.017 354.372 182.852C352.451 183.687 350.238 184.23 347.733 184.481L343.725 184.606C341.553 184.606 339.424 184.481 337.336 184.23C335.248 183.98 333.745 183.687 332.827 183.353C330.739 182.685 328.902 181.934 327.315 181.099C325.728 180.264 324.058 178.886 322.305 176.965C321.469 176.046 320.593 174.794 319.674 173.207C318.755 171.62 318.129 170.535 317.795 169.95C319.632 169.199 323.474 167.487 329.319 164.814C330.405 166.819 331.282 168.155 331.95 168.823C332.033 168.906 332.743 169.491 334.079 170.577C335.416 171.662 337.712 172.414 340.969 172.831C341.47 172.915 342.222 172.957 343.224 172.957C345.061 172.957 346.731 172.748 348.234 172.33C349.737 171.829 350.656 171.412 350.99 171.078C351.074 170.994 351.533 170.618 352.368 169.95C353.203 169.199 353.621 167.988 353.621 166.318C353.621 164.647 352.869 163.269 351.366 162.184C350.698 161.683 349.863 161.182 348.861 160.681C347.858 160.18 346.522 159.637 344.852 159.052L340.969 157.8C337.461 156.797 335.081 156.004 333.829 155.42C330.321 154 327.649 152.371 325.812 150.534C324.309 149.115 323.056 147.57 322.054 145.899C321.135 144.146 320.676 142.016 320.676 139.511C320.676 135.002 322.388 131.118 325.812 127.861C327.232 126.442 329.027 125.189 331.198 124.104C333.453 122.934 335.917 122.099 338.589 121.598C340.927 121.264 343.057 121.097 344.977 121.097ZM411.08 121.097C416.424 121.097 420.892 122.183 424.483 124.354C428.157 126.442 430.913 129.281 432.75 132.872C434.588 136.379 435.506 140.304 435.506 144.647V183.729H421.727V147.653C421.727 144.396 420.6 141.39 418.345 138.634C416.174 135.878 412.458 134.5 407.196 134.5C402.186 134.5 398.47 136.045 396.048 139.135C393.626 142.142 392.415 145.649 392.415 149.657V183.729H378.761V91.6601H392.415V126.233C396.674 122.809 402.896 121.097 411.08 121.097ZM477.186 121.097C471.591 121.097 466.371 122.559 461.528 125.481C456.684 128.321 452.801 132.204 449.878 137.131C446.955 141.975 445.494 147.194 445.494 152.789C445.494 158.468 446.955 163.77 449.878 168.698C452.801 173.541 456.684 177.424 461.528 180.347C466.371 183.186 471.591 184.606 477.186 184.606C482.864 184.606 488.042 183.186 492.719 180.347C497.479 177.424 501.237 173.541 503.992 168.698C506.748 163.77 508.126 158.468 508.126 152.789C508.126 147.11 506.748 141.849 503.992 137.006C501.237 132.162 497.479 128.321 492.719 125.481C488.042 122.559 482.864 121.097 477.186 121.097ZM458.897 152.789C458.897 149.699 459.649 146.86 461.152 144.271C462.739 141.599 464.868 139.511 467.54 138.008C470.213 136.421 473.094 135.628 476.184 135.628C479.691 135.628 482.823 136.421 485.578 138.008C488.334 139.511 490.506 141.557 492.092 144.146C493.679 146.735 494.472 149.616 494.472 152.789C494.472 155.962 493.679 158.885 492.092 161.557C490.506 164.146 488.334 166.234 485.578 167.821C482.823 169.324 479.691 170.075 476.184 170.075C473.094 170.075 470.213 169.324 467.54 167.821C464.868 166.234 462.739 164.146 461.152 161.557C459.649 158.885 458.897 155.962 458.897 152.789ZM554.222 133.749H539.566V165.065C539.566 166.902 540.026 168.364 540.944 169.449C541.946 170.535 543.784 171.078 546.456 171.078H551.216V182.852C548.043 183.437 545.788 183.729 544.452 183.729C537.186 183.729 532.301 182.226 529.796 179.22C527.29 176.13 525.996 171.787 525.913 166.192V133.749H514.263V121.097H525.913V109.448L539.566 103.685V121.097H554.222V133.749ZM591.102 121.097C593.022 121.097 594.818 121.264 596.488 121.598C598.743 122.183 600.664 122.809 602.25 123.477C603.92 124.145 605.799 125.398 607.887 127.235C610.058 129.239 611.603 131.285 612.522 133.373L613.023 134.375L602.25 138.885C600.497 136.63 598.451 135.043 596.112 134.125C593.858 133.206 591.853 132.747 590.1 132.747L588.722 132.872C586.467 133.039 584.463 133.582 582.709 134.5C580.872 135.753 579.953 137.34 579.953 139.26C580.037 140.179 580.287 141.014 580.705 141.766C581.206 142.434 581.999 143.018 583.085 143.519C584.505 144.104 586.216 144.689 588.221 145.273L591.979 146.651C593.398 146.985 595.194 147.528 597.365 148.28C599.536 149.031 601.081 149.616 602 150.033C604.505 151.119 606.843 152.706 609.015 154.793C610.351 156.046 611.395 157.507 612.146 159.177C612.898 160.848 613.357 162.351 613.524 163.687C613.608 164.105 613.649 164.814 613.649 165.816C613.649 168.238 612.981 170.618 611.645 172.957C609.975 176.297 607.762 178.76 605.006 180.347C603.92 181.182 602.417 182.017 600.497 182.852C598.576 183.687 596.363 184.23 593.858 184.481L589.849 184.606C587.678 184.606 585.548 184.481 583.461 184.23C581.373 183.98 579.87 183.687 578.951 183.353C576.863 182.685 575.026 181.934 573.44 181.099C571.853 180.264 570.183 178.886 568.429 176.965C567.594 176.046 566.717 174.794 565.798 173.207C564.88 171.62 564.253 170.535 563.919 169.95C565.757 169.199 569.598 167.487 575.444 164.814C576.529 166.819 577.406 168.155 578.074 168.823C578.158 168.906 578.868 169.491 580.204 170.577C581.54 171.662 583.836 172.414 587.093 172.831C587.594 172.915 588.346 172.957 589.348 172.957C591.185 172.957 592.855 172.748 594.359 172.33C595.862 171.829 596.78 171.412 597.114 171.078C597.198 170.994 597.657 170.618 598.492 169.95C599.327 169.199 599.745 167.988 599.745 166.318C599.745 164.647 598.993 163.269 597.49 162.184C596.822 161.683 595.987 161.182 594.985 160.681C593.983 160.18 592.647 159.637 590.976 159.052L587.093 157.8C583.586 156.797 581.206 156.004 579.953 155.42C576.446 154 573.774 152.371 571.936 150.534C570.433 149.115 569.181 147.57 568.178 145.899C567.26 144.146 566.801 142.016 566.801 139.511C566.801 135.002 568.512 131.118 571.936 127.861C573.356 126.442 575.151 125.189 577.323 124.104C579.577 122.934 582.041 122.099 584.713 121.598C587.052 121.264 589.181 121.097 591.102 121.097Z" fill="#2D3D48"/>
<path d="M186.571 239.834C188.011 239.834 189.337 240.2 190.548 240.93C191.759 241.64 192.719 242.611 193.429 243.843C194.159 245.054 194.525 246.369 194.525 247.788C194.525 249.208 194.159 250.534 193.429 251.766C192.719 252.976 191.759 253.947 190.548 254.678C189.337 255.388 188.011 255.743 186.571 255.743C184.796 255.743 183.199 255.169 181.779 254.02V255.492H178.397V232.475H181.779V241.557C183.199 240.408 184.796 239.834 186.571 239.834ZM186.069 252.392C186.946 252.392 187.761 252.183 188.512 251.766C189.264 251.327 189.859 250.763 190.297 250.075C190.736 249.365 190.955 248.613 190.955 247.82C190.955 247.006 190.736 246.254 190.297 245.565C189.859 244.855 189.264 244.291 188.512 243.874C187.761 243.436 186.946 243.216 186.069 243.216C185.214 243.216 184.462 243.425 183.815 243.843C183.168 244.26 182.666 244.824 182.312 245.534C181.957 246.223 181.779 246.974 181.779 247.788C181.779 248.603 181.957 249.365 182.312 250.075C182.666 250.784 183.168 251.348 183.815 251.766C184.462 252.183 185.214 252.392 186.069 252.392ZM208.011 239.834H212.238L204.817 257.81C204.19 259.48 203.251 260.712 201.998 261.505C200.766 262.298 199.054 262.695 196.862 262.695H196.393V259.469H196.862C197.969 259.469 198.94 259.261 199.775 258.843C200.631 258.425 201.236 257.747 201.591 256.807L202.029 255.367L194.639 239.834H198.866L204.034 250.732L208.011 239.834ZM248.464 255.492H244.612L243.265 251.922H232.273L230.927 255.492H226.887L235.53 232.475H239.821L248.464 255.492ZM237.816 237.298L233.62 248.352H241.95L237.816 237.298ZM269.931 250.45C268.992 252.12 267.697 253.384 266.048 254.24C264.42 255.075 262.52 255.492 260.349 255.492C258.303 255.492 256.413 254.981 254.68 253.958C252.969 252.935 251.601 251.546 250.578 249.793C249.576 248.039 249.075 246.097 249.075 243.968C249.075 241.859 249.586 239.928 250.609 238.174C251.653 236.421 253.042 235.032 254.774 234.009C256.507 232.986 258.365 232.475 260.349 232.475C262.395 232.475 264.221 232.892 265.829 233.728C267.437 234.542 268.72 235.721 269.681 237.266L266.581 238.707C265.725 237.851 264.764 237.204 263.699 236.765C262.656 236.306 261.539 236.076 260.349 236.076C258.929 236.076 257.603 236.421 256.372 237.11C255.161 237.799 254.2 238.749 253.49 239.959C252.781 241.149 252.426 242.486 252.426 243.968C252.426 245.45 252.781 246.797 253.49 248.008C254.2 249.219 255.161 250.168 256.372 250.857C257.603 251.546 258.929 251.891 260.349 251.891C261.664 251.891 262.843 251.672 263.887 251.233C264.952 250.774 265.85 250.116 266.581 249.26L269.931 250.45ZM296.263 232.475V255.492H292.849V238.206L285.49 254.02H283.517L283.047 252.768L282.546 251.578L276.408 238.3V255.492H272.744V232.475H277.88L284.519 247.162L291.377 232.475H296.263ZM325.512 240.022H328.988V255.492H325.512V254.177C324.093 255.304 322.464 255.868 320.627 255.868C319.145 255.868 317.788 255.524 316.556 254.835C315.345 254.125 314.385 253.175 313.675 251.985C312.986 250.795 312.641 249.48 312.641 248.039C312.641 246.557 312.986 245.189 313.675 243.937C314.385 242.684 315.345 241.692 316.556 240.962C317.788 240.21 319.145 239.834 320.627 239.834C322.422 239.834 324.051 240.429 325.512 241.619V240.022ZM320.815 252.548C321.692 252.548 322.485 252.329 323.195 251.891C323.925 251.452 324.489 250.889 324.886 250.2C325.303 249.49 325.512 248.77 325.512 248.039C325.512 247.183 325.303 246.4 324.886 245.69C324.489 244.96 323.936 244.385 323.226 243.968C322.516 243.55 321.712 243.342 320.815 243.342C319.98 243.342 319.218 243.55 318.529 243.968C317.84 244.365 317.297 244.918 316.9 245.628C316.504 246.337 316.305 247.141 316.305 248.039C316.305 248.811 316.504 249.553 316.9 250.262C317.297 250.951 317.84 251.505 318.529 251.922C319.239 252.34 320.001 252.548 320.815 252.548ZM341.957 242.997H338.293V250.826C338.293 251.285 338.408 251.651 338.637 251.922C338.888 252.194 339.347 252.329 340.015 252.329H341.205V255.273C340.412 255.419 339.848 255.492 339.514 255.492C337.698 255.492 336.476 255.116 335.85 254.365C335.224 253.592 334.9 252.507 334.879 251.108V242.997H331.967V239.834H334.879V236.922L338.293 235.481V239.834H341.957V242.997ZM376.728 232.475V248.07C376.645 249.469 376.175 250.743 375.319 251.891C374.484 253.018 373.367 253.906 371.968 254.553C370.569 255.179 369.035 255.492 367.365 255.492C365.778 255.492 364.316 255.179 362.98 254.553C361.644 253.926 360.559 253.05 359.723 251.922C358.888 250.795 358.408 249.511 358.283 248.07H358.252V232.475H361.602V246.63C361.602 248.53 362.135 249.928 363.2 250.826C364.264 251.703 365.653 252.141 367.365 252.141C371.143 252.141 373.148 250.304 373.377 246.63V232.475H376.728ZM400.394 250.45C399.455 252.12 398.161 253.384 396.511 254.24C394.883 255.075 392.983 255.492 390.812 255.492C388.766 255.492 386.876 254.981 385.144 253.958C383.432 252.935 382.064 251.546 381.041 249.793C380.039 248.039 379.538 246.097 379.538 243.968C379.538 241.859 380.049 239.928 381.072 238.174C382.116 236.421 383.505 235.032 385.237 234.009C386.97 232.986 388.828 232.475 390.812 232.475C392.858 232.475 394.684 232.892 396.292 233.728C397.9 234.542 399.184 235.721 400.144 237.266L397.044 238.707C396.188 237.851 395.227 237.204 394.163 236.765C393.119 236.306 392.002 236.076 390.812 236.076C389.392 236.076 388.066 236.421 386.835 237.11C385.624 237.799 384.663 238.749 383.954 239.959C383.244 241.149 382.889 242.486 382.889 243.968C382.889 245.45 383.244 246.797 383.954 248.008C384.663 249.219 385.624 250.168 386.835 250.857C388.066 251.546 389.392 251.891 390.812 251.891C392.127 251.891 393.307 251.672 394.35 251.233C395.415 250.774 396.313 250.116 397.044 249.26L400.394 250.45ZM405.932 232.475V252.141H417.206V255.492H402.581V232.475H405.932ZM440.672 255.492H436.82L435.474 251.922H424.482L423.135 255.492H419.095L427.738 232.475H432.029L440.672 255.492ZM430.025 237.298L425.828 248.352H434.158L430.025 237.298Z" fill="#2D3D48"/>
<defs>
<filter id="filter0_f" x="145.499" y="-3.24723" width="327.495" height="327.495" filterUnits="userSpaceOnUse" color-interpolation-filters="sRGB">
<feFlood flood-opacity="0" result="BackgroundImageFix"/>
<feBlend mode="normal" in="SourceGraphic" in2="BackgroundImageFix" result="shape"/>
<feGaussianBlur stdDeviation="13.7008" result="effect1_foregroundBlur"/>
</filter>
<linearGradient id="paint0_linear" x1="422.737" y1="0" x2="422.737" y2="226.981" gradientUnits="userSpaceOnUse">
<stop stop-color="#8CFE66"/>
<stop offset="0.309998" stop-color="#63F9DB"/>
<stop offset="0.566234" stop-color="#74E5E1"/>
<stop offset="0.786458" stop-color="#A4A3FF"/>
<stop offset="1" stop-color="#FD92FF"/>
</linearGradient>
<linearGradient id="paint1_linear" x1="422.737" y1="0.000183105" x2="422.737" y2="226.981" gradientUnits="userSpaceOnUse">
<stop stop-color="#8CFE66"/>
<stop offset="0.309998" stop-color="#63F9DB"/>
<stop offset="0.566234" stop-color="#74E5E1"/>
<stop offset="0.786458" stop-color="#A4A3FF"/>
<stop offset="1" stop-color="#FD92FF"/>
</linearGradient>
</defs>
</svg>
